<svg xmlns="http://www.w3.org/2000/svg" xmlns:xlink="http://www.w3.org/1999/xlink" width="108" height="108" viewBox="0 0 108 108">
  <defs>
    <filter id="Fondo" x="0" y="0" width="108" height="108" filterUnits="userSpaceOnUse">
      <feOffset dy="3" input="SourceAlpha"/>
      <feGaussianBlur stdDeviation="3" result="blur"/>
      <feFlood flood-opacity="0.161"/>
      <feComposite operator="in" in2="blur"/>
      <feComposite in="SourceGraphic"/>
    </filter>
  </defs>
  <g id="Group_1144520" data-name="Group 1144520" transform="translate(-671.999 -454)">
    <g id="Group_1144387" data-name="Group 1144387" transform="translate(-74 -4)">
      <g id="Icono" transform="translate(420.279 -231)">
        <g transform="matrix(1, 0, 0, 1, 325.72, 689)" filter="url(#Fondo)">
          <g id="Fondo-2" data-name="Fondo" transform="translate(9 6)" fill="#f1fef9" stroke="#43896d" stroke-width="3">
            <circle cx="45" cy="45" r="45" stroke="none"/>
            <circle cx="45" cy="45" r="43.5" fill="none"/>
          </g>
        </g>
      </g>
      <g id="Group_1144381" data-name="Group 1144381" transform="translate(772.631 481.631)">
        <g id="Group_1144379" data-name="Group 1144379" transform="translate(1.851 1.851)">
          <g id="Group_1144337" data-name="Group 1144337" transform="translate(7.12 22.116)">
            <path id="Path_980543" data-name="Path 980543" d="M12.607,28l.536,2.126a2.61,2.61,0,0,0-.519.408l-.868.868-.868-.868a2.61,2.61,0,0,0-.519-.408L10.906,28Z" transform="translate(-10.37 -28)" fill="#ffeaa7"/>
          </g>
          <g id="Group_1144338" data-name="Group 1144338" transform="translate(6.277 18.713)">
            <path id="Path_980544" data-name="Path 980544" d="M13.837,25.335,12.459,27.4h-1.7L9.38,25.335,11.609,24Z" transform="translate(-9.38 -24)" fill="#fcd770"/>
          </g>
          <g id="Group_1144339" data-name="Group 1144339" transform="translate(9.357 17.82)">
            <path id="Path_980545" data-name="Path 980545" d="M13,27.246l1.378-2.067L16.4,26.395l.689-3.445a6.905,6.905,0,0,1,3.564,6.056v6.439a3.08,3.08,0,0,0-.587-1.82,3.132,3.132,0,0,0-1.54-1.131l-.425-.145-.315-1.242a2.846,2.846,0,0,0-2.756-2.161,3.61,3.61,0,0,0-1.5.425Z" transform="translate(-13 -22.95)" fill="#b4dd7f"/>
          </g>
          <g id="Group_1144340" data-name="Group 1144340" transform="translate(0 17.82)">
            <path id="Path_980546" data-name="Path 980546" d="M5.564,22.95l.689,3.445,2.024-1.216,1.378,2.067L9.12,29.372a2.832,2.832,0,0,0-3.241.179,2.983,2.983,0,0,0-.34.315L5.47,29.8H2v-.791A6.905,6.905,0,0,1,5.564,22.95Z" transform="translate(-2 -22.95)" fill="#b4dd7f"/>
          </g>
          <g id="Group_1144341" data-name="Group 1144341" transform="translate(8.506 17.012)">
            <path id="Path_980547" data-name="Path 980547" d="M14.229,25.037,12,23.7,14.552,22l2.39.808-.689,3.445Z" transform="translate(-12 -22)" fill="#a0d468"/>
          </g>
          <g id="Group_1144342" data-name="Group 1144342" transform="translate(3.564 17.012)">
            <path id="Path_980548" data-name="Path 980548" d="M8.58,22l2.552,1.7L8.9,25.037,6.879,26.253,6.19,22.808Z" transform="translate(-6.19 -22)" fill="#a0d468"/>
          </g>
          <g id="Group_1144343" data-name="Group 1144343" transform="translate(6.805 47.633)">
            <path id="Path_980549" data-name="Path 980549" d="M12.552,58l.851,3.4H10l.851-3.4Z" transform="translate(-10 -58)" fill="#e6e9ed"/>
          </g>
          <g id="Group_1144344" data-name="Group 1144344" transform="translate(6.277 44.231)">
            <path id="Path_980550" data-name="Path 980550" d="M13.837,55.335,12.459,57.4h-1.7L9.38,55.335,11.609,54Z" transform="translate(-9.38 -54)" fill="#ccd1d9"/>
          </g>
          <g id="Group_1144345" data-name="Group 1144345" transform="translate(9.357 43.338)">
            <path id="Path_980551" data-name="Path 980551" d="M20.655,59.006v1.642h-6.8L13,57.246l1.378-2.067L16.4,56.395l.689-3.445a6.905,6.905,0,0,1,3.564,6.056Z" transform="translate(-13 -52.95)" fill="#fcd770"/>
          </g>
          <g id="Group_1144346" data-name="Group 1144346" transform="translate(0 43.338)">
            <path id="Path_980552" data-name="Path 980552" d="M5.564,52.95l.689,3.445,2.024-1.216,1.378,2.067-.851,3.4H2V59.006A6.905,6.905,0,0,1,5.564,52.95Z" transform="translate(-2 -52.95)" fill="#fcd770"/>
          </g>
          <g id="Group_1144347" data-name="Group 1144347" transform="translate(8.506 42.53)">
            <path id="Path_980553" data-name="Path 980553" d="M14.229,55.037,12,53.7,14.552,52l2.39.808-.689,3.445Z" transform="translate(-12 -52)" fill="#ffc729"/>
          </g>
          <g id="Group_1144348" data-name="Group 1144348" transform="translate(3.564 42.53)">
            <path id="Path_980554" data-name="Path 980554" d="M8.58,52l2.552,1.7L8.9,55.037,6.879,56.253,6.19,52.808Z" transform="translate(-6.19 -52)" fill="#ffc729"/>
          </g>
          <g id="Group_1144349" data-name="Group 1144349" transform="translate(17.012 25.518)">
            <path id="Path_980555" data-name="Path 980555" d="M35.61,47.311H31.357L28.8,49.863v7.655H22V32H33.908l1.7,1.7Z" transform="translate(-22 -32)" fill="#cf9e76"/>
          </g>
          <g id="Group_1144350" data-name="Group 1144350" transform="translate(23.817 40.829)">
            <path id="Path_980556" data-name="Path 980556" d="M40.207,53.4v6.8H30V52.552L32.552,50h7.655Z" transform="translate(-30 -50)" fill="#dfb28b"/>
          </g>
          <g id="Group_1144351" data-name="Group 1144351" transform="translate(40.829 47.633)">
            <path id="Path_980557" data-name="Path 980557" d="M52.552,58l.851,3.4H50l.851-3.4Z" transform="translate(-50 -58)" fill="#ffeaa7"/>
          </g>
          <g id="Group_1144352" data-name="Group 1144352" transform="translate(40.301 44.231)">
            <path id="Path_980558" data-name="Path 980558" d="M53.837,55.335,52.459,57.4h-1.7L49.38,55.335,51.609,54Z" transform="translate(-49.38 -54)" fill="#fcd770"/>
          </g>
          <g id="Group_1144353" data-name="Group 1144353" transform="translate(43.38 43.338)">
            <path id="Path_980559" data-name="Path 980559" d="M57.091,52.95a6.911,6.911,0,0,1,3.564,6.056v1.642h-6.8L53,57.246l1.378-2.067L56.4,56.395Z" transform="translate(-53 -52.95)" fill="#ef7385"/>
          </g>
          <g id="Group_1144354" data-name="Group 1144354" transform="translate(34.024 43.338)">
            <path id="Path_980560" data-name="Path 980560" d="M42,59.006a6.905,6.905,0,0,1,3.564-6.056l.689,3.445,2.024-1.216,1.378,2.067-.851,3.4H42Z" transform="translate(-42 -52.95)" fill="#ef7385"/>
          </g>
          <g id="Group_1144355" data-name="Group 1144355" transform="translate(42.53 42.53)">
            <path id="Path_980561" data-name="Path 980561" d="M54.552,52a6.741,6.741,0,0,1,2.39.808l-.689,3.445-2.024-1.216L52,53.7Z" transform="translate(-52 -52)" fill="#ed5565"/>
          </g>
          <g id="Group_1144356" data-name="Group 1144356" transform="translate(37.588 42.53)">
            <path id="Path_980562" data-name="Path 980562" d="M48.58,52l2.552,1.7L48.9,55.037l-2.024,1.216-.689-3.445Z" transform="translate(-46.19 -52)" fill="#ed5565"/>
          </g>
          <g id="Group_1144357" data-name="Group 1144357" transform="translate(34.024 25.518)">
            <path id="Path_980563" data-name="Path 980563" d="M43.7,40.506a1.655,1.655,0,0,0-1.157.468l-.009-.009-.357-1.438A6.069,6.069,0,0,1,48.056,32H52.99a6.067,6.067,0,0,1,5.844,7.528l-.357,1.438-.009.009a1.655,1.655,0,0,0-1.157-.468h-1.7a1.706,1.706,0,0,0-1.7-1.7H51.357A2.544,2.544,0,0,1,49,37.231l-1.548.315a2.551,2.551,0,0,0-2.05,2.5v.459Z" transform="translate(-42 -32)" fill="#656d78"/>
          </g>
          <g id="Group_1144358" data-name="Group 1144358" transform="translate(0 23.817)">
            <path id="Path_980564" data-name="Path 980564" d="M19.012,36.5a2.989,2.989,0,0,1-.06.612l-.68,3.394a1.693,1.693,0,0,0-.961-.3h-1.7v-.851A2.548,2.548,0,0,0,13.058,36.8h-5.1A2.548,2.548,0,0,0,5.4,39.357v.851H3.7a1.693,1.693,0,0,0-.961.3l-.68-3.394A2.989,2.989,0,0,1,2,36.5a3.1,3.1,0,0,1,2.126-2.952l.425-.145.315-1.242a2.811,2.811,0,0,1,.672-1.242,2.983,2.983,0,0,1,.34-.315,2.832,2.832,0,0,1,3.241-.179,2.61,2.61,0,0,1,.519.408l.868.868.868-.868a2.61,2.61,0,0,1,.519-.408A3.61,3.61,0,0,1,13.39,30a2.846,2.846,0,0,1,2.756,2.161L16.46,33.4l.425.145a3.132,3.132,0,0,1,1.54,1.131,3.08,3.08,0,0,1,.587,1.82Z" transform="translate(-2 -30)" fill="#656d78"/>
          </g>
          <g id="Group_1144359" data-name="Group 1144359" transform="translate(0 0)">
            <path id="Path_980565" data-name="Path 980565" d="M18.833,9.528l-.357,1.438-.009.009a1.655,1.655,0,0,0-1.157-.468h-1.7V9.655A2.548,2.548,0,0,0,13.058,7.1h-5.1A2.548,2.548,0,0,0,5.4,9.655v.851H3.7a1.682,1.682,0,0,0-1.072.383l-.587-3.53A3.462,3.462,0,0,1,2,6.84,3.136,3.136,0,0,1,5.139,3.7H5.4A3.074,3.074,0,0,1,8.158,2h4.8a6.066,6.066,0,0,1,5.878,7.528Z" transform="translate(-2 -2)" fill="#b27946"/>
          </g>
          <g id="Group_1144360" data-name="Group 1144360" transform="translate(20.414 5.104)">
            <path id="Path_980566" data-name="Path 980566" d="M38.2,8A1.409,1.409,0,0,1,39.61,9.412v9.246a6.154,6.154,0,0,0,1.948,4.491,5.118,5.118,0,0,0-1.948,4.015v1.25H26V13.665a.854.854,0,0,1,.519-.783L29.4,11.649l3.4-1.463,4.84-2.075A1.526,1.526,0,0,1,38.2,8Z" transform="translate(-26 -8)" fill="#ccd1d9"/>
          </g>
          <g id="Group_1144361" data-name="Group 1144361" transform="translate(34.024 0)">
            <path id="Path_980567" data-name="Path 980567" d="M48.235,19.863a1.68,1.68,0,0,1-1.131,1.1H47.1l-1.395.4a5.1,5.1,0,0,0-1.752.893A6.154,6.154,0,0,1,42,17.762V10.506a8.506,8.506,0,0,1,17.012,0v7.256a6.154,6.154,0,0,1-1.948,4.491,5.1,5.1,0,0,0-1.752-.893l-1.395-.4h-.009a1.7,1.7,0,0,1-1.131-1.1l-.391-1.157-.017-.043a5.074,5.074,0,0,0,3.241-4.738V12.207a1.7,1.7,0,0,0-1.7-1.7h-.766a5.288,5.288,0,0,1-3.887-1.7H48.8a3.4,3.4,0,0,0-3.4,3.4v1.7a5.056,5.056,0,0,0,1.5,3.607l1.744,1.14v.009Z" transform="translate(-42 -2)" fill="#fcd770"/>
          </g>
          <g id="Group_1144362" data-name="Group 1144362" transform="translate(42.53 18.96)">
            <path id="Path_980568" data-name="Path 980568" d="M55.4,25.345V24.29h.009l1.395.4a5.094,5.094,0,0,1,3.7,4.908v1.25H52a6.179,6.179,0,0,0,3.028-3.4,6.006,6.006,0,0,0,.374-2.1Z" transform="translate(-52 -24.29)" fill="#b4dd7f"/>
          </g>
          <g id="Group_1144363" data-name="Group 1144363" transform="translate(34.024 18.96)">
            <path id="Path_980569" data-name="Path 980569" d="M45.7,24.69l1.395-.4H47.1v1.055a6.006,6.006,0,0,0,.374,2.1,6.179,6.179,0,0,0,3.028,3.4H42V29.6a5.094,5.094,0,0,1,3.7-4.908Z" transform="translate(-42 -24.29)" fill="#b4dd7f"/>
          </g>
          <g id="Group_1144364" data-name="Group 1144364" transform="translate(39.502 22.116)">
            <path id="Path_980570" data-name="Path 980570" d="M48.44,28H54.5a6.179,6.179,0,0,1-3.028,3.4A6.179,6.179,0,0,1,48.44,28Z" transform="translate(-48.44 -28)" fill="#e6e9ed"/>
          </g>
          <g id="Group_1144365" data-name="Group 1144365" transform="translate(47.633 34.024)">
            <path id="Path_980571" data-name="Path 980571" d="M59.7,42a1.655,1.655,0,0,1,1.157.468A1.683,1.683,0,0,1,61.4,43.7a1.714,1.714,0,0,1-1.7,1.7H58V42Z" transform="translate(-58 -42)" fill="#f0d0b4"/>
          </g>
          <g id="Group_1144366" data-name="Group 1144366" transform="translate(39.978 40.829)">
            <path id="Path_980572" data-name="Path 980572" d="M53.253,50l.851,1.7-2.552,1.7L49,51.7l.851-1.7Z" transform="translate(-49 -50)" fill="#f0d0b4"/>
          </g>
          <g id="Group_1144367" data-name="Group 1144367" transform="translate(37.426 30.749)">
            <path id="Path_980573" data-name="Path 980573" d="M46,41.425v-.459a2.551,2.551,0,0,1,2.05-2.5L49.6,38.15a2.544,2.544,0,0,0,2.356,1.574h2.552a1.706,1.706,0,0,1,1.7,1.7v3.4a3.4,3.4,0,0,1-3.4,3.4H49.4a3.4,3.4,0,0,1-3.4-3.4Z" transform="translate(-46 -38.15)" fill="#f0d0b4"/>
          </g>
          <g id="Group_1144368" data-name="Group 1144368" transform="translate(34.024 34.024)">
            <path id="Path_980574" data-name="Path 980574" d="M45.4,42v3.4H43.7A1.714,1.714,0,0,1,42,43.7a1.683,1.683,0,0,1,.544-1.233A1.655,1.655,0,0,1,43.7,42Z" transform="translate(-42 -42)" fill="#f0d0b4"/>
          </g>
          <g id="Group_1144369" data-name="Group 1144369" transform="translate(39.127 16.655)">
            <path id="Path_980575" data-name="Path 980575" d="M53.673,22.788a1.7,1.7,0,0,0,1.131,1.1V24.94a6.006,6.006,0,0,1-.374,2.1H48.374A6.005,6.005,0,0,1,48,24.94V23.885a1.68,1.68,0,0,0,1.131-1.1l.408-1.2V21.58a5.109,5.109,0,0,0,1.888.357,4.9,4.9,0,0,0,1.837-.349l.017.043Z" transform="translate(-48 -21.58)" fill="#f0d0b4"/>
          </g>
          <g id="Group_1144370" data-name="Group 1144370" transform="translate(37.426 6.805)">
            <path id="Path_980576" data-name="Path 980576" d="M56.207,13.4v1.718a5.074,5.074,0,0,1-3.241,4.738,4.9,4.9,0,0,1-1.837.349,5.109,5.109,0,0,1-1.888-.357L47.5,18.71A5.056,5.056,0,0,1,46,15.1V13.4A3.4,3.4,0,0,1,49.4,10h.451a5.288,5.288,0,0,0,3.887,1.7h.766A1.7,1.7,0,0,1,56.207,13.4Z" transform="translate(-46 -10)" fill="#f0d0b4"/>
          </g>
          <g id="Group_1144371" data-name="Group 1144371" transform="translate(13.61 34.024)">
            <path id="Path_980577" data-name="Path 980577" d="M20.662,42.3a1.716,1.716,0,0,1,.74,1.4,1.714,1.714,0,0,1-1.7,1.7H18V42h1.7A1.693,1.693,0,0,1,20.662,42.3Z" transform="translate(-18 -42)" fill="#f0d0b4"/>
          </g>
          <g id="Group_1144372" data-name="Group 1144372" transform="translate(5.954 40.829)">
            <path id="Path_980578" data-name="Path 980578" d="M13.253,50l.851,1.7-2.552,1.7L9,51.7,9.851,50Z" transform="translate(-9 -50)" fill="#f0d0b4"/>
          </g>
          <g id="Group_1144373" data-name="Group 1144373" transform="translate(3.402 30.622)">
            <path id="Path_980579" data-name="Path 980579" d="M6,41.4v-.851A2.548,2.548,0,0,1,8.552,38h5.1a2.548,2.548,0,0,1,2.552,2.552V44.8a3.4,3.4,0,0,1-3.4,3.4H9.4A3.4,3.4,0,0,1,6,44.8Z" transform="translate(-6 -38)" fill="#f0d0b4"/>
          </g>
          <g id="Group_1144374" data-name="Group 1144374" transform="translate(0 34.024)">
            <path id="Path_980580" data-name="Path 980580" d="M5.4,42v3.4H3.7A1.714,1.714,0,0,1,2,43.7a1.716,1.716,0,0,1,.74-1.4A1.693,1.693,0,0,1,3.7,42Z" transform="translate(-2 -42)" fill="#f0d0b4"/>
          </g>
          <g id="Group_1144375" data-name="Group 1144375" transform="translate(13.61 8.506)">
            <path id="Path_980581" data-name="Path 980581" d="M19.7,12a1.655,1.655,0,0,1,1.157.468A1.683,1.683,0,0,1,21.4,13.7a1.714,1.714,0,0,1-1.7,1.7H18V12Z" transform="translate(-18 -12)" fill="#f0d0b4"/>
          </g>
          <g id="Group_1144376" data-name="Group 1144376" transform="translate(5.954 15.311)">
            <path id="Path_980582" data-name="Path 980582" d="M13.253,20l.851,1.7-2.552,1.7L9,21.7,9.851,20Z" transform="translate(-9 -20)" fill="#f0d0b4"/>
          </g>
          <g id="Group_1144377" data-name="Group 1144377" transform="translate(3.402 5.104)">
            <path id="Path_980583" data-name="Path 980583" d="M6,11.4v-.851A2.548,2.548,0,0,1,8.552,8h5.1a2.548,2.548,0,0,1,2.552,2.552V14.8a3.4,3.4,0,0,1-3.4,3.4H9.4A3.4,3.4,0,0,1,6,14.8Z" transform="translate(-6 -8)" fill="#f0d0b4"/>
          </g>
          <g id="Group_1144378" data-name="Group 1144378" transform="translate(0 8.506)">
            <path id="Path_980584" data-name="Path 980584" d="M5.4,12v3.4H3.7A1.714,1.714,0,0,1,2,13.7a1.71,1.71,0,0,1,.629-1.318A1.682,1.682,0,0,1,3.7,12Z" transform="translate(-2 -12)" fill="#f0d0b4"/>
          </g>
        </g>
        <g id="Group_1144380" data-name="Group 1144380" transform="translate(1 1)">
          <path id="Path_980585" data-name="Path 980585" d="M53.737,10.357A9.352,9.352,0,0,0,35.829,6.575a2.234,2.234,0,0,0-2.257-.288L29.92,7.852V2.7h-1.7V8.581l-1.7.729V4.4h-1.7v5.636l-2.371,1.016a1.7,1.7,0,0,0-1.032,1.564v13.9h-1.7v-.79a7.827,7.827,0,0,0-6.236-7.63l-.151-.3a4.253,4.253,0,0,0,2.9-3.187h.937a2.555,2.555,0,0,0,2.552-2.552,2.529,2.529,0,0,0-.461-1.455l.254-1.016A6.909,6.909,0,0,0,12.8,1h-4.8A3.9,3.9,0,0,0,4.765,2.708,4,4,0,0,0,1,6.694a4.047,4.047,0,0,0,.054.657l.52,3.115A2.529,2.529,0,0,0,1,12.058,2.555,2.555,0,0,0,3.552,14.61h.937a4.251,4.251,0,0,0,2.9,3.187l-.151.3A7.828,7.828,0,0,0,1,25.728v.79H2.7v-.79a6.092,6.092,0,0,1,2.136-4.611l.669,3.349,2.365-1.419.719,1.079-.2.817a3.729,3.729,0,0,0-.91-.126,3.691,3.691,0,0,0-3.587,2.8l-.2.793A3.959,3.959,0,0,0,1,32.164a3.869,3.869,0,0,0,.077.777l.586,2.933a2.541,2.541,0,0,0,1.888,4.253h.937a4.251,4.251,0,0,0,2.9,3.187l-.151.3A7.829,7.829,0,0,0,1,51.246v2.491H53.737V51.246a7.828,7.828,0,0,0-6.236-7.63l-.151-.3a4.253,4.253,0,0,0,2.9-3.187h.937a2.555,2.555,0,0,0,2.552-2.552,2.529,2.529,0,0,0-.461-1.455L53.53,35.1a6.908,6.908,0,0,0-6.678-8.585,6.956,6.956,0,0,0,1.776-4.586l.323.092a4.273,4.273,0,0,1,3.084,4.091v.4h1.7v-.4a5.947,5.947,0,0,0-1.614-4.042,7.034,7.034,0,0,0,1.614-4.462ZM23.116,12.618,34.242,7.85a.576.576,0,0,1,.782.515V17.61a7.026,7.026,0,0,0,1.614,4.461,5.946,5.946,0,0,0-1.614,4.043v.4h1.7v-.4a4.272,4.272,0,0,1,3.084-4.09l.323-.092a6.958,6.958,0,0,0,1.776,4.586A6.906,6.906,0,0,0,35.231,35.1l.254,1.017a2.529,2.529,0,0,0-.461,1.455,2.555,2.555,0,0,0,2.552,2.552h.937a4.251,4.251,0,0,0,2.9,3.187l-.151.3a7.786,7.786,0,0,0-4.535,2.8V41.829h-3.4V28.718l-2.2-2.2H23.116Zm21.29,5.394a4.262,4.262,0,0,1-3.031-1.247,4.218,4.218,0,0,1-1.248-3.008v-1.7a2.553,2.553,0,0,1,2.552-2.549h.1a6.141,6.141,0,0,0,4.236,1.7h.767a.853.853,0,0,1,.851.851v1.722a4.23,4.23,0,0,1-4.229,4.233Zm0,1.7a5.976,5.976,0,0,0,1.3-.147l.139.415a2.545,2.545,0,0,0,1.09,1.362v.52a5.359,5.359,0,0,1-.158,1.252H41.986a5.4,5.4,0,0,1-.157-1.251v-.519a2.549,2.549,0,0,0,1.091-1.364l.141-.424A6.086,6.086,0,0,0,44.405,19.713Zm-.025,6.67a5.279,5.279,0,0,1-1.648-1.567h3.3A5.261,5.261,0,0,1,44.38,26.384ZM38.426,38.426h-.851a.851.851,0,1,1,0-1.7h.851Zm7.13,5.1.28.56-1.455.97-1.455-.97.28-.56Zm-10.532,0v1.7h-6.8v1.7h6.8v5.1H26.518V45.583l2.053-2.053Zm1.7,7.716a6.093,6.093,0,0,1,2.136-4.611l.669,3.349L41.9,48.565l.719,1.078-.6,2.394H36.725Zm4.921-5.965,1.145.763-2.065,1.239-.324-1.62A6.037,6.037,0,0,1,41.646,45.28Zm2.548,5.054h.373l.425,1.7H43.768Zm.583-1.7h-.791l-.629-.945,1.025-.615,1.025.615ZM30.419,28.219l1.2,1.2V41.829H27.867l-3.05,3.05v7.157h-5.1V28.219ZM11.532,43.53l.28.56-1.455.97L8.9,44.09l.28-.56Zm4.779-6.8h.851a.851.851,0,0,1,0,1.7h-.851Zm-.086,3.4h.937a2.523,2.523,0,0,0,.851-.157v6.444a7.786,7.786,0,0,0-4.535-2.8l-.151-.3A4.254,4.254,0,0,0,16.225,40.127Zm-4.278,5.916,1.145-.763a6,6,0,0,1,1.244.383l-.324,1.62Zm-1.591,1.03,1.025.615-.629.945H9.961l-.629-.945Zm-.187,3.261h.373l.425,1.7H9.744Zm1.954-.692.719-1.078,2.365,1.419.669-3.349a6.091,6.091,0,0,1,2.136,4.61v.79H12.721Zm5.889-23.915v3.19a3.954,3.954,0,0,0-.989-.508l-.2-.792a3.643,3.643,0,0,0-4.5-2.674l-.2-.817.719-1.079,2.365,1.419.669-3.349a6.09,6.09,0,0,1,2.136,4.61Zm-6.48-7.716.28.56-1.455.97L8.9,18.572l.28-.56Zm2.8,2.133-.324,1.62-2.065-1.239,1.145-.764A6,6,0,0,1,14.337,20.145Zm2.825-7.237h-.851v-1.7h.851a.851.851,0,0,1,0,1.7ZM2.7,12.058a.851.851,0,0,1,.851-.851H4.4v1.7H3.552A.851.851,0,0,1,2.7,12.058Zm3.4,1.7V9.506A1.7,1.7,0,0,1,7.385,7.858L8.8,9.978l1.415-.943L8.26,6.1H7.8a3.406,3.406,0,0,0-3.4,3.4H3.552a2.553,2.553,0,0,0-.407.041L2.732,7.072A2.332,2.332,0,0,1,2.7,6.694,2.294,2.294,0,0,1,4.993,4.4h.786l.235-.47A2.217,2.217,0,0,1,8.006,2.7h4.8a5.208,5.208,0,0,1,5.053,6.471l-.1.41a2.527,2.527,0,0,0-.593-.077h-.851V7.8h-1.7v5.954a2.555,2.555,0,0,1-2.552,2.552h-3.4A2.555,2.555,0,0,1,6.1,13.759Zm.273,6.386a5.985,5.985,0,0,1,1.244-.383l1.145.764L6.7,21.766Zm3.98,1.41,1.025.615-.629.945H9.961l-.629-.945Zm-.187,3.261h.373l.238.953c-.051.046-.11.082-.159.131l-.265.265L10.09,25.9c-.049-.049-.107-.084-.159-.131ZM2.7,37.576a.851.851,0,0,1,.851-.851H4.4v1.7H3.552A.851.851,0,0,1,2.7,37.576Zm3.4,1.7V35.024a1.7,1.7,0,0,1,1.281-1.648L8.8,35.5l1.415-.943L8.26,31.622H7.8a3.406,3.406,0,0,0-3.4,3.4H3.552a2.444,2.444,0,0,0-.317.032l-.49-2.45a2.328,2.328,0,0,1-.043-.442,2.259,2.259,0,0,1,1.546-2.146l.867-.288.425-1.7A2,2,0,0,1,8.888,27.1l1.469,1.468L11.826,27.1a2,2,0,0,1,3.349.928l.424,1.7.867.288a2.261,2.261,0,0,1,1.5,2.59l-.49,2.448a2.572,2.572,0,0,0-.316-.031h-.851v-1.7h-1.7v5.954a2.555,2.555,0,0,1-2.552,2.552h-3.4A2.555,2.555,0,0,1,6.1,39.277Zm1.518,6,1.145.763L6.7,47.283l-.324-1.62A6.037,6.037,0,0,1,7.622,45.28ZM2.7,51.246a6.093,6.093,0,0,1,2.136-4.611l.669,3.349,2.365-1.419.719,1.078-.6,2.394H2.7Zm49.335,0v.79H46.745l-.6-2.393.719-1.078,2.365,1.419.669-3.349A6.091,6.091,0,0,1,52.036,51.246ZM48.36,45.663l-.324,1.62L45.97,46.043l1.145-.763A6.037,6.037,0,0,1,48.36,45.663Zm.274-6.386a2.555,2.555,0,0,1-2.552,2.552h-3.4a2.555,2.555,0,0,1-2.552-2.552V35.414A1.707,1.707,0,0,1,41.5,33.746l.939-.188a3.406,3.406,0,0,0,2.8,1.466h2.552a.851.851,0,0,1,.851.851Zm2.552-.851h-.851v-1.7h.851a.851.851,0,1,1,0,1.7Zm.851-5a5.215,5.215,0,0,1-.156,1.263l-.1.41a2.527,2.527,0,0,0-.593-.077H50.178a2.548,2.548,0,0,0-2.4-1.7H45.231a1.7,1.7,0,0,1-1.7-1.7v-1.7h-1.7v1.7c0,.108.005.215.015.321l-.682.136a3.4,3.4,0,0,0-2.7,2.946h-.885a2.527,2.527,0,0,0-.593.077l-.1-.411a5.207,5.207,0,0,1,5.053-6.47h4.894a5.214,5.214,0,0,1,5.208,5.208ZM48.03,19.993a.857.857,0,0,1-.574-.549l-.162-.483a5.922,5.922,0,0,0,3.043-5.182V12.056a2.556,2.556,0,0,0-2.552-2.55h-.766a4.454,4.454,0,0,1-4.354-3.569L41,6.27a6.138,6.138,0,0,0,.6,1.675,4.258,4.258,0,0,0-3.168,4.11v1.7a5.9,5.9,0,0,0,1.748,4.213,5.979,5.979,0,0,0,1.3.976l-.165.5a.854.854,0,0,1-.573.549l-1.391.4a5.857,5.857,0,0,0-1.381.617,5.325,5.325,0,0,1-1.236-3.4V10.357a7.655,7.655,0,1,1,15.311,0V17.61a5.321,5.321,0,0,1-1.236,3.4,5.892,5.892,0,0,0-1.381-.617Z" transform="translate(-1 -1)"/>
          <path id="Path_980586" data-name="Path 980586" d="M0,0H1.7V3.067H0Z" transform="matrix(0.832, -0.555, 0.555, 0.832, 9.501, 6.422)"/>
          <path id="Path_980587" data-name="Path 980587" d="M0,0H1.7V3.067H0Z" transform="matrix(0.832, -0.555, 0.555, 0.832, 9.509, 31.939)"/>
          <path id="Path_980588" data-name="Path 980588" d="M33,57h1.7v1.7H33Z" transform="translate(-5.781 -9.367)"/>
          <path id="Path_980589" data-name="Path 980589" d="M37,57h1.7v1.7H37Z" transform="translate(-6.378 -9.367)"/>
          <path id="Path_980590" data-name="Path 980590" d="M29,37h1.7v1.7H29Z" transform="translate(-5.183 -6.378)"/>
          <path id="Path_980591" data-name="Path 980591" d="M33,37h1.7v1.7H33Z" transform="translate(-5.781 -6.378)"/>
          <path id="Path_980592" data-name="Path 980592" d="M29,41h1.7v1.7H29Z" transform="translate(-5.183 -6.976)"/>
          <path id="Path_980593" data-name="Path 980593" d="M33,41h1.7v1.7H33Z" transform="translate(-5.781 -6.976)"/>
          <path id="Path_980594" data-name="Path 980594" d="M29,45h1.7v1.7H29Z" transform="translate(-5.183 -7.574)"/>
          <path id="Path_980595" data-name="Path 980595" d="M25,37h1.7v1.7H25Z" transform="translate(-4.586 -6.378)"/>
          <path id="Path_980596" data-name="Path 980596" d="M25,41h1.7v1.7H25Z" transform="translate(-4.586 -6.976)"/>
          <path id="Path_980597" data-name="Path 980597" d="M25,45h1.7v1.7H25Z" transform="translate(-4.586 -7.574)"/>
          <path id="Path_980598" data-name="Path 980598" d="M33,45h1.7v1.7H33Z" transform="translate(-5.781 -7.574)"/>
          <path id="Path_980599" data-name="Path 980599" d="M29,17h1.7v1.7H29Z" transform="translate(-5.183 -3.39)"/>
          <path id="Path_980600" data-name="Path 980600" d="M33,17h1.7v1.7H33Z" transform="translate(-5.781 -3.39)"/>
          <path id="Path_980601" data-name="Path 980601" d="M37,17h1.7v1.7H37Z" transform="translate(-6.378 -3.39)"/>
          <path id="Path_980602" data-name="Path 980602" d="M29,21h1.7v1.7H29Z" transform="translate(-5.183 -3.988)"/>
          <path id="Path_980603" data-name="Path 980603" d="M33,21h1.7v1.7H33Z" transform="translate(-5.781 -3.988)"/>
          <path id="Path_980604" data-name="Path 980604" d="M37,21h1.7v1.7H37Z" transform="translate(-6.378 -3.988)"/>
          <path id="Path_980605" data-name="Path 980605" d="M29,25h1.7v1.7H29Z" transform="translate(-5.183 -4.586)"/>
          <path id="Path_980606" data-name="Path 980606" d="M33,25h1.7v1.7H33Z" transform="translate(-5.781 -4.586)"/>
          <path id="Path_980607" data-name="Path 980607" d="M37,25h1.7v1.7H37Z" transform="translate(-6.378 -4.586)"/>
        </g>
      </g>
    </g>
  </g>
</svg>
