<svg xmlns="http://www.w3.org/2000/svg" xmlns:xlink="http://www.w3.org/1999/xlink" width="108" height="108" viewBox="0 0 108 108">
  <defs>
    <filter id="Fondo" x="0" y="0" width="108" height="108" filterUnits="userSpaceOnUse">
      <feOffset dy="3" input="SourceAlpha"/>
      <feGaussianBlur stdDeviation="3" result="blur"/>
      <feFlood flood-opacity="0.161"/>
      <feComposite operator="in" in2="blur"/>
      <feComposite in="SourceGraphic"/>
    </filter>
  </defs>
  <g id="Group_1144505" data-name="Group 1144505" transform="translate(-326 -5599)">
    <g id="Group_1144275" data-name="Group 1144275">
      <g id="Icono" transform="translate(0.28 4910)">
        <g transform="matrix(1, 0, 0, 1, 325.72, 689)" filter="url(#Fondo)">
          <g id="Fondo-2" data-name="Fondo" transform="translate(9 6)" fill="#f1fef9" stroke="#43896d" stroke-width="3">
            <circle cx="45" cy="45" r="45" stroke="none"/>
            <circle cx="45" cy="45" r="43.5" fill="none"/>
          </g>
        </g>
      </g>
      <g id="Group_1144274" data-name="Group 1144274" transform="translate(352.34 5619.838)">
        <path id="Path_980221" data-name="Path 980221" d="M105,216.164h24.456v11.947H105Zm0,0" transform="translate(-93.656 -192.36)" fill="#fea02c"/>
        <path id="Path_980222" data-name="Path 980222" d="M143.754,253.646V250H139v2.094Zm0,0" transform="translate(-123.982 -222.536)" fill="#ff5d5d"/>
        <path id="Path_980223" data-name="Path 980223" d="M20.6,280.5a49.824,49.824,0,0,1,15.587-15.959l.239-.336A49.848,49.848,0,0,0,10,256.625v26.567h8.95Zm0,0" transform="translate(-8.921 -228.449)" fill="#62cd4d"/>
        <path id="Path_980224" data-name="Path 980224" d="M92.832,283.042l1.647-2.7a49.866,49.866,0,0,1,42.565-23.888v26.585Zm0,0" transform="translate(-82.803 -228.3)" fill="#a0e557"/>
        <path id="Path_980225" data-name="Path 980225" d="M105,165.919l6.051-6.087,6.051,6.087Zm0,0" transform="translate(-93.656 -142.115)" fill="#fe8f8d"/>
        <path id="Path_980226" data-name="Path 980226" d="M179.405,165.919l-6.051-6.087H161l6.051,6.087Zm0,0" transform="translate(-143.605 -142.115)" fill="#ff5d5d"/>
        <g id="Group_1144273" data-name="Group 1144273" transform="translate(1.079 1.581)">
          <path id="Path_980227" data-name="Path 980227" d="M357.461,33.986c-8.066-6.486-8.066-17,0-23.486C365.527,16.985,365.527,27.5,357.461,33.986Zm0,0" transform="translate(-314.521 -10.5)" fill="#a0e557"/>
          <path id="Path_980228" data-name="Path 980228" d="M26.246,64.089c-6.1-4.9-6.1-12.853,0-17.757C32.344,51.235,32.344,59.185,26.246,64.089Zm0,0" transform="translate(-20.411 -42.46)" fill="#a0e557"/>
          <path id="Path_980229" data-name="Path 980229" d="M29.474,335.978A41.789,41.789,0,0,0,10,331.125v8.7a33.01,33.01,0,0,1,13.491,2.9" transform="translate(-10 -296.481)" fill="#a0e557"/>
        </g>
        <path id="Path_980230" data-name="Path 980230" d="M180.547,349.492a42.09,42.09,0,0,1,34.734-18.535v8.7a33.343,33.343,0,0,0-23.534,9.837Zm0,0" transform="translate(-161.04 -294.75)" fill="#62cd4d"/>
        <path id="Path_980231" data-name="Path 980231" d="M298.812,401.457a34.527,34.527,0,0,0-24.3,10.156,1.081,1.081,0,0,0,1.532,1.524,32.352,32.352,0,0,1,22.768-9.519,1.081,1.081,0,0,0,0-2.161Zm0,0" transform="translate(-244.571 -357.632)"/>
        <path id="Path_980232" data-name="Path 980232" d="M183.825,388.267a1.08,1.08,0,0,0-1.5-.29,42.649,42.649,0,0,0-11.6,11.606,1.081,1.081,0,1,0,1.794,1.205,40.487,40.487,0,0,1,11.014-11.021,1.081,1.081,0,0,0,.29-1.5Zm0,0" transform="translate(-152.117 -345.443)"/>
        <path id="Path_980233" data-name="Path 980233" d="M378.745,320.957a42.5,42.5,0,0,0-14.211,2.453,1.08,1.08,0,1,0,.721,2.037,40.342,40.342,0,0,1,13.49-2.329,1.081,1.081,0,1,0,0-2.161Zm0,0" transform="translate(-324.504 -285.83)"/>
        <path id="Path_980234" data-name="Path 980234" d="M15.48,48.409A49.249,49.249,0,0,1,44.234,30.293h.006a48.159,48.159,0,0,1,10-1.054,1.08,1.08,0,1,0,0-2.161,50.847,50.847,0,0,0-9.141.831V25.576a16,16,0,0,0,6.049-12.252A16.119,16.119,0,0,0,44.7.739a1.081,1.081,0,0,0-1.354,0,16.12,16.12,0,0,0-6.453,12.585,16,16,0,0,0,6.049,12.252V28.35a51.162,51.162,0,0,0-6.058,1.78V23.8a1.077,1.077,0,0,0-.314-.761h0l-6.051-6.087a1.082,1.082,0,0,0-.766-.319H17.395a1.081,1.081,0,0,0-.766.319l-6.051,6.087h0a1.077,1.077,0,0,0-.314.762V27.93q-1.129-.207-2.269-.363V23.715a12.332,12.332,0,0,0,4.574-9.384A12.446,12.446,0,0,0,7.591,4.611a1.081,1.081,0,0,0-1.354,0A12.445,12.445,0,0,0,1.26,14.331a12.332,12.332,0,0,0,4.574,9.383v3.6Q3.47,27.1,1.079,27.1a1.081,1.081,0,1,0,0,2.161A48.735,48.735,0,0,1,25.62,35.879a51.009,51.009,0,0,0-5.1,3.964,42.988,42.988,0,0,0-19.437-4.7,1.081,1.081,0,1,0,0,2.161,40.792,40.792,0,0,1,17.739,4.106,51.066,51.066,0,0,0-4.6,5.086A33.8,33.8,0,0,0,1.079,43.843a1.081,1.081,0,1,0,0,2.161,31.624,31.624,0,0,1,11.8,2.281q-1.12,1.556-2.123,3.2l-1.647,2.7a1.08,1.08,0,1,0,1.844,1.126l1.647-2.7a47.97,47.97,0,0,1,2.775-4.06,1.022,1.022,0,0,0,.107-.139ZM39.05,13.324A13.788,13.788,0,0,1,44.019,3a13.788,13.788,0,0,1,4.969,10.329A13.451,13.451,0,0,1,45.1,22.606V14.331a1.081,1.081,0,1,0-2.161,0v8.274a13.449,13.449,0,0,1-3.888-9.282ZM3.421,14.331A10.111,10.111,0,0,1,6.914,6.877a10.111,10.111,0,0,1,3.493,7.454,9.769,9.769,0,0,1-2.413,6.326v-7.19a1.081,1.081,0,1,0-2.161,0v7.19a9.769,9.769,0,0,1-2.413-6.326ZM33.2,22.723H23.9l-3.9-3.926H29.3ZM17.4,19.25l3.453,3.474H13.942Zm-4.97,5.635h9.941v6.871q-.752-.346-1.513-.667V27.459a1.081,1.081,0,0,0-1.081-1.081H15.018a1.081,1.081,0,0,0-1.081,1.081v1.285q-.753-.2-1.513-.371Zm6.267,5.352q-1.285-.474-2.593-.878V28.54h2.593Zm5.835,2.577V24.884H34.72v6.085A50.713,50.713,0,0,0,29.307,33.6q-.841.472-1.662.976-1.532-.936-3.119-1.759Zm0,0"/>
        <path id="Path_980235" data-name="Path 980235" d="M398.479,82.661a1.082,1.082,0,1,0-.764-.317A1.088,1.088,0,0,0,398.479,82.661Zm0,0" transform="translate(-354.46 -71.355)"/>
        <path id="Path_980236" data-name="Path 980236" d="M317.985,363.153a1.079,1.079,0,1,0,.764-.317A1.09,1.09,0,0,0,317.985,363.153Zm0,0" transform="translate(-283.345 -323.184)"/>
      </g>
    </g>
  </g>
</svg>
