<svg xmlns="http://www.w3.org/2000/svg" xmlns:xlink="http://www.w3.org/1999/xlink" width="108" height="108" viewBox="0 0 108 108">
  <defs>
    <filter id="Fondo" x="0" y="0" width="108" height="108" filterUnits="userSpaceOnUse">
      <feOffset dy="3" input="SourceAlpha"/>
      <feGaussianBlur stdDeviation="3" result="blur"/>
      <feFlood flood-opacity="0.161"/>
      <feComposite operator="in" in2="blur"/>
      <feComposite in="SourceGraphic"/>
    </filter>
  </defs>
  <g id="Group_1144529" data-name="Group 1144529" transform="translate(-325.999 -4935)">
    <g id="Group_1144455" data-name="Group 1144455">
      <g id="Icono" transform="translate(0.28 4246)">
        <g transform="matrix(1, 0, 0, 1, 325.72, 689)" filter="url(#Fondo)">
          <g id="Fondo-2" data-name="Fondo" transform="translate(9 6)" fill="#f1fef9" stroke="#43896d" stroke-width="3">
            <circle cx="45" cy="45" r="45" stroke="none"/>
            <circle cx="45" cy="45" r="43.5" fill="none"/>
          </g>
        </g>
      </g>
      <g id="Group_1144454" data-name="Group 1144454" transform="translate(353.321 4955.097)">
        <g id="Group_1144452" data-name="Group 1144452" transform="translate(0.782 5.498)">
          <g id="Group_1144446" data-name="Group 1144446" transform="translate(0 10.531)">
            <path id="Path_980784" data-name="Path 980784" d="M23.627,138.206a4.531,4.531,0,0,0-1.78-2.521l-1.657-1.154V113.266H9.16V134.8L8.1,136.478a3.84,3.84,0,0,0-.6,2.057v11.525a1.66,1.66,0,0,0,3.319,0v1.476a1.66,1.66,0,0,0,3.319,0,1.66,1.66,0,0,0,3.319,0v-4.788h3.319v-5.892h3.491Z" transform="translate(-7.5 -113.266)" fill="#ffa78f"/>
            <g id="Group_1144445" data-name="Group 1144445" transform="translate(9.371)">
              <path id="Path_980785" data-name="Path 980785" d="M104.182,138.206a4.531,4.531,0,0,0-1.78-2.521l-1.657-1.154V113.266H97.426v20.565a1.34,1.34,0,0,0,.574,1.1l1.083.754a4.531,4.531,0,0,1,1.78,2.521l.642,2.65h3.318Z" transform="translate(-97.426 -113.266)" fill="#f89580"/>
              <path id="Path_980786" data-name="Path 980786" d="M104.195,378.01a1.139,1.139,0,0,0-1.139,1.139v9.541a1.66,1.66,0,0,0,3.319,0V378.01Z" transform="translate(-102.468 -350.42)" fill="#f89580"/>
            </g>
          </g>
          <g id="Group_1144448" data-name="Group 1144448" transform="translate(0.35 0)">
            <g id="Group_1144447" data-name="Group 1144447">
              <path id="Path_980787" data-name="Path 980787" d="M19.583,107.771v3.319H12.522a1.66,1.66,0,1,1,0-3.319Z" transform="translate(-10.862 -97.813)" fill="#ffcebf"/>
              <path id="Path_980788" data-name="Path 980788" d="M19.583,75.919v3.319H12.522a1.66,1.66,0,1,1,0-3.319Z" transform="translate(-10.862 -69.28)" fill="#ffcebf"/>
              <path id="Path_980789" data-name="Path 980789" d="M19.583,44.067v3.319H12.522a1.66,1.66,0,1,1,0-3.319Z" transform="translate(-10.862 -40.748)" fill="#ffcebf"/>
              <path id="Path_980790" data-name="Path 980790" d="M32.275,12.216v3.319H26.69a1.66,1.66,0,0,1,0-3.319Z" transform="translate(-23.554 -12.216)" fill="#ffcebf"/>
              <path id="Path_980791" data-name="Path 980791" d="M72.735,12.216h8.213a3.839,3.839,0,0,1,2.056.6l1.676,1.063h21.536v11.03H84.951L83.8,26.563a4.531,4.531,0,0,1-2.521,1.78l-2.65.642V25.494H72.735Z" transform="translate(-66.287 -12.216)" fill="#ffcebf"/>
              <path id="Path_980792" data-name="Path 980792" d="M72.735,12.216h8.213a3.839,3.839,0,0,1,2.056.6l1.676,1.063h21.536v11.03H84.951L83.8,26.563a4.531,4.531,0,0,1-2.521,1.78l-2.65.642V25.494H72.735Z" transform="translate(-66.287 -12.216)" fill="#ffcebf"/>
              <path id="Path_980793" data-name="Path 980793" d="M106.221,13.879v11.03H84.956L83.8,26.566a4.536,4.536,0,0,1-2.521,1.781l-2.65.641V25.5H72.74V12.22h8.213a3.831,3.831,0,0,1,2.056.6l1.676,1.062Z" transform="translate(-66.292 -12.22)" fill="#ffcebf"/>
            </g>
            <path id="Path_980794" data-name="Path 980794" d="M345.25,28.14h5.081V39.17H345.25Z" transform="translate(-310.402 -26.481)" fill="#ffb09e"/>
          </g>
          <g id="Group_1144449" data-name="Group 1144449" transform="translate(35.025 0.351)">
            <path id="Path_980795" data-name="Path 980795" d="M357.04,22.03V17.242a3.711,3.711,0,0,1-4.979-1.66,1.66,1.66,0,1,1-3.319,0,1.66,1.66,0,0,0-1.66,1.66v10.68h-3.491l.642,2.65a4.531,4.531,0,0,0,1.78,2.521l1.657,1.154V55.512H358.7V33.975l1.063-1.676a3.84,3.84,0,0,0,.6-2.056V22.03Z" transform="translate(-343.591 -15.582)" fill="#ffdfcf"/>
            <path id="Path_980796" data-name="Path 980796" d="M460.049,29.75a1.66,1.66,0,0,0-1.66,1.66V42.935a3.839,3.839,0,0,1-.6,2.056l-.728,1.148a2.152,2.152,0,0,0-.335,1.152V68.2h3.318V46.667l1.063-1.676a3.84,3.84,0,0,0,.6-2.056V31.41a1.659,1.659,0,0,0-1.66-1.66Z" transform="translate(-444.939 -28.274)" fill="#ffcebf"/>
          </g>
          <g id="Group_1144451" data-name="Group 1144451" transform="translate(13.24 34.043)">
            <path id="Path_980797" data-name="Path 980797" d="M172.753,347.349a1.66,1.66,0,1,1,0-3.319,1.66,1.66,0,0,0-1.66-1.66h-10.68v-3.491l-2.65.641a4.536,4.536,0,0,0-2.521,1.781l-1.154,1.657h-19.5v10.679a1.619,1.619,0,0,1-.038.351h19.81l1.676,1.062a3.831,3.831,0,0,0,2.056.6h11.525a1.66,1.66,0,1,0,0-3.319h1.476a3.711,3.711,0,0,1,1.66-4.979Z" transform="translate(-134.55 -338.879)" fill="#ffcebf"/>
            <g id="Group_1144450" data-name="Group 1144450" transform="translate(31.749 3.491)">
              <path id="Path_980798" data-name="Path 980798" d="M456.687,372.378h-3.318a1.66,1.66,0,1,1,0,3.319h3.318a1.66,1.66,0,1,0,0-3.319Z" transform="translate(-451.893 -372.378)" fill="#ffb09e"/>
              <path id="Path_980799" data-name="Path 980799" d="M456.687,404.229h-3.318a1.66,1.66,0,1,1,0,3.319h3.318a1.66,1.66,0,1,0,0-3.319Z" transform="translate(-451.893 -400.91)" fill="#ffb09e"/>
              <path id="Path_980800" data-name="Path 980800" d="M456.687,436.081h-3.318a1.66,1.66,0,1,1,0,3.319h3.318a1.66,1.66,0,1,0,0-3.319Z" transform="translate(-451.893 -429.442)" fill="#ffb09e"/>
              <path id="Path_980801" data-name="Path 980801" d="M442.519,467.933H439.2a1.66,1.66,0,0,1,0,3.319h3.318a1.66,1.66,0,0,0,0-3.319Z" transform="translate(-439.201 -457.975)" fill="#ffb09e"/>
            </g>
          </g>
          <path id="Path_980802" data-name="Path 980802" d="M189.124,200.071a1.011,1.011,0,0,1-.9,1.481H172.675a1.012,1.012,0,0,1-.9-1.481l.916-1.743.878-1.672-.878-1.672-.916-1.743a1.011,1.011,0,0,1,.9-1.481h15.553a1.011,1.011,0,0,1,.9,1.481l-.916,1.743-.878,1.672.878,1.672Z" transform="translate(-154.554 -173.05)" fill="#ffe177"/>
          <path id="Path_980803" data-name="Path 980803" d="M296.041,198.328l-.878-1.672.878-1.672.916-1.743a1.011,1.011,0,0,0-.9-1.481h-3.244a1.011,1.011,0,0,1,.9,1.481l-.916,1.743-.649,1.237a.935.935,0,0,0,0,.869l.649,1.237.916,1.743a1.011,1.011,0,0,1-.9,1.481h3.244a1.011,1.011,0,0,0,.9-1.481Z" transform="translate(-262.388 -173.05)" fill="#ffd15b"/>
          <path id="Path_980804" data-name="Path 980804" d="M196.207,224.367l.878,1.672H181.572l.878-1.672-.878-1.672h15.513Z" transform="translate(-163.431 -200.76)" fill="#6c7fd8"/>
          <path id="Path_980805" data-name="Path 980805" d="M296.041,222.7H292.8l-.649,1.237a.935.935,0,0,0,0,.869l.649,1.237h3.244l-.878-1.672Z" transform="translate(-262.388 -200.76)" fill="#4f66d0"/>
          <path id="Path_980806" data-name="Path 980806" d="M188.228,258H172.675a1.012,1.012,0,0,1-.9-1.481l.916-1.743h15.513l.916,1.743A1.011,1.011,0,0,1,188.228,258Z" transform="translate(-154.555 -229.5)" fill="#fe646f"/>
          <path id="Path_980807" data-name="Path 980807" d="M303.46,256.52l-.916-1.743H299.3l.916,1.743a1.011,1.011,0,0,1-.9,1.481h3.244A1.011,1.011,0,0,0,303.46,256.52Z" transform="translate(-268.891 -229.499)" fill="#fd4755"/>
        </g>
        <g id="Group_1144453" data-name="Group 1144453" transform="translate(0 4.716)">
          <path id="Path_980808" data-name="Path 980808" d="M50.916,6.543a2.426,2.426,0,0,0-1,.214A2.439,2.439,0,0,0,45.937,5.72a2.435,2.435,0,0,0-3.319,0,2.438,2.438,0,0,0-3.821.656H19.752l-1.484-.941a4.615,4.615,0,0,0-2.475-.719H4.268A2.44,2.44,0,0,0,2.04,8.154,2.439,2.439,0,0,0,1,12.136a2.435,2.435,0,0,0,0,3.319,2.438,2.438,0,0,0,.656,3.822V22.6a.782.782,0,0,0,1.563,0V19.557H12.69V37.293a.781.781,0,0,0,.335.641l1.657,1.154a3.755,3.755,0,0,1,1.47,2.075l.4,1.672h-2.5a.782.782,0,0,0-.782.782V54.3a.878.878,0,1,1-1.756,0V47.236a.782.782,0,0,0-1.563,0V54.3a.878.878,0,1,1-1.756,0V47.236a.782.782,0,0,0-1.563,0V54.3a.878.878,0,1,1-1.756,0V47.236a.782.782,0,0,0-1.563,0v5.585a.878.878,0,1,1-1.756,0V41.3a3.054,3.054,0,0,1,.476-1.638L3.1,37.983a.781.781,0,0,0,.122-.419V26.256a.782.782,0,0,0-1.563,0V37.338L.719,38.821A4.615,4.615,0,0,0,0,41.3V52.822a2.44,2.44,0,0,0,3.438,2.228A2.439,2.439,0,0,0,7.42,56.086a2.435,2.435,0,0,0,3.319,0,2.438,2.438,0,0,0,3.821-.656H33.6l1.483.94a4.607,4.607,0,0,0,2.475.719H49.089a2.44,2.44,0,0,0,2.228-3.438,2.439,2.439,0,0,0,1.037-3.982,2.435,2.435,0,0,0,0-3.319,2.438,2.438,0,0,0-.657-3.822V24.469l.942-1.484a4.616,4.616,0,0,0,.719-2.475V8.984a2.444,2.444,0,0,0-2.441-2.441ZM2.792,9.6H9.853a.782.782,0,1,0,0-1.563H4.268a.878.878,0,0,1,0-1.756H15.793a3.054,3.054,0,0,1,1.638.476l1.676,1.063a.781.781,0,0,0,.419.122H38.517v9.467H19.8a.781.781,0,0,0-.641.335L18,19.4a3.756,3.756,0,0,1-2.075,1.47l-1.672.4v-2.5a.782.782,0,0,0-.782-.782H2.792a.878.878,0,1,1,0-1.756H9.853a.782.782,0,0,0,0-1.563H2.792a.878.878,0,1,1,0-1.756H9.853a.782.782,0,1,0,0-1.563H2.792a.878.878,0,1,1,0-1.756ZM15.575,37.806l-1.322-.921v-14l2.052-.5.023-.006a5.322,5.322,0,0,0,2.956-2.087l.921-1.322H35.192l.5,2.053.006.023A5.326,5.326,0,0,0,37.782,24l1.322.92v14l-2.052.5-.023.006a5.328,5.328,0,0,0-2.956,2.088l-.92,1.322H18.165l-.5-2.053-.006-.023a5.322,5.322,0,0,0-2.087-2.956Zm36.219-17.3a3.055,3.055,0,0,1-.476,1.637l-1.063,1.676a.782.782,0,0,0-.122.419V42.25H43.542a.782.782,0,1,0,0,1.563h7.023a.878.878,0,1,1,0,1.756H43.5a.782.782,0,0,0,0,1.563h7.062a.878.878,0,0,1,0,1.756H43.5a.782.782,0,0,0,0,1.563h7.062a.878.878,0,0,1,0,1.756H43.5a.782.782,0,0,0,0,1.563h5.585a.878.878,0,0,1,0,1.756H37.564a3.047,3.047,0,0,1-1.638-.476L34.25,53.989a.782.782,0,0,0-.418-.121H14.841V44.4h18.72a.782.782,0,0,0,.641-.335l1.153-1.657a3.76,3.76,0,0,1,2.076-1.471l1.673-.4v2.5a.782.782,0,1,0,1.563,0V24.513a.782.782,0,0,0-.335-.641l-1.657-1.153a3.76,3.76,0,0,1-1.47-2.076L36.8,18.97h2.5a.782.782,0,0,0,.782-.782s0,0,0-.007V7.508a.878.878,0,1,1,1.756,0V14.57a.782.782,0,1,0,1.563,0V7.508a.878.878,0,1,1,1.756,0V14.57a.782.782,0,1,0,1.563,0V7.508a.878.878,0,1,1,1.756,0V14.57a.782.782,0,0,0,1.563,0V8.984a.878.878,0,1,1,1.756,0Z" transform="translate(0 -4.716)"/>
          <path id="Path_980809" data-name="Path 980809" d="M181.5,195.614a1.793,1.793,0,0,0,1.588-2.626l-1.6-3.051,1.6-3.052a1.793,1.793,0,0,0-1.588-2.625H165.952a1.793,1.793,0,0,0-1.588,2.626l1.6,3.051-1.6,3.052a1.793,1.793,0,0,0,1.588,2.625Zm-15.749-9.68a.223.223,0,0,1,.2-.111H181.5a.23.23,0,0,1,.2.336l-.7,1.325H166.444l-.7-1.325A.222.222,0,0,1,165.755,185.934Zm14.159,4.366.277.527H167.265l.277-.527a.781.781,0,0,0,0-.727l-.277-.527h12.927l-.277.527A.782.782,0,0,0,179.915,190.3Zm-14.159,3.64a.222.222,0,0,1-.007-.225l.7-1.325h14.568l.7,1.325a.23.23,0,0,1-.2.336H165.952A.222.222,0,0,1,165.755,193.94Z" transform="translate(-147.05 -165.549)"/>
          <path id="Path_980810" data-name="Path 980810" d="M216.076,309.016a.782.782,0,0,0-1.1.1.464.464,0,0,1-.046.048.471.471,0,0,1-.328.109.763.763,0,1,1,.426-1.4.782.782,0,1,0,.875-1.3,2.326,2.326,0,1,0-1.3,4.254,2,2,0,0,0,1.572-.715A.781.781,0,0,0,216.076,309.016Z" transform="translate(-190.153 -274.763)"/>
          <path id="Path_980811" data-name="Path 980811" d="M257.41,306.182a2.326,2.326,0,1,0,2.326,2.326A2.329,2.329,0,0,0,257.41,306.182Zm0,3.089a.763.763,0,1,1,.763-.763A.764.764,0,0,1,257.41,309.271Z" transform="translate(-228.501 -274.765)"/>
        </g>
      </g>
    </g>
  </g>
</svg>
