<svg xmlns="http://www.w3.org/2000/svg" xmlns:xlink="http://www.w3.org/1999/xlink" width="108" height="108" viewBox="0 0 108 108">
  <defs>
    <filter id="Fondo" x="0" y="0" width="108" height="108" filterUnits="userSpaceOnUse">
      <feOffset dy="3" input="SourceAlpha"/>
      <feGaussianBlur stdDeviation="3" result="blur"/>
      <feFlood flood-opacity="0.161"/>
      <feComposite operator="in" in2="blur"/>
      <feComposite in="SourceGraphic"/>
    </filter>
  </defs>
  <g id="Group_1144502" data-name="Group 1144502" transform="translate(-746 -4449)">
    <g id="Group_1144266" data-name="Group 1144266">
      <g id="Icono" transform="translate(420.28 3760)">
        <g transform="matrix(1, 0, 0, 1, 325.72, 689)" filter="url(#Fondo)">
          <g id="Fondo-2" data-name="Fondo" transform="translate(9 6)" fill="#f1fef9" stroke="#43896d" stroke-width="3">
            <circle cx="45" cy="45" r="45" stroke="none"/>
            <circle cx="45" cy="45" r="43.5" fill="none"/>
          </g>
        </g>
      </g>
      <g id="Group_1144265" data-name="Group 1144265" transform="translate(741.404 4470.591)">
        <g id="Group_1144263" data-name="Group 1144263" transform="translate(25.726 0.862)">
          <path id="Path_980172" data-name="Path 980172" d="M177.054,327.526v15.482a.574.574,0,0,0,.574.574H211.24a.574.574,0,0,0,.574-.574V327.526a4.829,4.829,0,0,0-4.829-4.829h-25.1A4.829,4.829,0,0,0,177.054,327.526Z" transform="translate(-160.429 -286.487)" fill="#dff6fd"/>
          <path id="Path_980173" data-name="Path 980173" d="M434.855,322.7H434.5a4.829,4.829,0,0,1,2.772,4.369v15.942a.574.574,0,0,1-.574.574h2.413a.574.574,0,0,0,.574-.574V327.526A4.829,4.829,0,0,0,434.855,322.7Z" transform="translate(-388.298 -286.487)" fill="#c8effe"/>
          <path id="Path_980174" data-name="Path 980174" d="M294.911,264.425v6.87a3.841,3.841,0,0,0,7.681,0v-6.87Z" transform="translate(-264.746 -234.909)" fill="#ffbd86"/>
          <path id="Path_980175" data-name="Path 980175" d="M221.523,178.155H197.317a3.332,3.332,0,1,0,0,6.663h24.206a3.332,3.332,0,1,0,0-6.663Z" transform="translate(-175.414 -158.55)" fill="#ffbd86"/>
          <path id="Path_980176" data-name="Path 980176" d="M235.03,85.927V99.839a10.72,10.72,0,0,0,21.44,0V85.927Z" transform="translate(-211.744 -76.917)" fill="#fed2a4"/>
          <path id="Path_980177" data-name="Path 980177" d="M217.775,7.5A14.365,14.365,0,0,0,203.3,21.864V22.6a.667.667,0,0,0,.667.667h5.2a10.484,10.484,0,0,0,8.493-4.334,10.487,10.487,0,0,0,8.493,4.334h5.2a.667.667,0,0,0,.667-.667v-.552A14.482,14.482,0,0,0,217.775,7.5Z" transform="translate(-183.66 -7.499)" fill="#918291"/>
          <path id="Path_980178" data-name="Path 980178" d="M319.181,7.5c-.442,0-.88.015-1.312.05a14.5,14.5,0,0,1,13.156,14.494V22.6a.667.667,0,0,1-.667.667h2.412a.667.667,0,0,0,.667-.667v-.552A14.482,14.482,0,0,0,319.181,7.5Z" transform="translate(-285.067 -7.5)" fill="#7a6d79"/>
          <path id="Path_980179" data-name="Path 980179" d="M237.324,405.781h20.913v11.341H237.324Z" transform="translate(-213.775 -360.026)" fill="#ffe177"/>
          <path id="Path_980180" data-name="Path 980180" d="M35.405,273.554l-.921.921a7.341,7.341,0,0,0,0,10.382l6.814,6.814a.574.574,0,0,0,.812,0L52.6,281.18a.574.574,0,0,0,0-.812l-6.814-6.814a7.341,7.341,0,0,0-10.382,0Z" transform="translate(-32.334 -241.087)" fill="#5de1c4"/>
          <path id="Path_980181" data-name="Path 980181" d="M163.943,399.188h-7.65l-9.843-9.844,3.824-3.824Z" transform="translate(-133.339 -342.093)" fill="#e49280"/>
          <path id="Path_980182" data-name="Path 980182" d="M112.357,355.252l-3.633-3.632a2.7,2.7,0,0,1,3.825-3.825l3.632,3.633Z" transform="translate(-99.248 -308)" fill="#0ed2b3"/>
        </g>
        <g id="Group_1144264" data-name="Group 1144264" transform="translate(24.868 0)">
          <path id="Path_980183" data-name="Path 980183" d="M72.282,36.21H64.433V34.366a11.648,11.648,0,0,0,6.088-6.375h1.313a4.193,4.193,0,1,0,0-8.386h-.521V17.488h2.116a1.531,1.531,0,0,0,1.529-1.529,15.306,15.306,0,0,0-4.5-11.539A15.122,15.122,0,0,0,59.732,0h-.116A15.157,15.157,0,0,0,48.295,5.25a.862.862,0,0,0,1.3,1.129A13.433,13.433,0,0,1,59.629,1.724h.1a13.52,13.52,0,0,1,13.5,14.041h-5.01a9.646,9.646,0,0,1-7.795-3.978.861.861,0,0,0-1.4,0,9.65,9.65,0,0,1-7.8,3.978h-5.01a13.9,13.9,0,0,1,1.321-6.248.862.862,0,0,0-1.558-.737,15.6,15.6,0,0,0-1.486,7.18,1.531,1.531,0,0,0,1.529,1.529H48.15v2.118h-.521a4.193,4.193,0,1,0,0,8.386h1.313a11.648,11.648,0,0,0,6.088,6.375V36.21H47.18a5.7,5.7,0,0,0-3.028.873L39.788,32.72a8.213,8.213,0,0,0-11.6,0l-.921.921a8.212,8.212,0,0,0,0,11.6l1.309,1.309a.862.862,0,1,0,1.218-1.218l-1.309-1.309a6.487,6.487,0,0,1,0-9.164l.921-.921a6.487,6.487,0,0,1,9.164,0l6.611,6.611L42.659,43.07l-3.023-3.023a3.566,3.566,0,0,0-5.043,5.043l3.023,3.023L35.1,50.634l-2.458-2.458a.862.862,0,1,0-1.218,1.219l2.661,2.661a1.438,1.438,0,0,0,2.031,0l2.724-2.724,2.654,2.655v5.4a1.438,1.438,0,0,0,1.436,1.436H76.537a1.438,1.438,0,0,0,1.436-1.436V41.9A5.7,5.7,0,0,0,72.282,36.21ZM56.686,57.1l-6.549-6.549V47.478H69.326V57.1Zm-7.65,0-8.982-8.983,2.606-2.606L54.249,57.1Zm20.29-11.341H50.137V37.933H55.08a4.7,4.7,0,0,0,9.3,0h4.943v7.822Zm2.508-24.426a2.47,2.47,0,1,1,0,4.94h-.79a11.58,11.58,0,0,0,.269-2.485V21.329Zm-24.205,4.94a2.47,2.47,0,1,1,0-4.94h.521v2.455a11.58,11.58,0,0,0,.269,2.485Zm2.244-2.485v-6.3h1.365a11.383,11.383,0,0,0,8.493-3.821,11.381,11.381,0,0,0,8.493,3.821h1.365v6.3a9.858,9.858,0,0,1-19.716,0Zm9.858,11.581a11.559,11.559,0,0,0,2.979-.389v2.271a2.979,2.979,0,0,1-5.958,0V34.976A11.559,11.559,0,0,0,59.731,35.365ZM46.6,39.533l-1.186-1.186a3.973,3.973,0,0,1,1.764-.414h1.233V48.824l-4.535-4.535L46.6,41.565A1.435,1.435,0,0,0,46.6,39.533Zm-10.79,4.338a1.843,1.843,0,0,1,2.606-2.606l3.023,3.023-2.606,2.606Zm7.4,9.838L46.6,57.1H43.213ZM76.25,57.1h-5.2V37.933h1.233A3.972,3.972,0,0,1,76.25,41.9V57.1Z" transform="translate(-24.868 0)"/>
          <path id="Path_980184" data-name="Path 980184" d="M286.53,170.361a.861.861,0,0,0-.862.862v.819a.862.862,0,1,0,1.723,0v-.819A.862.862,0,0,0,286.53,170.361Z" transform="translate(-255.707 -150.79)"/>
          <path id="Path_980185" data-name="Path 980185" d="M356.878,172.9a.861.861,0,0,0,.862-.862v-.819a.862.862,0,0,0-1.723,0v.819A.862.862,0,0,0,356.878,172.9Z" transform="translate(-317.974 -150.79)"/>
          <path id="Path_980186" data-name="Path 980186" d="M307.152,224.723a.862.862,0,0,0-.062-1.217,4.314,4.314,0,0,0-5.686,0,.862.862,0,1,0,1.154,1.279,2.593,2.593,0,0,1,3.377,0A.862.862,0,0,0,307.152,224.723Z" transform="translate(-269.383 -196.883)"/>
          <path id="Path_980187" data-name="Path 980187" d="M305.054,447.641h-4.967a.862.862,0,0,0,0,1.723h4.967a.862.862,0,0,0,0-1.723Z" transform="translate(-267.708 -396.216)"/>
        </g>
      </g>
    </g>
  </g>
</svg>
