<svg xmlns="http://www.w3.org/2000/svg" xmlns:xlink="http://www.w3.org/1999/xlink" width="108" height="108" viewBox="0 0 108 108">
  <defs>
    <filter id="Fondo" x="0" y="0" width="108" height="108" filterUnits="userSpaceOnUse">
      <feOffset dy="3" input="SourceAlpha"/>
      <feGaussianBlur stdDeviation="3" result="blur"/>
      <feFlood flood-opacity="0.161"/>
      <feComposite operator="in" in2="blur"/>
      <feComposite in="SourceGraphic"/>
    </filter>
  </defs>
  <g id="Group_1144522" data-name="Group 1144522" transform="translate(-1165.999 -458)">
    <g id="Group_1144521" data-name="Group 1144521">
      <g id="Group_1144336" data-name="Group 1144336">
        <g id="Group_1144520" data-name="Group 1144520">
          <g transform="matrix(1, 0, 0, 1, 1166, 458)" filter="url(#Fondo)">
            <g id="Fondo-2" data-name="Fondo" transform="translate(9 6)" fill="#f1fef9" stroke="#43896d" stroke-width="3">
              <circle cx="45" cy="45" r="45" stroke="none"/>
              <circle cx="45" cy="45" r="43.5" fill="none"/>
            </g>
          </g>
          <g id="Group_1144335" data-name="Group 1144335" transform="translate(1190.396 480.076)">
            <path id="Path_980505" data-name="Path 980505" d="M197.37,185.942l-13.058-13.058a2.091,2.091,0,1,1,2.957-2.957l-3.363-3.362a2.086,2.086,0,0,1-.614-1.479,2.147,2.147,0,0,1,.027-.335,2.088,2.088,0,0,1,3.345-1.315l-1.28-1.28a2.092,2.092,0,0,1-.614-1.481,2,2,0,0,1,.028-.34,2.092,2.092,0,0,1,3.544-1.137l1.465,1.465a2.091,2.091,0,1,1,2.957-2.957l8.486,8.486.024-.034a3.824,3.824,0,0,1,5.412,0l3.957,3.957a4.061,4.061,0,0,1,1.189,2.865l0,2.475a4.369,4.369,0,0,0,1.281,3.086l.883.882-10.093,10.092-1.127-1.127a4.371,4.371,0,0,0-2.8-1.271,4.056,4.056,0,0,1-2.6-1.181Zm0,0" transform="translate(-162.097 -138.926)" fill="#fecbaa"/>
            <path id="Path_980506" data-name="Path 980506" d="M353.713,353.421l11.455-11.455a.966.966,0,0,1,1.367,0l4.08,4.079a.967.967,0,0,1,0,1.367l-11.455,11.455a.967.967,0,0,1-1.367,0l-4.079-4.08a.966.966,0,0,1,0-1.367Zm0,0" transform="translate(-312.56 -302.171)" fill="#fdd559"/>
            <path id="Path_980507" data-name="Path 980507" d="M79.785,185.952l13.058-13.058a2.091,2.091,0,1,0-2.957-2.957l3.363-3.363a2.09,2.09,0,0,0-2.758-3.129l1.28-1.28a2.091,2.091,0,0,0,.614-1.481,1.994,1.994,0,0,0-.028-.34,2.083,2.083,0,0,0-1.73-1.724,2.091,2.091,0,0,0-1.814.587l-1.465,1.465a2.09,2.09,0,0,0,.587-1.814,2.069,2.069,0,0,0-.585-1.146,2.093,2.093,0,0,0-2.959,0L75.9,166.2l-.024-.033a3.824,3.824,0,0,0-5.412,0l-3.957,3.957A4.059,4.059,0,0,0,65.322,173l0,2.475a4.366,4.366,0,0,1-1.28,3.086l-.883.882,10.092,10.092,1.128-1.127a4.371,4.371,0,0,1,2.8-1.271,4.06,4.06,0,0,0,2.6-1.181Zm0,0" transform="translate(-55.853 -138.935)" fill="#fecbaa"/>
            <path id="Path_980508" data-name="Path 980508" d="M24.68,353.43,13.224,341.975a.966.966,0,0,0-1.367,0l-4.08,4.08a.967.967,0,0,0,0,1.367l11.455,11.455a.966.966,0,0,0,1.367,0l4.08-4.079a.967.967,0,0,0,0-1.367Zm0,0" transform="translate(-6.628 -302.178)" fill="#ff84a7"/>
            <path id="Path_980509" data-name="Path 980509" d="M170.871,81.258V99.725a2.091,2.091,0,1,1-4.182,0v4.755a2.089,2.089,0,0,1-4.163.262v1.81a2.09,2.09,0,0,1-.613,1.481,1.961,1.961,0,0,1-.26.221,2.092,2.092,0,0,1-3.31-1.7V104.48a2.091,2.091,0,1,1-4.181,0v-12l-.041.007a3.824,3.824,0,0,1-3.824-3.83v-5.6a4.062,4.062,0,0,1,1.185-2.867l1.749-1.752a4.369,4.369,0,0,0,1.277-3.088V74.105H168.78V75.7a4.374,4.374,0,0,0,1.085,2.882,4.056,4.056,0,0,1,1.006,2.676Zm0,0" transform="translate(-132.917 -65.536)" fill="#fedfc5"/>
            <path id="Path_980510" data-name="Path 980510" d="M163.667,169.934a2.093,2.093,0,0,0-2.959,0l3.363-3.363a2.09,2.09,0,0,0-2.758-3.129l1.28-1.28a2.09,2.09,0,0,0,.614-1.481,1.948,1.948,0,0,0-.028-.34,2.092,2.092,0,0,0-3.544-1.137l-1.465,1.465a2.091,2.091,0,1,0-2.957-2.957l-8.486,8.486-.024-.033a3.809,3.809,0,0,0-3.463-1.041,5.611,5.611,0,0,0,2.946,2.228v10.523a3.83,3.83,0,0,0,4.573,3.756,3.833,3.833,0,0,0,2.218,1.947l10.688-10.689a2.09,2.09,0,0,0,0-2.959Zm0,0" transform="translate(-126.675 -138.935)" fill="#ffae85"/>
            <path id="Path_980511" data-name="Path 980511" d="M201.774,173.117v-7.385a3.827,3.827,0,0,0-.511.429l-.023.033-8.486-8.486a2.093,2.093,0,0,0-2.959,0,2.093,2.093,0,0,0,0,2.959l-1.465-1.465a2.09,2.09,0,0,0-3.544,1.137,1.994,1.994,0,0,0-.028.34,2.089,2.089,0,0,0,.614,1.481l1.28,1.28a2.09,2.09,0,0,0-2.759,3.129l3.363,3.363a2.091,2.091,0,1,0-2.956,2.957l8.748,8.748a3.84,3.84,0,0,0,.719.067,3.792,3.792,0,0,0,2.238-.724,3.825,3.825,0,0,0,1.587-3.1v-.943q.177.016.356.016a3.832,3.832,0,0,0,3.825-3.829Zm0,0" transform="translate(-162.087 -138.927)" fill="#ffae85"/>
            <path id="Path_980512" data-name="Path 980512" d="M170.871,81.258V99.724a2.091,2.091,0,0,1-2.091,2.094c-.031,0-.065,0-.1,0a2.068,2.068,0,0,1-1.122-.393h0a2.09,2.09,0,0,1-.867-1.7v4.755a2.089,2.089,0,0,1-4.163.262v1.81a2.09,2.09,0,0,1-.613,1.481,1.961,1.961,0,0,1-.26.221,2.092,2.092,0,0,1-3.31-1.7V104.48a2.091,2.091,0,1,1-4.181,0v-12l-.041.007a3.824,3.824,0,0,1-3.824-3.83v-5.6a4.062,4.062,0,0,1,1.185-2.867l1.749-1.752a4.378,4.378,0,0,0,1.277-3.088V74.105H168.78V75.7a3.938,3.938,0,0,0,.138,1.079,4.344,4.344,0,0,0,.947,1.8,4.089,4.089,0,0,1,1.006,2.676Zm0,0" transform="translate(-132.917 -65.535)" fill="#fedfc5"/>
            <path id="Path_980513" data-name="Path 980513" d="M201.579,81.257V99.724a2.091,2.091,0,0,1-2.091,2.094c-.031,0-.065,0-.1,0a2.069,2.069,0,0,1-1.122-.393l.036-17.8a2.729,2.729,0,0,0-.07-.494,8.044,8.044,0,0,0-8.046-6.491H185.02a4.354,4.354,0,0,0,.2-1.291V74.1h14.273V75.7a3.94,3.94,0,0,0,.138,1.079,4.344,4.344,0,0,0,.947,1.8,4.089,4.089,0,0,1,1.006,2.676Zm0,0" transform="translate(-163.625 -65.535)" fill="#fecbaa"/>
            <path id="Path_980514" data-name="Path 980514" d="M186.865,15.2h-16.2a.966.966,0,0,1-.966-.967V8.467a.966.966,0,0,1,.966-.967h16.2a.967.967,0,0,1,.966.967v5.769A.967.967,0,0,1,186.865,15.2Zm0,0" transform="translate(-150.075 -6.632)" fill="#83d9ff"/>
            <path id="Path_980515" data-name="Path 980515" d="M202.394,447.754l-.174.85.168-.851a.867.867,0,1,0-.335,1.7l.016,0a.882.882,0,0,0,.164.016.868.868,0,0,0,.162-1.72Zm0,0" transform="translate(-178.069 -395.96)"/>
            <path id="Path_980516" data-name="Path 980516" d="M261.729,450.26l.086.863-.089-.862a.867.867,0,0,0,.088,1.73c.03,0,.06,0,.09,0l.024,0a.867.867,0,0,0-.2-1.723Zm0,0" transform="translate(-230.773 -398.188)"/>
            <path id="Path_980517" data-name="Path 980517" d="M232.014,451.232H232a.862.862,0,0,0-.9.828.872.872,0,0,0,.833.905h.04a.867.867,0,0,0,.038-1.734Zm0,0" transform="translate(-204.378 -399.05)"/>
            <path id="Path_980518" data-name="Path 980518" d="M173.742,439.845l-.011,0a.862.862,0,0,0-1.1.525.87.87,0,1,0,1.115-.521Zm0,0" transform="translate(-152.62 -388.933)"/>
            <path id="Path_980519" data-name="Path 980519" d="M291.006,444.831l.214.841-.216-.84a.867.867,0,0,0,.215,1.707.859.859,0,0,0,.217-.028l.023-.006a.867.867,0,0,0-.453-1.674Zm0,0" transform="translate(-256.776 -393.366)"/>
            <path id="Path_980520" data-name="Path 980520" d="M319.114,435.026l.344.8-.346-.8a.867.867,0,1,0,.692,1.59l.021-.009a.867.867,0,0,0-.711-1.582Zm0,0" transform="translate(-281.749 -384.655)"/>
            <path id="Path_980521" data-name="Path 980521" d="M147.348,80.424a.868.868,0,1,0-.405-1.633l-.01.005a.866.866,0,0,0,.416,1.628Zm0,0" transform="translate(-129.54 -69.589)"/>
            <path id="Path_980522" data-name="Path 980522" d="M63.7,164.88a.867.867,0,0,0,1.171-.365l.015-.03a.867.867,0,1,0-1.187.4Zm0,0" transform="translate(-55.924 -144.358)"/>
            <path id="Path_980523" data-name="Path 980523" d="M52.186,192.682a.866.866,0,0,0,1.1-.543l.011-.034a.868.868,0,1,0-1.111.578Zm0,0" transform="translate(-45.63 -168.897)"/>
            <path id="Path_980524" data-name="Path 980524" d="M79.32,139.173a.867.867,0,0,0,1.211-.191l.011-.015a.867.867,0,0,0-1.411-1.009l.7.514-.7-.51A.867.867,0,0,0,79.32,139.173Zm0,0" transform="translate(-69.832 -121.685)"/>
            <path id="Path_980525" data-name="Path 980525" d="M121.912,96.564a.871.871,0,1,0-.5-1.576l-.022.016a.868.868,0,0,0,.524,1.56Zm0,0" transform="translate(-107.047 -83.855)"/>
            <path id="Path_980526" data-name="Path 980526" d="M49.678,310.755a.868.868,0,1,0-.011-.038l.011.038Zm0,0" transform="translate(-43.897 -273.816)"/>
            <path id="Path_980527" data-name="Path 980527" d="M99.257,116.348a.87.87,0,1,0-.606-1.487l-.014.014a.867.867,0,0,0,.62,1.473Zm0,0" transform="translate(-87.013 -101.354)"/>
            <path id="Path_980528" data-name="Path 980528" d="M45.077,280.949a.867.867,0,0,0-1.721.215l0,.035a.867.867,0,0,0,1.717-.249Zm0,0" transform="translate(-38.337 -247.792)"/>
            <path id="Path_980529" data-name="Path 980529" d="M42.432,251.894h.026a.867.867,0,0,0,.866-.842v-.037a.867.867,0,1,0-.893.879Zm0,0" transform="translate(-36.782 -221.221)"/>
            <path id="Path_980530" data-name="Path 980530" d="M45.047,221.917a.9.9,0,0,0,.154.014.868.868,0,0,0,.853-.715c0-.013,0-.025.006-.038a.867.867,0,1,0-1.013.739Zm0,0" transform="translate(-39.206 -194.722)"/>
            <path id="Path_980531" data-name="Path 980531" d="M403.075,143.124a.867.867,0,0,0,1.428-.985l-.721.482.718-.487a.867.867,0,1,0-1.436.973Zm0,0" transform="translate(-356.322 -125.362)"/>
            <path id="Path_980532" data-name="Path 980532" d="M436.711,229.028a.867.867,0,0,0-.765.959l0,.037a.868.868,0,0,0,.858.744.886.886,0,0,0,.124-.009.873.873,0,0,0-.221-1.732Zm0,0" transform="translate(-385.53 -202.538)"/>
            <path id="Path_980533" data-name="Path 980533" d="M429.674,199.4l0,.011a.867.867,0,0,0,.832.623.854.854,0,0,0,.245-.036.867.867,0,0,0,.588-1.077l0-.011a.867.867,0,1,0-1.664.49Zm0,0" transform="translate(-379.956 -175.356)"/>
            <path id="Path_980534" data-name="Path 980534" d="M418.627,170.218a.872.872,0,0,0,.782.487.867.867,0,0,0,.776-1.247l-.786.366.785-.368a.867.867,0,0,0-1.571.736Zm0,0" transform="translate(-370.134 -149.418)"/>
            <path id="Path_980535" data-name="Path 980535" d="M383.45,118.834a.874.874,0,1,0-.026-.028Zm0,0" transform="translate(-338.882 -103.78)"/>
            <path id="Path_980536" data-name="Path 980536" d="M438.209,260.385a.873.873,0,0,0-.074,1.744h.049a.867.867,0,0,0,.865-.819v-.036A.866.866,0,0,0,438.209,260.385Zm0,0" transform="translate(-386.746 -230.274)"/>
            <path id="Path_980537" data-name="Path 980537" d="M334,80.9l.021.011a.864.864,0,0,0,1.168-.356.87.87,0,0,0-.352-1.174l-.42.759.417-.761A.867.867,0,1,0,334,80.9Zm0,0" transform="translate(-294.982 -70.103)"/>
            <path id="Path_980538" data-name="Path 980538" d="M360.221,97.9l.014.01a.867.867,0,0,0,1.048-1.382l-.006,0a.867.867,0,1,0-1.056,1.376Zm0,0" transform="translate(-318.266 -85.204)"/>
            <path id="Path_980539" data-name="Path 980539" d="M58.671,43.241,54.6,39.162a1.832,1.832,0,0,0-2.593,0l-.094.094-.267-.267a3.5,3.5,0,0,1-.759-1.136.845.845,0,0,0-.062-.161,3.507,3.507,0,0,1-.2-1.178V35.361a.873.873,0,1,0-.005-1.542,4.889,4.889,0,0,0-1.433-3.261L45.233,26.6a4.686,4.686,0,0,0-5.992-.538l-.419-.421v-9.92A4.925,4.925,0,0,0,37.6,12.474a3.5,3.5,0,0,1-.869-2.31V9.438h.06A1.836,1.836,0,0,0,38.624,7.6V1.834A1.836,1.836,0,0,0,36.79,0H20.59a1.836,1.836,0,0,0-1.834,1.834V7.6A1.836,1.836,0,0,0,20.59,9.438h.134v.38A3.48,3.48,0,0,1,19.7,12.293l-1.749,1.752a4.893,4.893,0,0,0-1.439,3.48v5.6a4.676,4.676,0,0,0,.5,2.114A4.657,4.657,0,0,0,13.973,26.6l-3.95,3.957a4.894,4.894,0,0,0-1.439,3.48v2.477a3.479,3.479,0,0,1-1.023,2.475l-.264.265,0,0L7.2,39.162a1.832,1.832,0,0,0-2.593,0L.535,43.241a1.839,1.839,0,0,0,0,2.594l1.394,1.4a.867.867,0,1,0,1.227-1.225l-1.394-1.4a.1.1,0,0,1,0-.142l4.072-4.079a.1.1,0,0,1,.138,0l.708.709h0l9.665,9.682,1.083,1.085a.1.1,0,0,1,0,.142l-4.071,4.079a.1.1,0,0,1-.138,0l-7.607-7.62a.867.867,0,0,0-1.228,1.225l7.607,7.62a1.832,1.832,0,0,0,2.593,0l4.071-4.079a1.838,1.838,0,0,0,0-2.593l-.044-.044.514-.515a3.485,3.485,0,0,1,2.244-1.017,4.908,4.908,0,0,0,3.158-1.432l3.74-3.748a2.97,2.97,0,0,0,2.147-2.262,2.957,2.957,0,0,0,4.226-2.676V36.885a2.956,2.956,0,0,0,4.181-2.7V28.1l2.668,2.681a.867.867,0,1,0,1.23-1.224l-2.224-2.235a2.954,2.954,0,0,1,3.511.5l3.95,3.956a3.171,3.171,0,0,1,.932,2.254v2.477a5.2,5.2,0,0,0,1.53,3.7l.269.27-1.258,1.26L41.82,49.367l-.424-.425-.013-.013-.075-.075a5.222,5.222,0,0,0-3.358-1.522A3.18,3.18,0,0,1,35.9,46.4l-2.85-2.834a.867.867,0,1,0-1.223,1.23l2.848,2.832a4.908,4.908,0,0,0,3.158,1.432,3.487,3.487,0,0,1,2.243,1.017l.042.042a.834.834,0,0,0,.072.072l.4.4-.044.045a1.838,1.838,0,0,0,0,2.593l4.071,4.079a1.832,1.832,0,0,0,2.594,0L58.671,45.834a1.838,1.838,0,0,0,0-2.593ZM51.2,34.617l-.016,0-.158-.032ZM23.3,46.405a3.174,3.174,0,0,1-2.042.926A5.222,5.222,0,0,0,17.9,48.854l-.512.513-.461-.462-.018-.018-8.388-8.4.269-.27a5.2,5.2,0,0,0,1.53-3.7V34.037a3.169,3.169,0,0,1,.932-2.254l3.95-3.956a2.953,2.953,0,0,1,3.516-.5l-2.228,2.231a.867.867,0,0,0,1.228,1.225l2.661-2.666V38.944a2.957,2.957,0,0,0,4.242,2.668,2.972,2.972,0,0,0,1.47,2ZM37.087,34.189a1.224,1.224,0,1,1-2.447,0V24.515a.867.867,0,1,0-1.735,0V38.945a1.223,1.223,0,0,1-2.429.2V24.505a.876.876,0,0,0-1.753.01V38.944a2.974,2.974,0,0,0,.018.325v1.748a1.223,1.223,0,1,1-2.447,0V24.495a.868.868,0,0,0-1.735,0V38.944a1.223,1.223,0,1,1-2.447,0V22.811a.867.867,0,1,0-1.735,0V25.8a.851.851,0,0,0-.209.1,2.968,2.968,0,0,1-1.922-2.776v-5.6a3.171,3.171,0,0,1,.932-2.254l1.749-1.752a5.2,5.2,0,0,0,1.53-3.7v-.38H24.2a.867.867,0,0,0,0-1.735H20.59a.1.1,0,0,1-.1-.1V1.834a.1.1,0,0,1,.1-.1h16.2a.1.1,0,0,1,.1.1V7.6a.1.1,0,0,1-.1.1H28.273a.867.867,0,0,0,0,1.735H35v.727a5.237,5.237,0,0,0,1.3,3.454,3.189,3.189,0,0,1,.792,2.1ZM57.443,44.609,45.987,56.085a.093.093,0,0,1-.069.029.094.094,0,0,1-.069-.029l-4.071-4.079a.1.1,0,0,1,0-.142l.655-.657h0l6.651-6.662,4.15-4.157a.1.1,0,0,1,.138,0l4.072,4.079a.1.1,0,0,1,0,.142Zm0,0" transform="translate(0)"/>
            <path id="Path_980540" data-name="Path 980540" d="M194.74,32.8a.925.925,0,1,0,.924.925A.925.925,0,0,0,194.74,32.8Zm0,0" transform="translate(-171.404 -29.011)"/>
            <path id="Path_980541" data-name="Path 980541" d="M456.337,374.688a.925.925,0,1,0,.923.925A.925.925,0,0,0,456.337,374.688Zm0,0" transform="translate(-402.751 -331.359)"/>
            <path id="Path_980542" data-name="Path 980542" d="M110.858,444.128a.924.924,0,1,0-.923.925A.925.925,0,0,0,110.858,444.128Zm0,0" transform="translate(-96.406 -391.951)"/>
          </g>
        </g>
      </g>
    </g>
  </g>
</svg>
