<svg xmlns="http://www.w3.org/2000/svg" xmlns:xlink="http://www.w3.org/1999/xlink" width="108" height="108" viewBox="0 0 108 108">
  <defs>
    <filter id="Fondo" x="0" y="0" width="108" height="108" filterUnits="userSpaceOnUse">
      <feOffset dy="3" input="SourceAlpha"/>
      <feGaussianBlur stdDeviation="3" result="blur"/>
      <feFlood flood-opacity="0.161"/>
      <feComposite operator="in" in2="blur"/>
      <feComposite in="SourceGraphic"/>
    </filter>
  </defs>
  <g id="Group_1144524" data-name="Group 1144524" transform="translate(-745.999 -2393)">
    <g id="Icono" transform="translate(420.279 1704)">
      <g transform="matrix(1, 0, 0, 1, 325.72, 689)" filter="url(#Fondo)">
        <g id="Fondo-2" data-name="Fondo" transform="translate(9 6)" fill="#f1fef9" stroke="#43896d" stroke-width="3">
          <circle cx="45" cy="45" r="45" stroke="none"/>
          <circle cx="45" cy="45" r="43.5" fill="none"/>
        </g>
      </g>
    </g>
    <g id="Group_1144402" data-name="Group 1144402" transform="translate(773.573 2417.572)">
      <g id="Colour" transform="translate(0.877 0.881)">
        <path id="Path_980683" data-name="Path 980683" d="M56.38,2.762V20.38a1.767,1.767,0,0,1-1.762,1.762H51.976L43.959,28.1a1.057,1.057,0,0,1-1.674-.872V22.142h-4.4L37,21.261l7.928-18.5L46.69,1h7.928A1.767,1.767,0,0,1,56.38,2.762Z" transform="translate(-5.283 -1)" fill="#adb7c2"/>
        <path id="Path_980684" data-name="Path 980684" d="M45.619,1,36.809,22.142H28.881L28,17.183V2.762A1.767,1.767,0,0,1,29.762,1Z" transform="translate(-4.212 -1)" fill="#a1c2eb"/>
        <path id="Path_980685" data-name="Path 980685" d="M12.452,41,6.294,43.37C2.946,44.653,1,48.5,1,54.579v.759a1.427,1.427,0,0,0,1.3,1.519H29.647a1.428,1.428,0,0,0,1.3-1.519v-.759c0-6.078-1.947-9.925-5.294-11.209L19.5,41Z" transform="translate(-0.996 -5.763)" fill="#9d9dee"/>
        <path id="Path_980686" data-name="Path 980686" d="M21.694,13.4a4.107,4.107,0,0,0,.115-1A4.4,4.4,0,1,0,13,12.4a4.107,4.107,0,0,0,.115,1Z" transform="translate(-2.425 -1.833)" fill="#56443e"/>
        <path id="Path_980687" data-name="Path 980687" d="M26.38,26.214V22.639a9.69,9.69,0,0,0-19.38,0v3.575Z" transform="translate(-1.711 -2.429)" fill="#56443e"/>
        <path id="Path_980688" data-name="Path 980688" d="M21.047,39.483v1.336a3.43,3.43,0,0,1-3.524,3.524A3.43,3.43,0,0,1,14,40.819V39.483Z" transform="translate(-2.544 -5.582)" fill="#8f6151"/>
        <path id="Path_980689" data-name="Path 980689" d="M18.451,20c1.762,5.286,5.605,4.724,5.605,4.724a2.316,2.316,0,0,1,.5,4.581l-.291,2.458a5.846,5.846,0,0,1-2.105,3.806c-1.349,1.046-3.313,2.931-5.471,2.931s-4.123-1.885-5.47-2.933A5.846,5.846,0,0,1,9.113,31.76L8.822,29.3a2.316,2.316,0,0,1,.5-4.581s7.367.564,9.129-4.722Z" transform="translate(-1.71 -3.262)" fill="#a67763"/>
      </g>
      <g id="Icons" transform="translate(-0.003 0)">
        <path id="Path_980690" data-name="Path 980690" d="M2.184,52.856H29.529a2.3,2.3,0,0,0,2.184-2.4V49.7c0-6.31-2.081-10.583-5.857-12.032l-5.595-2.152v-.352c.362-.274.7-.55,1.016-.8.209-.168.405-.329.592-.475a6.774,6.774,0,0,0,2.438-4.4l.226-1.9a3.206,3.206,0,0,0,1.895-2.917V21.09a10.408,10.408,0,0,0-.881-4.192V2.643a.881.881,0,0,1,.881-.881H40.963l-8.075,19.38H29.07a.881.881,0,0,0,0,1.762H37v4.2a1.952,1.952,0,0,0,1.077,1.757,1.907,1.907,0,0,0,2-.176L47.861,22.9h2.351a2.643,2.643,0,0,0,2.643-2.643V2.643A2.643,2.643,0,0,0,50.213,0H26.428a2.643,2.643,0,0,0-2.643,2.643V14.156a10.631,10.631,0,0,0-2.673-2.175c.017-.176.03-.352.03-.529a5.286,5.286,0,0,0-10.571,0c0,.176.013.352.03.529a10.509,10.509,0,0,0-5.316,9.11v3.576A3.2,3.2,0,0,0,7.18,27.579L7.408,29.5A6.763,6.763,0,0,0,9.845,33.88c.186.144.382.306.591.474.312.254.654.529,1.016.8v.352L5.858,37.665C2.08,39.113,0,43.387,0,49.7v.758a2.3,2.3,0,0,0,2.184,2.4ZM51.094,2.643V20.261a.881.881,0,0,1-.881.881H47.57a.881.881,0,0,0-.529.176l-8.016,5.956a.137.137,0,0,1-.161.016.189.189,0,0,1-.1-.184V22.023a.881.881,0,0,0-.881-.881H34.8l8.075-19.38h7.341a.881.881,0,0,1,.881.881ZM15.856,7.928a3.516,3.516,0,0,1,3.5,3.246,10.426,10.426,0,0,0-6.991,0,3.516,3.516,0,0,1,3.5-3.246Zm0,4.4a8.793,8.793,0,0,1,8.809,8.757v.731a3.16,3.16,0,0,0-1.442-.359,1.062,1.062,0,0,0-.118.008c-.127.019-3.161.34-4.652-4.13a.881.881,0,0,0-1.674,0c-1.521,4.561-8.165,4.126-8.294,4.122a3.16,3.16,0,0,0-1.439.359V21.09a8.793,8.793,0,0,1,8.809-8.757Zm-6.7,16.942-.292-2.458a.881.881,0,0,0-.692-.758,1.437,1.437,0,0,1,.25-2.837c.3.024,6.377.433,9.138-3.524,1.7,3.092,4.342,3.7,5.715,3.532a1.444,1.444,0,0,1,1.391,1.437,1.427,1.427,0,0,1-1.125,1.393.881.881,0,0,0-.692.758l-.289,2.438a4.99,4.99,0,0,1-1.77,3.235c-.195.152-.4.32-.617.5-1.241,1-2.776,2.251-4.317,2.251s-3.075-1.247-4.31-2.251c-.218-.176-.425-.345-.617-.5a4.979,4.979,0,0,1-1.774-3.215Zm9.327,7.019a2.542,2.542,0,0,1-2.627,2.467,2.542,2.542,0,0,1-2.627-2.467,5.777,5.777,0,0,0,2.627.7,5.777,5.777,0,0,0,2.627-.7ZM1.762,49.7c0-5.529,1.679-9.218,4.729-10.387l5.138-1.977a4.274,4.274,0,0,0,4.228,3.19,4.274,4.274,0,0,0,4.228-3.19l5.139,1.977c3.048,1.169,4.727,4.858,4.727,10.387v.758c0,.366-.223.639-.422.639H2.184c-.2,0-.422-.273-.422-.639Z" transform="translate(0.003 0)" fill="#373737"/>
        <path id="Path_980691" data-name="Path 980691" d="M37.167,14.571a.881.881,0,0,0,.881-.881V7.524a3.524,3.524,0,1,0-7.047,0V13.69a.881.881,0,1,0,1.762,0V11.047h3.524V13.69A.881.881,0,0,0,37.167,14.571Zm-4.4-5.286V7.524a1.762,1.762,0,0,1,3.524,0V9.286Z" transform="translate(-3.689 -0.476)" fill="#373737"/>
        <path id="Path_980692" data-name="Path 980692" d="M49.524,11.762H46.881a.881.881,0,1,0,0,1.762h.056a7.675,7.675,0,0,0,2.121,4.465,8.64,8.64,0,0,1-1.609.881.881.881,0,0,0,.314,1.7.892.892,0,0,0,.314-.057A10.82,10.82,0,0,0,50.4,19.185a10.82,10.82,0,0,0,2.329,1.329.881.881,0,1,0,.629-1.646,8.721,8.721,0,0,1-1.61-.881,7.683,7.683,0,0,0,2.12-4.463h.055a.881.881,0,1,0,0-1.762H51.286v-.881a.881.881,0,1,0-1.762,0Zm.881,5.092a6.078,6.078,0,0,1-1.692-3.33H52.1a6.078,6.078,0,0,1-1.692,3.33Z" transform="translate(-5.475 -1.191)" fill="#373737"/>
      </g>
    </g>
  </g>
</svg>
