<svg xmlns="http://www.w3.org/2000/svg" xmlns:xlink="http://www.w3.org/1999/xlink" width="108" height="108" viewBox="0 0 108 108">
  <defs>
    <filter id="Fondo" x="0" y="0" width="108" height="108" filterUnits="userSpaceOnUse">
      <feOffset dy="3" input="SourceAlpha"/>
      <feGaussianBlur stdDeviation="3" result="blur"/>
      <feFlood flood-opacity="0.161"/>
      <feComposite operator="in" in2="blur"/>
      <feComposite in="SourceGraphic"/>
    </filter>
  </defs>
  <g id="Group_1144507" data-name="Group 1144507" transform="translate(-1166 -5599)">
    <g id="Group_1144280" data-name="Group 1144280">
      <g id="Icono" transform="translate(840.28 4910)">
        <g transform="matrix(1, 0, 0, 1, 325.72, 689)" filter="url(#Fondo)">
          <g id="Fondo-2" data-name="Fondo" transform="translate(9 6)" fill="#f1fef9" stroke="#43896d" stroke-width="3">
            <circle cx="45" cy="45" r="45" stroke="none"/>
            <circle cx="45" cy="45" r="43.5" fill="none"/>
          </g>
        </g>
      </g>
      <g id="Layer_1" transform="translate(1185.885 5617.434)">
        <g id="Group_1144279" data-name="Group 1144279" transform="translate(5.26 3.49)">
          <path id="Path_980329" data-name="Path 980329" d="M35.576,27.652a3.675,3.675,0,0,0,3.672,3.676h1.184v7.346H33.086v1.184a3.675,3.675,0,0,1-7.35,0V38.674H18.39V32.214h9.692a2.506,2.506,0,0,0,2.5-2.5V25.593a2.5,2.5,0,0,0-2.5-2.5H23.609l.464-.992a1.418,1.418,0,1,0-2.57-1.2l-1.022,2.19H18.39V16.63H40.431v7.348H39.247a3.672,3.672,0,0,0-3.672,3.674Z" transform="translate(-15.312 -13.549)" fill="#f2bf22"/>
          <path id="Path_980330" data-name="Path 980330" d="M22.449,36.858v4.117a2.506,2.506,0,0,1-2.5,2.5H7.76V34.354h4.584l1.022-2.19a1.418,1.418,0,1,1,2.57,1.2l-.464.992h4.473A2.5,2.5,0,0,1,22.449,36.858Z" transform="translate(-7.174 -24.814)" fill="#ffb69f"/>
          <path id="Path_980331" data-name="Path 980331" d="M35.147,95.133a1.917,1.917,0,0,1-1.916-1.914V90.277H29.374a.586.586,0,1,1,0-1.172h4.443a.586.586,0,0,1,.586.586v3.528a.744.744,0,0,0,1.488,0V89.691a.586.586,0,0,1,.586-.586h6.761V86.921a.586.586,0,1,1,1.172,0v2.77a.586.586,0,0,1-.586.586H37.063v2.942a1.917,1.917,0,0,1-1.916,1.914ZM27.03,90.278h-.56a.586.586,0,1,1,0-1.172h.56a.586.586,0,1,1,0,1.172Z" transform="translate(-21.049 -66.911)" fill="#f8e5b0"/>
          <path id="Path_980332" data-name="Path 980332" d="M32.331,31.164v4.117a4.254,4.254,0,0,1-4.248,4.251H18.39V37.785h9.692a2.506,2.506,0,0,0,2.5-2.5V31.164a2.5,2.5,0,0,0-2.5-2.5H23.609l.464-.992a1.418,1.418,0,1,0-2.57-1.2l-1.022,2.19H18.39V26.915h.98l.553-1.184a3.162,3.162,0,0,1,6.023,1.184h2.136A4.254,4.254,0,0,1,32.331,31.164Z" transform="translate(-15.312 -19.12)" fill="#e8a61e"/>
          <path id="Path_980333" data-name="Path 980333" d="M150.439,16.62V38.661h-7.348V37.477a3.675,3.675,0,0,0-7.35,0v1.184H128.4V31.316h-1.184a3.675,3.675,0,0,1,0-7.35H128.4V16.62h6.459v9.692a2.5,2.5,0,0,0,2.5,2.5h4.117a2.5,2.5,0,0,0,2.5-2.5V21.839l.992.464a1.418,1.418,0,1,0,1.2-2.57l-2.19-1.022V16.62Z" transform="translate(-95.809 -13.542)" fill="#fc5d3d"/>
          <path id="Path_980334" data-name="Path 980334" d="M183.8,13.479a1.42,1.42,0,0,1-1.885.687l-.992-.464v4.473a2.5,2.5,0,0,1-2.5,2.5H174.3a2.5,2.5,0,0,1-2.5-2.5V5.99h9.125v4.584l2.19,1.022A1.418,1.418,0,0,1,183.8,13.479Z" transform="translate(-132.754 -5.404)" fill="#ffb69f"/>
          <path id="Path_980335" data-name="Path 980335" d="M139.248,42.64h-2.77a.586.586,0,0,1-.586-.586V35.293H132.95a1.916,1.916,0,0,1,0-3.832h2.942V27.6a.586.586,0,1,1,1.172,0v4.443a.586.586,0,0,1-.586.586H132.95a.744.744,0,0,0,0,1.488h3.528a.586.586,0,0,1,.586.586v6.761h2.184a.586.586,0,0,1,0,1.172Zm-2.77-16.794a.586.586,0,0,1-.586-.586V24.7a.586.586,0,0,1,1.172,0v.56A.586.586,0,0,1,136.478,25.846Z" transform="translate(-101.547 -19.279)" fill="#ffcbc3"/>
          <path id="Path_980336" data-name="Path 980336" d="M176.966,24.177v2.136a4.254,4.254,0,0,1-4.248,4.248H168.6a4.254,4.254,0,0,1-4.251-4.248V16.62H166.1v9.692a2.5,2.5,0,0,0,2.5,2.5h4.117a2.5,2.5,0,0,0,2.5-2.5V21.839l.992.464a1.418,1.418,0,1,0,1.2-2.57l-2.19-1.022V16.62h1.744v.98l1.184.553A3.166,3.166,0,0,1,176.966,24.177Z" transform="translate(-127.05 -13.542)" fill="#b34f33"/>
          <path id="Path_980337" data-name="Path 980337" d="M166.3,128.546V135h-9.692a2.506,2.506,0,0,0-2.5,2.5v4.117a2.5,2.5,0,0,0,2.5,2.5h4.473l-.464.992a1.418,1.418,0,1,0,2.57,1.2l1.022-2.19H166.3v6.459H144.26v-7.348h1.184a3.675,3.675,0,0,0,0-7.35H144.26v-7.346h7.345v-1.184a3.675,3.675,0,0,1,7.35,0v1.184Z" transform="translate(-111.671 -95.508)" fill="#72c2e9"/>
          <path id="Path_980338" data-name="Path 980338" d="M200.939,171.95v9.125h-4.584l-1.022,2.19a1.418,1.418,0,1,1-2.57-1.2l.464-.992h-4.473a2.5,2.5,0,0,1-2.5-2.5v-4.117a2.506,2.506,0,0,1,2.5-2.5Z" transform="translate(-143.816 -132.454)" fill="#ffb69f"/>
          <path id="Path_980339" data-name="Path 980339" d="M152.346,139.989a.586.586,0,0,1-.586-.586v-2.77a.586.586,0,0,1,.586-.586h6.761V133.1a1.916,1.916,0,0,1,3.832,0v2.942H166.8a.586.586,0,1,1,0,1.172h-4.442a.586.586,0,0,1-.586-.586V133.1a.744.744,0,0,0-1.488,0v3.528a.586.586,0,0,1-.586.586h-6.761V139.4A.586.586,0,0,1,152.346,139.989Zm17.353-2.77h-.56a.586.586,0,1,1,0-1.172h.56a.586.586,0,1,1,0,1.172Z" transform="translate(-117.412 -101.251)" fill="#c5e5fe"/>
          <path id="Path_980340" data-name="Path 980340" d="M180.554,168.751v4.117a2.5,2.5,0,0,0,2.5,2.5h4.473l-.464.992a1.418,1.418,0,1,0,2.57,1.2l1.022-2.19h2.091v1.744h-.98l-.553,1.184a3.165,3.165,0,0,1-6.023-1.184h-2.136a4.254,4.254,0,0,1-4.248-4.248v-4.117a4.254,4.254,0,0,1,4.248-4.251h9.692v1.747h-9.692A2.507,2.507,0,0,0,180.554,168.751Z" transform="translate(-138.12 -126.75)" fill="#48a6c8"/>
          <path id="Path_980341" data-name="Path 980341" d="M45.279,155.4a3.673,3.673,0,0,1-3.672,3.674H40.424v7.345H33.964v-9.692a2.506,2.506,0,0,0-2.5-2.5H27.343a2.5,2.5,0,0,0-2.5,2.5V161.2l-.992-.464a1.418,1.418,0,1,0-1.2,2.57l2.19,1.022v2.091H18.38V144.38h7.348v1.184a3.675,3.675,0,0,0,7.35,0V144.38h7.346v7.346h1.184a3.674,3.674,0,0,1,3.672,3.676Z" transform="translate(-15.304 -111.347)" fill="#13bf6d"/>
          <path id="Path_980342" data-name="Path 980342" d="M45.229,188.874v12.185H36.1v-4.584l-2.19-1.022a1.418,1.418,0,1,1,1.2-2.57l.992.464v-4.473a2.5,2.5,0,0,1,2.5-2.5h4.117A2.506,2.506,0,0,1,45.229,188.874Z" transform="translate(-26.569 -143.493)" fill="#ffb69f"/>
          <path id="Path_980343" data-name="Path 980343" d="M91.444,170.409a.586.586,0,0,1-.586-.586v-.56a.586.586,0,1,1,1.172,0v.56A.586.586,0,0,1,91.444,170.409Zm0-2.9a.586.586,0,0,1-.586-.586v-4.442a.586.586,0,0,1,.586-.586h3.528a.744.744,0,0,0,0-1.488H91.444a.586.586,0,0,1-.586-.586v-6.761H88.674a.586.586,0,1,1,0-1.172h2.77a.586.586,0,0,1,.586.586v6.761h2.942a1.916,1.916,0,0,1,0,3.832H92.03v3.856A.586.586,0,0,1,91.444,167.505Z" transform="translate(-68.668 -117.092)" fill="#76ffbb"/>
          <path id="Path_980344" data-name="Path 980344" d="M41.281,183.178v9.692H39.535v-9.692a2.506,2.506,0,0,0-2.5-2.5H32.914a2.505,2.505,0,0,0-2.5,2.5v4.473l-.992-.464a1.418,1.418,0,1,0-1.2,2.57l2.19,1.022v2.091H28.665v-.98l-1.184-.553a3.162,3.162,0,0,1,1.184-6.023v-2.136a4.254,4.254,0,0,1,4.248-4.248h4.117a4.254,4.254,0,0,1,4.251,4.248Z" transform="translate(-20.874 -137.797)" fill="#139d6d"/>
          <circle id="Ellipse_11591" data-name="Ellipse 11591" cx="0.586" cy="0.586" r="0.586" transform="translate(8.37 18.079)"/>
          <path id="Path_980345" data-name="Path 980345" d="M11.872,30.887a.586.586,0,1,0,0-1.172H5.846a.586.586,0,0,0,0,1.172H7.752V36.76a.586.586,0,0,0,.586.586H15.1v.6a4.261,4.261,0,0,0,8.522,0v-.6H30.38a.586.586,0,0,0,.586-.586V29.414a.586.586,0,0,0-.586-.586H29.2a3.089,3.089,0,0,1,0-6.178H30.38a.586.586,0,0,0,.586-.586V14.716a.586.586,0,0,0-.586-.586H8.338a.586.586,0,0,0-.586.586v5.873H5.846a.586.586,0,1,0,0,1.172H10.43a.591.591,0,0,0,.532-.338l1.022-2.19a.831.831,0,0,1,1.508.7l-.464.992a.586.586,0,0,0,.53.835h4.473a1.918,1.918,0,0,1,1.918,1.931H15.482a.586.586,0,0,0,0,1.172h4.466v1.748H15.482a.586.586,0,1,0,0,1.172h4.466a1.916,1.916,0,0,1-1.918,1.93h-1.47a.586.586,0,1,0,0,1.172h1.47a3.1,3.1,0,0,0,3.09-3.076V23.679a3.091,3.091,0,0,0-3.09-3.09H14.479l.073-.157a2,2,0,1,0-3.632-1.7l-.863,1.852H8.925V15.3H29.793v6.176h-.6A4.261,4.261,0,0,0,29.2,30h.6v6.173H23.034a.586.586,0,0,0-.586.586v1.184a3.089,3.089,0,0,1-6.178,0V36.76a.586.586,0,0,0-.586-.586H8.925V30.887Z" transform="translate(-5.26 -11.635)"/>
          <circle id="Ellipse_11592" data-name="Ellipse 11592" cx="0.586" cy="0.586" r="0.586" transform="translate(38.46 8.368)"/>
          <path id="Path_980346" data-name="Path 980346" d="M125.893,21.85V28.61a.586.586,0,0,0,.586.586h7.345a.586.586,0,0,0,.586-.586V27.426a3.089,3.089,0,0,1,6.178,0V28.61a.586.586,0,0,0,.586.586h7.348a.586.586,0,0,0,.586-.586V6.568a.586.586,0,0,0-.586-.586H142.65V4.076a.586.586,0,0,0-1.172,0V8.66a.581.581,0,0,0,.338.53L144,10.214a.831.831,0,0,1-.7,1.508l-.992-.464a.585.585,0,0,0-.835.53v4.473a1.917,1.917,0,0,1-1.932,1.918V13.712a.586.586,0,0,0-1.172,0v4.466h-1.748V13.712a.586.586,0,0,0-1.172,0v4.466a1.918,1.918,0,0,1-1.929-1.918V14.788a.586.586,0,1,0-1.172,0v1.472a3.092,3.092,0,0,0,3.057,3.09h4.15a3.093,3.093,0,0,0,3.09-3.09V12.709l.157.073A2,2,0,1,0,144.5,9.152l-1.85-.865V7.155h5.286V28.023h-6.176v-.6a4.261,4.261,0,0,0-8.522,0v.6h-6.173V21.264a.586.586,0,0,0-.586-.586h-1.184a3.089,3.089,0,0,1,0-6.178h1.184a.586.586,0,0,0,.586-.586V7.155h5.288V10.1a.586.586,0,1,0,1.172,0V4.076a.586.586,0,1,0-1.172,0V5.982h-5.874a.586.586,0,0,0-.586.586v6.759h-.6a4.261,4.261,0,0,0,0,8.522Z" transform="translate(-93.892 -3.49)"/>
          <path id="Path_980347" data-name="Path 980347" d="M160.854,132.507a.586.586,0,0,0,0,1.172h6.026a.586.586,0,1,0,0-1.172h-1.906v-5.872a.586.586,0,0,0-.586-.586h-6.759v-.6a4.261,4.261,0,0,0-8.522,0v.6h-6.759a.586.586,0,0,0-.586.586v7.346a.586.586,0,0,0,.586.586h1.184a3.089,3.089,0,0,1,0,6.178h-1.184a.586.586,0,0,0-.586.586v7.348a.586.586,0,0,0,.586.586h22.041a.586.586,0,0,0,.586-.586V142.8h1.906a.586.586,0,1,0,0-1.172H162.3a.59.59,0,0,0-.532.34l-1.022,2.187a.831.831,0,1,1-1.508-.7l.464-.994a.587.587,0,0,0-.53-.835h-4.473a1.915,1.915,0,0,1-1.918-1.93h4.466a.586.586,0,1,0,0-1.172h-4.466v-1.748h4.466a.586.586,0,1,0,0-1.172h-4.466V135.6a1.916,1.916,0,0,1,1.918-1.918h1.472a.586.586,0,0,0,0-1.172h-1.472a3.1,3.1,0,0,0-3.09,3.062v4.145a3.092,3.092,0,0,0,3.09,3.09h3.552l-.073.157a2,2,0,1,0,3.629,1.7l.865-1.852H163.8v5.288H142.932v-6.176h.6a4.261,4.261,0,0,0,0-8.522h-.6v-6.173h6.759a.586.586,0,0,0,.586-.586v-1.184a3.089,3.089,0,0,1,6.178,0v1.184a.586.586,0,0,0,.586.586H163.8v5.286Z" transform="translate(-109.757 -93.597)"/>
          <path id="Path_980348" data-name="Path 980348" d="M210.7,170.036a.587.587,0,1,0,.589-.586A.588.588,0,0,0,210.7,170.036Z" transform="translate(-162.533 -130.54)"/>
          <circle id="Ellipse_11593" data-name="Ellipse 11593" cx="0.586" cy="0.586" r="0.586" transform="translate(18.074 48.612)"/>
          <path id="Path_980349" data-name="Path 980349" d="M31.466,167a.586.586,0,0,0,1.172,0V165.1h5.874a.586.586,0,0,0,.586-.586v-6.759h.6a4.261,4.261,0,0,0,0-8.522h-.6V142.47a.586.586,0,0,0-.586-.586H31.166a.586.586,0,0,0-.586.586v1.184a3.089,3.089,0,0,1-6.178,0V142.47a.586.586,0,0,0-.586-.586H16.468a.586.586,0,0,0-.586.586v22.041a.586.586,0,0,0,.586.586h5.873V167a.586.586,0,0,0,1.172,0v-4.584a.586.586,0,0,0-.338-.53l-2.19-1.022a.832.832,0,0,1,.7-1.51l.994.467a.588.588,0,0,0,.835-.532v-4.473a1.918,1.918,0,0,1,1.931-1.918v4.467a.586.586,0,1,0,1.172,0V152.9h1.748v4.467a.586.586,0,1,0,1.172,0V152.9a1.919,1.919,0,0,1,1.929,1.918v1.472a.586.586,0,1,0,1.172,0v-1.472a3.1,3.1,0,0,0-3.062-3.09H25.431a3.091,3.091,0,0,0-3.09,3.09v3.552l-.157-.073a2,2,0,0,0-1.7,3.632l1.852.863v1.133H17.054V143.056H23.23v.6a4.261,4.261,0,0,0,8.522,0v-.6h6.173v6.759a.586.586,0,0,0,.586.586H39.7a3.089,3.089,0,0,1,0,6.178H38.512a.586.586,0,0,0-.586.586v6.759H32.638v-2.945a.586.586,0,1,0-1.172,0Z" transform="translate(-13.392 -109.437)"/>
        </g>
      </g>
    </g>
  </g>
</svg>
