<svg xmlns="http://www.w3.org/2000/svg" xmlns:xlink="http://www.w3.org/1999/xlink" width="108" height="108" viewBox="0 0 108 108">
  <defs>
    <filter id="Fondo" x="0" y="0" width="108" height="108" filterUnits="userSpaceOnUse">
      <feOffset dy="3" input="SourceAlpha"/>
      <feGaussianBlur stdDeviation="3" result="blur"/>
      <feFlood flood-opacity="0.161"/>
      <feComposite operator="in" in2="blur"/>
      <feComposite in="SourceGraphic"/>
    </filter>
  </defs>
  <g id="Group_1144523" data-name="Group 1144523" transform="translate(-325.999 -2393)">
    <g id="Icono" transform="translate(0.279 1704)">
      <g transform="matrix(1, 0, 0, 1, 325.72, 689)" filter="url(#Fondo)">
        <g id="Fondo-2" data-name="Fondo" transform="translate(9 6)" fill="#f1fef9" stroke="#43896d" stroke-width="3">
          <circle cx="45" cy="45" r="45" stroke="none"/>
          <circle cx="45" cy="45" r="43.5" fill="none"/>
        </g>
      </g>
    </g>
    <g id="Group_1144390" data-name="Group 1144390" transform="translate(352.047 2397.527)">
      <g id="Group_1144388" data-name="Group 1144388" transform="translate(0.82 21.609)">
        <path id="Path_980635" data-name="Path 980635" d="M69.265,28.279H63.236a6.615,6.615,0,0,0,0,13.23,1.285,1.285,0,0,1,1.125.665l.764,1.388a1.285,1.285,0,0,0,2.251,0l.764-1.388a1.285,1.285,0,0,1,1.125-.665,6.615,6.615,0,1,0,0-13.23Z" transform="translate(-51.258 -28.279)" fill="#50e1cd"/>
        <path id="Path_980636" data-name="Path 980636" d="M285.6,28.279h6.029a6.615,6.615,0,1,1,0,13.23,1.284,1.284,0,0,0-1.125.665l-.764,1.388a1.285,1.285,0,0,1-2.251,0l-.764-1.388a1.285,1.285,0,0,0-1.125-.665,6.615,6.615,0,1,1,0-13.23Z" transform="translate(-249.343 -28.279)" fill="#50e1cd"/>
        <path id="Path_980637" data-name="Path 980637" d="M299.229,426.671c0-4.073,3.43-6.992,3.43-6.992h8.666s3.43,2.92,3.43,6.992Z" transform="translate(-267.376 -376.944)" fill="#93bbe7"/>
        <path id="Path_980638" data-name="Path 980638" d="M273.11,206.634a1.594,1.594,0,0,1-1.167-2.682,14.08,14.08,0,0,1,10.134-4.442,14.258,14.258,0,0,1,14.258,14.265Z" transform="translate(-242.684 -180.814)" fill="#e8a882"/>
        <path id="Path_980639" data-name="Path 980639" d="M37.516,203.952a14.08,14.08,0,0,0-10.134-4.442,14.258,14.258,0,0,0-14.258,14.265v5.933a6.181,6.181,0,0,0,6.181,6.181h3.521v-2.341l13.522-16.915A1.594,1.594,0,0,0,37.516,203.952Z" transform="translate(-12.511 -180.814)" fill="#6a647f"/>
        <path id="Path_980640" data-name="Path 980640" d="M19.392,212.7c0-6.526,4.39-11.945,10.155-13a14.126,14.126,0,0,0-16.421,14.078v5.933a6.181,6.181,0,0,0,6.181,6.181h3.521v-2.341l.736-.921A13.626,13.626,0,0,1,19.392,212.7Z" transform="translate(-12.512 -180.814)" fill="#5c586f"/>
        <path id="Path_980641" data-name="Path 980641" d="M86.1,426.671c0-4.073-3.43-6.992-3.43-6.992H74.006s-3.43,2.92-3.43,6.992Z" transform="translate(-63.689 -376.944)" fill="#fdd89f"/>
        <path id="Path_980642" data-name="Path 980642" d="M64.734,271.753a10.853,10.853,0,1,1-21.1-3.586,5.121,5.121,0,0,1,4.842-3.407H62.987C64.58,266.649,64.734,269.089,64.734,271.753Z" transform="translate(-39.148 -238.94)" fill="#da9d81"/>
        <circle id="Ellipse_11610" data-name="Ellipse 11610" cx="3.693" cy="3.693" r="3.693" transform="translate(46.88 29.308)" fill="#ffcabd"/>
        <path id="Path_980643" data-name="Path 980643" d="M284.33,199.673a13.867,13.867,0,0,0-2.253-.162,14.08,14.08,0,0,0-10.134,4.442,1.594,1.594,0,0,0,1.167,2.682l1.544.475A14.016,14.016,0,0,1,284.33,199.673Z" transform="translate(-242.684 -180.815)" fill="#e3986d"/>
        <path id="Path_980644" data-name="Path 980644" d="M270.168,271.753a10.853,10.853,0,1,0,21.1-3.586,5.121,5.121,0,0,0-4.842-3.407H271.915C270.322,266.649,270.168,269.089,270.168,271.753Z" transform="translate(-241.488 -238.94)" fill="#ffdcce"/>
        <path id="Path_980645" data-name="Path 980645" d="M14.38,271.87a14,14,0,0,1,1.306-5.938,5.1,5.1,0,0,0-3.7,3.279c-.019.055-.036.111-.054.166a3.009,3.009,0,0,0-.739-.086,3.693,3.693,0,0,0,0,7.385,2.915,2.915,0,0,0,.854-.117,10.827,10.827,0,0,0,8.918,7.019A13.349,13.349,0,0,1,14.38,271.87Z" transform="translate(-7.5 -239.984)" fill="#c7856a"/>
        <path id="Path_980646" data-name="Path 980646" d="M272.143,270.905a12.868,12.868,0,0,1,1.559-6.146h-1.788c-1.593,1.889-1.747,4.329-1.747,6.993a10.857,10.857,0,0,0,8.792,10.658A13.313,13.313,0,0,1,272.143,270.905Z" transform="translate(-241.488 -238.939)" fill="#ffcabd"/>
        <path id="Path_980647" data-name="Path 980647" d="M60.082,34.53a8,8,0,0,1,1.861-5.087,6.615,6.615,0,0,0,1.293,13.1,1.285,1.285,0,0,1,1.125.665l.764,1.388a1.285,1.285,0,0,0,2.251,0l.583-1.06C63.68,42.2,60.082,38.415,60.082,34.53Z" transform="translate(-51.258 -29.316)" fill="#00d1b3"/>
      </g>
      <g id="Group_1144389" data-name="Group 1144389" transform="translate(0.001 20.791)">
        <path id="Path_980648" data-name="Path 980648" d="M98.85,313.522a.819.819,0,0,0-.819.819v1.119a.819.819,0,0,0,1.638,0v-1.119A.819.819,0,0,0,98.85,313.522Z" transform="translate(-87.328 -281.56)"/>
        <path id="Path_980649" data-name="Path 980649" d="M205.545,313.522a.819.819,0,0,0-.819.819v1.119a.819.819,0,0,0,1.638,0v-1.119A.819.819,0,0,0,205.545,313.522Z" transform="translate(-182.373 -281.56)"/>
        <path id="Path_980650" data-name="Path 980650" d="M141.742,323.67a.819.819,0,0,0-1.155.079,1.217,1.217,0,0,1-1.837,0,.819.819,0,0,0-1.235,1.076,2.854,2.854,0,0,0,4.306,0A.819.819,0,0,0,141.742,323.67Z" transform="translate(-122.322 -290.42)"/>
        <path id="Path_980651" data-name="Path 980651" d="M399.768,313.522a.819.819,0,0,0-.819.819v1.119a.819.819,0,0,0,1.638,0v-1.119A.819.819,0,0,0,399.768,313.522Z" transform="translate(-355.39 -281.56)"/>
        <path id="Path_980652" data-name="Path 980652" d="M293.073,313.522a.819.819,0,0,0-.819.819v1.119a.819.819,0,0,0,1.638,0v-1.119A.819.819,0,0,0,293.073,313.522Z" transform="translate(-260.344 -281.56)"/>
        <path id="Path_980653" data-name="Path 980653" d="M335.964,323.67a.819.819,0,0,0-1.155.079,1.217,1.217,0,0,1-1.837,0,.819.819,0,1,0-1.235,1.076,2.854,2.854,0,0,0,4.306,0A.819.819,0,0,0,335.964,323.67Z" transform="translate(-295.337 -290.42)"/>
        <path id="Path_980654" data-name="Path 980654" d="M138.059,81.291a.828.828,0,1,0,.828.828A.828.828,0,0,0,138.059,81.291Z" transform="translate(-122.247 -74.685)"/>
        <path id="Path_980655" data-name="Path 980655" d="M106.183,81.291a.828.828,0,1,0,.828.828A.828.828,0,0,0,106.183,81.291Z" transform="translate(-93.852 -74.685)"/>
        <path id="Path_980656" data-name="Path 980656" d="M169.935,81.291a.828.828,0,1,0,.828.828A.828.828,0,0,0,169.935,81.291Z" transform="translate(-150.643 -74.685)"/>
        <path id="Path_980657" data-name="Path 980657" d="M62.585,20.791H56.556a7.434,7.434,0,0,0,0,14.867.466.466,0,0,1,.408.241l.764,1.388a2.1,2.1,0,0,0,3.686,0l.764-1.388a.466.466,0,0,1,.408-.241,7.434,7.434,0,0,0,0-14.867Zm0,13.23a2.1,2.1,0,0,0-1.843,1.09L59.978,36.5a.465.465,0,0,1-.816,0L58.4,35.11a2.1,2.1,0,0,0-1.843-1.089,5.8,5.8,0,1,1,0-11.592h6.029a5.8,5.8,0,0,1,0,11.592Z" transform="translate(-43.759 -20.791)"/>
        <path id="Path_980658" data-name="Path 980658" d="M360.411,82.947a.828.828,0,1,0-.828-.828A.828.828,0,0,0,360.411,82.947Z" transform="translate(-320.322 -74.685)"/>
        <path id="Path_980659" data-name="Path 980659" d="M392.287,82.947a.828.828,0,1,0-.828-.828A.828.828,0,0,0,392.287,82.947Z" transform="translate(-348.717 -74.685)"/>
        <path id="Path_980660" data-name="Path 980660" d="M328.536,82.947a.828.828,0,1,0-.828-.828A.828.828,0,0,0,328.536,82.947Z" transform="translate(-291.927 -74.685)"/>
        <path id="Path_980661" data-name="Path 980661" d="M278.908,35.659a.466.466,0,0,1,.408.241l.764,1.388a2.1,2.1,0,0,0,3.686,0l.764-1.388a.466.466,0,0,1,.408-.241,7.434,7.434,0,0,0,0-14.867h-6.029a7.434,7.434,0,1,0,0,14.867Zm0-13.23h6.029a5.8,5.8,0,1,1,0,11.592,2.1,2.1,0,0,0-1.843,1.09L282.33,36.5a.465.465,0,0,1-.816,0l-.764-1.388a2.1,2.1,0,0,0-1.843-1.089,5.8,5.8,0,0,1,0-11.592Z" transform="translate(-241.833 -20.792)"/>
        <path id="Path_980662" data-name="Path 980662" d="M7.616,220.036h.171a8.985,8.985,0,0,0-.9,3.832.819.819,0,0,0,.819.819H23.232a.819.819,0,0,0,.819-.819,10.414,10.414,0,0,0-2.817-6.712,11.66,11.66,0,0,0,5.99-10.2c0-2.348-.109-4.619-1.254-6.554a2.413,2.413,0,0,0,.451-3.682,14.824,14.824,0,0,0-17.84-2.937.819.819,0,1,0,.777,1.442,13.187,13.187,0,0,1,15.871,2.618.754.754,0,0,1,.144.831.763.763,0,0,1-.715.471H10.137a5.955,5.955,0,0,0-5.419,3.492,4.6,4.6,0,0,0-1.793.282,13.62,13.62,0,0,1,3.867-5.893A.819.819,0,1,0,5.7,195.8a15.218,15.218,0,0,0-4.863,8.727,4.494,4.494,0,0,0-.223,4.881v3.626a7.008,7.008,0,0,0,7,7Zm-3.427-15.75a11.769,11.769,0,0,0-.309,2.668,11.973,11.973,0,0,0,.4,3.05,2.873,2.873,0,0,1-.093-5.719ZM7.616,218.4a5.368,5.368,0,0,1-5.362-5.362v-1.989a4.531,4.531,0,0,0,2.6.592,11.71,11.71,0,0,0,4.9,5.456,12.864,12.864,0,0,0-1.029,1.3Zm14.746,4.651H20.234v-1.7a.819.819,0,0,0-1.638,0v1.7H12.342v-1.7a.819.819,0,0,0-1.638,0v1.7H8.578a9.674,9.674,0,0,1,2.737-5.212,11.764,11.764,0,0,0,8.354.046A9.589,9.589,0,0,1,22.361,223.049Zm-10.892-6.922h0a10.052,10.052,0,0,1-5.39-12.488,4.3,4.3,0,0,1,4.069-2.859H24.26c1.22,1.671,1.326,3.874,1.326,6.174a10.035,10.035,0,0,1-14.116,9.173Z" transform="translate(-0.001 -173.324)"/>
        <path id="Path_980663" data-name="Path 980663" d="M268.648,217.13a10.414,10.414,0,0,0-2.817,6.712.819.819,0,0,0,.819.819h15.525a.819.819,0,0,0,.819-.819,10.478,10.478,0,0,0-2.873-6.773,11.661,11.661,0,0,0,4.9-5.458,4.513,4.513,0,0,0,4.022-7.109,15.187,15.187,0,0,0-5.117-8.949.819.819,0,1,0-1.063,1.246,13.587,13.587,0,0,1,4.095,6.091,4.582,4.582,0,0,0-1.794-.282,5.955,5.955,0,0,0-5.429-3.492H265.223a.775.775,0,0,1-.57-1.3,13.185,13.185,0,0,1,15.593-2.764.819.819,0,0,0,.743-1.46,14.823,14.823,0,0,0-17.528,3.1,2.414,2.414,0,0,0,.451,3.682c-1.145,1.936-1.254,4.206-1.254,6.554A11.665,11.665,0,0,0,268.648,217.13Zm10.529,5.893v-1.7a.819.819,0,1,0-1.638,0v1.7h-6.254v-1.7a.819.819,0,1,0-1.638,0v1.7H267.52a9.592,9.592,0,0,1,2.692-5.166,11.76,11.76,0,0,0,8.356-.046,9.606,9.606,0,0,1,2.736,5.213Zm-4.771-6.06a10.031,10.031,0,0,1-10.11-10.034c0-2.3.106-4.5,1.326-6.174,14.763.154,14.652-.4,16.353.621a4.233,4.233,0,0,1,1.875,2.381A10.04,10.04,0,0,1,274.406,216.963Zm11.193-6.983a11.931,11.931,0,0,0,.4-3.051,11.8,11.8,0,0,0-.309-2.669,2.874,2.874,0,0,1-.094,5.72Z" transform="translate(-233.98 -173.298)"/>
      </g>
    </g>
  </g>
</svg>
