<svg xmlns="http://www.w3.org/2000/svg" xmlns:xlink="http://www.w3.org/1999/xlink" width="108" height="108" viewBox="0 0 108 108">
  <defs>
    <filter id="Fondo" x="0" y="0" width="108" height="108" filterUnits="userSpaceOnUse">
      <feOffset dy="3" input="SourceAlpha"/>
      <feGaussianBlur stdDeviation="3" result="blur"/>
      <feFlood flood-opacity="0.161"/>
      <feComposite operator="in" in2="blur"/>
      <feComposite in="SourceGraphic"/>
    </filter>
  </defs>
  <g id="Group_1144506" data-name="Group 1144506" transform="translate(-746 -5599)">
    <g id="Group_1144278" data-name="Group 1144278">
      <g id="Icono" transform="translate(420.28 4910)">
        <g transform="matrix(1, 0, 0, 1, 325.72, 689)" filter="url(#Fondo)">
          <g id="Fondo-2" data-name="Fondo" transform="translate(9 6)" fill="#f1fef9" stroke="#43896d" stroke-width="3">
            <circle cx="45" cy="45" r="45" stroke="none"/>
            <circle cx="45" cy="45" r="43.5" fill="none"/>
          </g>
        </g>
      </g>
      <g id="Group_1144277" data-name="Group 1144277" transform="translate(743.667 5618.689)">
        <path id="Path_980237" data-name="Path 980237" d="M305.931,34.243H287.993a.576.576,0,0,0-.575.575V41.34h.722a.577.577,0,0,1,.575.575V45.22h1.138a.577.577,0,0,1,.575.575v2.851h1.383a.577.577,0,0,1,.575.575V85.186h1.689a.576.576,0,0,1,.575.575v1.746a.576.576,0,0,1-.575.575h11.857a.576.576,0,0,0,.575-.575V34.818A.577.577,0,0,0,305.931,34.243Z" transform="translate(-228.488 -30.322)" fill="#fb8276"/>
        <path id="Path_980238" data-name="Path 980238" d="M288.715,41.915V45.22h1.81v-10.4a.576.576,0,0,1,.575-.575h-3.107a.576.576,0,0,0-.575.575V41.34h.722A.577.577,0,0,1,288.715,41.915Z" transform="translate(-228.488 -30.322)" opacity="0.1"/>
        <path id="Path_980239" data-name="Path 980239" d="M131.033,28.942V25.566a.576.576,0,0,1,.575-.575h1.383V22.14a.577.577,0,0,1,.575-.575H134.7V18.259a.577.577,0,0,1,.575-.575h.526V7.859c0-.316-.21-.424-.467-.24l-10.323,7.406a1.262,1.262,0,0,0-.467.91V28.942h6.485Z" transform="translate(-84.266 -6.667)" fill="#d5e962"/>
        <path id="Path_980240" data-name="Path 980240" d="M127.539,28.943V16.763a1.261,1.261,0,0,1,.467-.91l7.8-5.6V7.86c0-.316-.21-.424-.467-.24l-10.323,7.406a1.262,1.262,0,0,0-.467.91V28.943h2.988Z" transform="translate(-84.268 -6.668)" opacity="0.1"/>
        <path id="Path_980241" data-name="Path 980241" d="M68.207,229.457v-1.746a.577.577,0,0,1,.575-.575H70.47V194.548H56.729a.576.576,0,0,0-.575.575v34.335a.577.577,0,0,0,.575.575H68.781A.577.577,0,0,1,68.207,229.457Z" transform="translate(-23.702 -172.273)" fill="#f7931e"/>
        <path id="Path_980242" data-name="Path 980242" d="M198.321,196.581V160.617a.577.577,0,0,0-.575-.575H181.766a.577.577,0,0,0-.575.575v35.964Z" transform="translate(-134.423 -141.718)" fill="#e6e9ed"/>
        <g id="Group_1144276" data-name="Group 1144276" transform="translate(32.452 22.275)" opacity="0.1">
          <path id="Path_980243" data-name="Path 980243" d="M58.456,217.443V195.122a.576.576,0,0,1,.575-.575h-2.3a.576.576,0,0,0-.575.575v23.322A3.9,3.9,0,0,1,58.456,217.443Z" transform="translate(-56.154 -194.547)"/>
          <path id="Path_980244" data-name="Path 980244" d="M58.456,459.134v-4.212a3.9,3.9,0,0,1-2.3-1v5.213a.577.577,0,0,0,.575.575h2.3A.577.577,0,0,1,58.456,459.134Z" transform="translate(-56.154 -424.225)"/>
        </g>
        <path id="Path_980245" data-name="Path 980245" d="M223.041,100.108V96.8a.577.577,0,0,0-.575-.575h-8.639a.577.577,0,0,0-.575.575v3.305Z" transform="translate(-162.813 -85.21)" fill="#e6e9ed"/>
        <path id="Path_980246" data-name="Path 980246" d="M215.618,100.108V96.8a.577.577,0,0,1,.575-.575h-2.365a.577.577,0,0,0-.575.575v3.305Z" transform="translate(-162.814 -85.21)" opacity="0.1"/>
        <path id="Path_980247" data-name="Path 980247" d="M211.5,133.544v-2.851a.577.577,0,0,0-.575-.575H198.865a.577.577,0,0,0-.575.575v2.851Z" transform="translate(-149.564 -115.22)" fill="#c5ccd3"/>
        <path id="Path_980248" data-name="Path 980248" d="M201.909,133.544v-2.851a.577.577,0,0,1,.575-.575h-3.618a.577.577,0,0,0-.575.575v2.851Z" transform="translate(-149.565 -115.22)" opacity="0.1"/>
        <path id="Path_980249" data-name="Path 980249" d="M183.549,196.581V160.617a.577.577,0,0,1,.575-.575h-2.357a.577.577,0,0,0-.575.575v35.964Z" transform="translate(-134.424 -141.718)" opacity="0.1"/>
        <circle id="Ellipse_11589" data-name="Ellipse 11589" cx="3.916" cy="3.916" r="3.916" transform="translate(31.166 45.156)" fill="#89c947"/>
        <path id="Path_980250" data-name="Path 980250" d="M47.253,398.309a3.917,3.917,0,0,1,2.755-3.741,3.916,3.916,0,1,0,0,7.481A3.918,3.918,0,0,1,47.253,398.309Z" transform="translate(-13.765 -349.238)" opacity="0.1"/>
        <circle id="Ellipse_11590" data-name="Ellipse 11590" cx="3.916" cy="3.916" r="3.916" transform="translate(71.484 45.156)" fill="#89c947"/>
        <path id="Path_980251" data-name="Path 980251" d="M399.426,398.31a3.917,3.917,0,0,1,2.736-3.734,3.916,3.916,0,1,0,0,7.469A3.917,3.917,0,0,1,399.426,398.31Z" transform="translate(-325.583 -349.238)" opacity="0.1"/>
        <path id="Path_980252" data-name="Path 980252" d="M230.868,395.465V385.216a.576.576,0,0,0-.575-.575h-6.314a.576.576,0,0,0-.575.575v10.249Z" transform="translate(-171.803 -340.601)" fill="#7fdee9"/>
        <path id="Path_980253" data-name="Path 980253" d="M183.079,481.5a.577.577,0,0,1-.575.575H162a.577.577,0,0,1-.575-.575V479.75a.577.577,0,0,1,.575-.575H182.5a.577.577,0,0,1,.575.575V481.5Z" transform="translate(-116.917 -424.312)" fill="#c5ccd3"/>
        <path id="Path_980254" data-name="Path 980254" d="M165.006,481.5V479.75a.577.577,0,0,1,.575-.575h-3.586a.577.577,0,0,0-.575.575V481.5a.577.577,0,0,0,.575.575h3.586A.577.577,0,0,1,165.006,481.5Z" transform="translate(-116.916 -424.312)" opacity="0.1"/>
        <path id="Path_980255" data-name="Path 980255" d="M410.749,54.092h-1.955a.862.862,0,0,0,0,1.725h1.955a.862.862,0,1,0,0-1.725Z" transform="translate(-335.204 -47.899)"/>
        <path id="Path_980256" data-name="Path 980256" d="M304.3,54.092H302.35a.862.862,0,0,0,0,1.725H304.3a.862.862,0,0,0,0-1.725Z" transform="translate(-240.947 -47.899)"/>
        <path id="Path_980257" data-name="Path 980257" d="M410.749,77.188h-1.955a.862.862,0,0,0,0,1.725h1.955a.862.862,0,1,0,0-1.725Z" transform="translate(-335.204 -68.35)"/>
        <path id="Path_980258" data-name="Path 980258" d="M304.3,77.188H302.35a.862.862,0,0,0,0,1.725H304.3a.862.862,0,0,0,0-1.725Z" transform="translate(-240.947 -68.35)"/>
        <path id="Path_980259" data-name="Path 980259" d="M410.749,100.285h-1.955a.862.862,0,0,0,0,1.725h1.955a.862.862,0,1,0,0-1.725Z" transform="translate(-335.204 -88.803)"/>
        <path id="Path_980260" data-name="Path 980260" d="M410.749,123.381h-1.955a.862.862,0,0,0,0,1.725h1.955a.862.862,0,1,0,0-1.725Z" transform="translate(-335.204 -109.254)"/>
        <path id="Path_980261" data-name="Path 980261" d="M410.749,146.477h-1.955a.862.862,0,1,0,0,1.724h1.955a.862.862,0,1,0,0-1.724Z" transform="translate(-335.204 -129.706)"/>
        <path id="Path_980262" data-name="Path 980262" d="M410.749,169.573h-1.955a.862.862,0,0,0,0,1.725h1.955a.862.862,0,1,0,0-1.725Z" transform="translate(-335.204 -150.158)"/>
        <path id="Path_980263" data-name="Path 980263" d="M410.749,192.67h-1.955a.862.862,0,0,0,0,1.725h1.955a.862.862,0,1,0,0-1.725Z" transform="translate(-335.204 -170.61)"/>
        <path id="Path_980264" data-name="Path 980264" d="M410.749,215.766h-1.955a.862.862,0,0,0,0,1.725h1.955a.862.862,0,1,0,0-1.725Z" transform="translate(-335.204 -191.062)"/>
        <path id="Path_980265" data-name="Path 980265" d="M410.749,238.862h-1.955a.862.862,0,0,0,0,1.725h1.955a.862.862,0,1,0,0-1.725Z" transform="translate(-335.204 -211.513)"/>
        <path id="Path_980266" data-name="Path 980266" d="M410.749,261.959h-1.955a.862.862,0,0,0,0,1.725h1.955a.862.862,0,1,0,0-1.725Z" transform="translate(-335.204 -231.966)"/>
        <path id="Path_980267" data-name="Path 980267" d="M410.749,285.055h-1.955a.862.862,0,0,0,0,1.725h1.955a.862.862,0,1,0,0-1.725Z" transform="translate(-335.204 -252.418)"/>
        <path id="Path_980268" data-name="Path 980268" d="M410.749,308.151h-1.955a.862.862,0,0,0,0,1.725h1.955a.862.862,0,1,0,0-1.725Z" transform="translate(-335.204 -272.869)"/>
        <path id="Path_980269" data-name="Path 980269" d="M410.749,331.247h-1.955a.862.862,0,0,0,0,1.725h1.955a.862.862,0,1,0,0-1.725Z" transform="translate(-335.204 -293.321)"/>
        <path id="Path_980270" data-name="Path 980270" d="M410.749,354.344h-1.955a.862.862,0,0,0,0,1.725h1.955a.862.862,0,1,0,0-1.725Z" transform="translate(-335.204 -313.773)"/>
        <path id="Path_980271" data-name="Path 980271" d="M348.2,54.092H343.47a.862.862,0,1,0,0,1.725H348.2a.862.862,0,1,0,0-1.725Z" transform="translate(-277.359 -47.899)"/>
        <path id="Path_980272" data-name="Path 980272" d="M348.2,77.188H343.47a.862.862,0,1,0,0,1.725H348.2a.862.862,0,1,0,0-1.725Z" transform="translate(-277.359 -68.35)"/>
        <path id="Path_980273" data-name="Path 980273" d="M348.2,100.285H343.47a.862.862,0,1,0,0,1.725H348.2a.862.862,0,1,0,0-1.725Z" transform="translate(-277.359 -88.803)"/>
        <path id="Path_980274" data-name="Path 980274" d="M348.2,123.381H343.47a.862.862,0,1,0,0,1.725H348.2a.862.862,0,1,0,0-1.725Z" transform="translate(-277.359 -109.254)"/>
        <path id="Path_980275" data-name="Path 980275" d="M348.2,146.477H343.47a.862.862,0,1,0,0,1.724H348.2a.862.862,0,1,0,0-1.724Z" transform="translate(-277.359 -129.706)"/>
        <path id="Path_980276" data-name="Path 980276" d="M348.2,169.573H343.47a.862.862,0,1,0,0,1.725H348.2a.862.862,0,1,0,0-1.725Z" transform="translate(-277.359 -150.158)"/>
        <path id="Path_980277" data-name="Path 980277" d="M348.2,192.67H343.47a.862.862,0,1,0,0,1.725H348.2a.862.862,0,1,0,0-1.725Z" transform="translate(-277.359 -170.61)"/>
        <path id="Path_980278" data-name="Path 980278" d="M348.2,215.766H343.47a.862.862,0,1,0,0,1.725H348.2a.862.862,0,1,0,0-1.725Z" transform="translate(-277.359 -191.062)"/>
        <path id="Path_980279" data-name="Path 980279" d="M348.2,238.862H343.47a.862.862,0,0,0,0,1.725H348.2a.862.862,0,0,0,0-1.725Z" transform="translate(-277.359 -211.513)"/>
        <path id="Path_980280" data-name="Path 980280" d="M348.2,261.959H343.47a.862.862,0,0,0,0,1.725H348.2a.862.862,0,0,0,0-1.725Z" transform="translate(-277.359 -231.966)"/>
        <path id="Path_980281" data-name="Path 980281" d="M348.2,285.055H343.47a.862.862,0,0,0,0,1.725H348.2a.862.862,0,1,0,0-1.725Z" transform="translate(-277.359 -252.418)"/>
        <path id="Path_980282" data-name="Path 980282" d="M348.2,308.151H343.47a.862.862,0,1,0,0,1.725H348.2a.862.862,0,1,0,0-1.725Z" transform="translate(-277.359 -272.869)"/>
        <path id="Path_980283" data-name="Path 980283" d="M348.2,331.247H343.47a.862.862,0,1,0,0,1.725H348.2a.862.862,0,1,0,0-1.725Z" transform="translate(-277.359 -293.321)"/>
        <path id="Path_980284" data-name="Path 980284" d="M348.2,354.344H343.47a.862.862,0,1,0,0,1.725H348.2a.862.862,0,1,0,0-1.725Z" transform="translate(-277.359 -313.773)"/>
        <path id="Path_980285" data-name="Path 980285" d="M348.2,377.44H343.47a.862.862,0,1,0,0,1.724H348.2a.862.862,0,1,0,0-1.724Z" transform="translate(-277.359 -334.225)"/>
        <path id="Path_980286" data-name="Path 980286" d="M125.362,224.421a.862.862,0,0,0-.862.862v24.1a.862.862,0,0,0,1.725,0v-24.1A.862.862,0,0,0,125.362,224.421Z" transform="translate(-84.223 -198.726)"/>
        <path id="Path_980287" data-name="Path 980287" d="M148.873,224.421a.862.862,0,0,0-.862.862v24.1a.862.862,0,1,0,1.724,0v-24.1A.862.862,0,0,0,148.873,224.421Z" transform="translate(-105.042 -198.726)"/>
        <path id="Path_980288" data-name="Path 980288" d="M195.9,410.64a.862.862,0,0,0-.862.862V412.7a.862.862,0,0,0,1.725,0V411.5A.862.862,0,0,0,195.9,410.64Z" transform="translate(-146.681 -363.624)"/>
        <path id="Path_980289" data-name="Path 980289" d="M302.766,410.64a.862.862,0,0,0-.862.862V412.7a.862.862,0,0,0,1.724,0V411.5A.862.862,0,0,0,302.766,410.64Z" transform="translate(-241.315 -363.624)"/>
        <path id="Path_980290" data-name="Path 980290" d="M195.9,175.929a.862.862,0,0,0-.862.862v1.193a.862.862,0,0,0,1.725,0v-1.193A.862.862,0,0,0,195.9,175.929Z" transform="translate(-146.681 -155.786)"/>
        <path id="Path_980291" data-name="Path 980291" d="M217.27,175.929a.862.862,0,0,0-.862.862v1.193a.862.862,0,0,0,1.725,0v-1.193A.862.862,0,0,0,217.27,175.929Z" transform="translate(-165.608 -155.786)"/>
        <path id="Path_980292" data-name="Path 980292" d="M238.643,175.929a.862.862,0,0,0-.862.862v1.193a.862.862,0,0,0,1.725,0v-1.193A.862.862,0,0,0,238.643,175.929Z" transform="translate(-184.534 -155.786)"/>
        <path id="Path_980293" data-name="Path 980293" d="M260.017,175.929a.862.862,0,0,0-.862.862v1.193a.862.862,0,0,0,1.725,0v-1.193A.862.862,0,0,0,260.017,175.929Z" transform="translate(-203.461 -155.786)"/>
        <path id="Path_980294" data-name="Path 980294" d="M281.391,175.929a.862.862,0,0,0-.862.862v1.193a.862.862,0,0,0,1.725,0v-1.193A.862.862,0,0,0,281.391,175.929Z" transform="translate(-222.388 -155.786)"/>
        <path id="Path_980295" data-name="Path 980295" d="M302.766,175.929a.862.862,0,0,0-.862.862v1.193a.862.862,0,0,0,1.724,0v-1.193A.862.862,0,0,0,302.766,175.929Z" transform="translate(-241.315 -155.786)"/>
        <path id="Path_980296" data-name="Path 980296" d="M195.9,209.459a.862.862,0,0,0-.862.862v1.193a.862.862,0,1,0,1.725,0v-1.193A.862.862,0,0,0,195.9,209.459Z" transform="translate(-146.681 -185.477)"/>
        <path id="Path_980297" data-name="Path 980297" d="M217.27,209.459a.862.862,0,0,0-.862.862v1.193a.862.862,0,1,0,1.725,0v-1.193A.862.862,0,0,0,217.27,209.459Z" transform="translate(-165.608 -185.477)"/>
        <path id="Path_980298" data-name="Path 980298" d="M238.643,209.459a.862.862,0,0,0-.862.862v1.193a.862.862,0,1,0,1.725,0v-1.193A.862.862,0,0,0,238.643,209.459Z" transform="translate(-184.534 -185.477)"/>
        <path id="Path_980299" data-name="Path 980299" d="M260.017,209.459a.862.862,0,0,0-.862.862v1.193a.862.862,0,0,0,1.725,0v-1.193A.862.862,0,0,0,260.017,209.459Z" transform="translate(-203.461 -185.477)"/>
        <path id="Path_980300" data-name="Path 980300" d="M281.391,209.459a.862.862,0,0,0-.862.862v1.193a.862.862,0,1,0,1.725,0v-1.193A.862.862,0,0,0,281.391,209.459Z" transform="translate(-222.388 -185.477)"/>
        <path id="Path_980301" data-name="Path 980301" d="M302.766,209.459a.862.862,0,0,0-.862.862v1.193a.862.862,0,1,0,1.724,0v-1.193A.862.862,0,0,0,302.766,209.459Z" transform="translate(-241.315 -185.477)"/>
        <path id="Path_980302" data-name="Path 980302" d="M195.9,242.989a.862.862,0,0,0-.862.862v1.193a.862.862,0,1,0,1.725,0v-1.193A.862.862,0,0,0,195.9,242.989Z" transform="translate(-146.681 -215.168)"/>
        <path id="Path_980303" data-name="Path 980303" d="M217.27,242.989a.862.862,0,0,0-.862.862v1.193a.862.862,0,0,0,1.725,0v-1.193A.862.862,0,0,0,217.27,242.989Z" transform="translate(-165.608 -215.168)"/>
        <path id="Path_980304" data-name="Path 980304" d="M238.643,242.989a.862.862,0,0,0-.862.862v1.193a.862.862,0,1,0,1.725,0v-1.193A.862.862,0,0,0,238.643,242.989Z" transform="translate(-184.534 -215.168)"/>
        <path id="Path_980305" data-name="Path 980305" d="M260.017,242.989a.862.862,0,0,0-.862.862v1.193a.862.862,0,0,0,1.725,0v-1.193A.862.862,0,0,0,260.017,242.989Z" transform="translate(-203.461 -215.168)"/>
        <path id="Path_980306" data-name="Path 980306" d="M281.391,242.989a.862.862,0,0,0-.862.862v1.193a.862.862,0,1,0,1.725,0v-1.193A.862.862,0,0,0,281.391,242.989Z" transform="translate(-222.388 -215.168)"/>
        <path id="Path_980307" data-name="Path 980307" d="M302.766,242.989a.862.862,0,0,0-.862.862v1.193a.862.862,0,1,0,1.724,0v-1.193A.862.862,0,0,0,302.766,242.989Z" transform="translate(-241.315 -215.168)"/>
        <path id="Path_980308" data-name="Path 980308" d="M195.9,276.519a.862.862,0,0,0-.862.862v1.193a.862.862,0,1,0,1.725,0v-1.193A.862.862,0,0,0,195.9,276.519Z" transform="translate(-146.681 -244.859)"/>
        <path id="Path_980309" data-name="Path 980309" d="M217.27,276.519a.862.862,0,0,0-.862.862v1.193a.862.862,0,1,0,1.725,0v-1.193A.862.862,0,0,0,217.27,276.519Z" transform="translate(-165.608 -244.859)"/>
        <path id="Path_980310" data-name="Path 980310" d="M238.643,276.519a.862.862,0,0,0-.862.862v1.193a.862.862,0,0,0,1.725,0v-1.193A.862.862,0,0,0,238.643,276.519Z" transform="translate(-184.534 -244.859)"/>
        <path id="Path_980311" data-name="Path 980311" d="M260.017,276.519a.862.862,0,0,0-.862.862v1.193a.862.862,0,1,0,1.725,0v-1.193A.862.862,0,0,0,260.017,276.519Z" transform="translate(-203.461 -244.859)"/>
        <path id="Path_980312" data-name="Path 980312" d="M281.391,276.519a.862.862,0,0,0-.862.862v1.193a.862.862,0,1,0,1.725,0v-1.193A.862.862,0,0,0,281.391,276.519Z" transform="translate(-222.388 -244.859)"/>
        <path id="Path_980313" data-name="Path 980313" d="M302.766,276.519a.862.862,0,0,0-.862.862v1.193a.862.862,0,1,0,1.724,0v-1.193A.862.862,0,0,0,302.766,276.519Z" transform="translate(-241.315 -244.859)"/>
        <path id="Path_980314" data-name="Path 980314" d="M195.9,310.05a.862.862,0,0,0-.862.862v1.193a.862.862,0,1,0,1.725,0v-1.193A.862.862,0,0,0,195.9,310.05Z" transform="translate(-146.681 -274.551)"/>
        <path id="Path_980315" data-name="Path 980315" d="M217.27,310.05a.862.862,0,0,0-.862.862v1.193a.862.862,0,0,0,1.725,0v-1.193A.862.862,0,0,0,217.27,310.05Z" transform="translate(-165.608 -274.551)"/>
        <path id="Path_980316" data-name="Path 980316" d="M238.643,310.05a.862.862,0,0,0-.862.862v1.193a.862.862,0,0,0,1.725,0v-1.193A.862.862,0,0,0,238.643,310.05Z" transform="translate(-184.534 -274.551)"/>
        <path id="Path_980317" data-name="Path 980317" d="M260.017,310.05a.862.862,0,0,0-.862.862v1.193a.862.862,0,1,0,1.725,0v-1.193A.862.862,0,0,0,260.017,310.05Z" transform="translate(-203.461 -274.551)"/>
        <path id="Path_980318" data-name="Path 980318" d="M281.391,310.05a.862.862,0,0,0-.862.862v1.193a.862.862,0,1,0,1.725,0v-1.193A.862.862,0,0,0,281.391,310.05Z" transform="translate(-222.388 -274.551)"/>
        <path id="Path_980319" data-name="Path 980319" d="M302.766,310.05a.862.862,0,0,0-.862.862v1.193a.862.862,0,1,0,1.724,0v-1.193A.862.862,0,0,0,302.766,310.05Z" transform="translate(-241.315 -274.551)"/>
        <path id="Path_980320" data-name="Path 980320" d="M195.9,343.58a.862.862,0,0,0-.862.862v1.193a.862.862,0,1,0,1.725,0v-1.193A.862.862,0,0,0,195.9,343.58Z" transform="translate(-146.681 -304.242)"/>
        <path id="Path_980321" data-name="Path 980321" d="M217.27,343.58a.862.862,0,0,0-.862.862v1.193a.862.862,0,1,0,1.725,0v-1.193A.862.862,0,0,0,217.27,343.58Z" transform="translate(-165.608 -304.242)"/>
        <path id="Path_980322" data-name="Path 980322" d="M238.643,343.58a.862.862,0,0,0-.862.862v1.193a.862.862,0,1,0,1.725,0v-1.193A.862.862,0,0,0,238.643,343.58Z" transform="translate(-184.534 -304.242)"/>
        <path id="Path_980323" data-name="Path 980323" d="M260.017,343.58a.862.862,0,0,0-.862.862v1.193a.862.862,0,0,0,1.725,0v-1.193A.862.862,0,0,0,260.017,343.58Z" transform="translate(-203.461 -304.242)"/>
        <path id="Path_980324" data-name="Path 980324" d="M281.391,343.58a.862.862,0,0,0-.862.862v1.193a.862.862,0,1,0,1.725,0v-1.193A.862.862,0,0,0,281.391,343.58Z" transform="translate(-222.388 -304.242)"/>
        <path id="Path_980325" data-name="Path 980325" d="M302.766,343.58a.862.862,0,0,0-.862.862v1.193a.862.862,0,1,0,1.724,0v-1.193A.862.862,0,0,0,302.766,343.58Z" transform="translate(-241.315 -304.242)"/>
        <path id="Path_980326" data-name="Path 980326" d="M195.9,377.11a.862.862,0,0,0-.862.862v1.193a.862.862,0,0,0,1.725,0v-1.193A.862.862,0,0,0,195.9,377.11Z" transform="translate(-146.681 -333.933)"/>
        <path id="Path_980327" data-name="Path 980327" d="M302.766,377.11a.862.862,0,0,0-.862.862v1.193a.862.862,0,0,0,1.724,0v-1.193A.862.862,0,0,0,302.766,377.11Z" transform="translate(-241.315 -333.933)"/>
        <path id="Path_980328" data-name="Path 980328" d="M80.417,56.9H78.881V52.34a4.765,4.765,0,0,0,0-6.536V20.68a.862.862,0,0,0-1.725,0V44.63a4.723,4.723,0,0,0-.807-.241.861.861,0,0,0-.8-1.174H73.591a.862.862,0,0,0-.4,1.624,4.809,4.809,0,0,0-1.634,1.4.861.861,0,0,0-.716-.382H66.112a.862.862,0,0,0,0,1.725h4.749a4.735,4.735,0,0,0-.2.921H66.112a.862.862,0,0,0,0,1.725h4.653a4.743,4.743,0,0,0,.358.969.861.861,0,0,0-.286-.05H66.112a.862.862,0,0,0,0,1.725h4.725a.862.862,0,0,0,.858-.788,4.78,4.78,0,0,0,2.842,1.685V56.9H67.024V55.438A1.439,1.439,0,0,0,65.587,54H64.76V18.9a1.434,1.434,0,0,0-.552-1.13.857.857,0,0,0-.851-1H62.8v-.92h.555a.862.862,0,1,0,0-1.725H61.864a1.428,1.428,0,0,0-.5-.091H61.09v-.889a.861.861,0,0,0,.314.06h1.955a.862.862,0,0,0,0-1.725H61.4a.861.861,0,0,0-.316.061,1.438,1.438,0,0,0-1.295-1.38V4.783H77.156V17.116a.862.862,0,0,0,1.725,0V4.5a1.439,1.439,0,0,0-1.437-1.437H59.505A1.439,1.439,0,0,0,58.068,4.5v5.66H56.2V2.82a.862.862,0,1,0-1.725,0v7.336H52.4V9.183a.862.862,0,0,0-1.725,0V10.2a1.433,1.433,0,0,0-.664.366H42.8a.862.862,0,0,0,0,1.725h6.776v.747H42.8a.862.862,0,0,0,0,1.725h5.254a1.428,1.428,0,0,0-.192.714v.033H42.8a.862.862,0,0,0,0,1.725h5.063v.231h-.521a1.434,1.434,0,0,0-1.1.516H42.8a.862.862,0,0,0,0,1.725h3.1v.747H42.8a.862.862,0,0,0-.862.862.851.851,0,0,0,.006.1h-.8V9.275a.494.494,0,0,1,.108-.217L50.678,2.3V5.618a.862.862,0,1,0,1.725,0V1.192A1.167,1.167,0,0,0,51.8.117,1.168,1.168,0,0,0,50.57.251L40.247,7.657a2.13,2.13,0,0,0-.827,1.611V21.413H33.027a1.439,1.439,0,0,0-1.437,1.437V45.817a4.766,4.766,0,0,0,0,6.51V56.9h-1.34a.862.862,0,1,0,0,1.725H80.417a.862.862,0,0,0,0-1.725ZM59.927,54V44.614a1.439,1.439,0,0,0-1.437-1.437H52.176a1.439,1.439,0,0,0-1.437,1.437V54H47.63V19.186H63.036V54Zm-4.594-6.015a.862.862,0,0,0,.862-.862V44.9H58.2V54H56.2V50.573a.862.862,0,0,0-1.725,0V54H52.463V44.9h2.007v2.222A.862.862,0,0,0,55.333,47.987ZM51.3,14.036V11.88h8.064v2.156ZM49.588,15.76h11.49v1.7H49.588ZM35.082,46.018a3.053,3.053,0,1,1-3.053,3.053A3.057,3.057,0,0,1,35.082,46.018Zm-1.768,7.49a4.751,4.751,0,0,0,.906.261V56.9h-.906Zm10.328,1.929V56.9h-7.7V53.77a4.774,4.774,0,0,0,3.365-6.921V26.557a.862.862,0,1,0-1.725,0V45a4.761,4.761,0,0,0-.967-.455V26.557a.862.862,0,1,0-1.725,0V44.3a4.748,4.748,0,0,0-1.579.336v-21.5H45.906V54h-.827A1.439,1.439,0,0,0,43.642,55.438ZM65.3,56.9H45.366V55.726H65.3V56.9Zm7.047-7.825A3.053,3.053,0,1,1,75.4,52.125,3.057,3.057,0,0,1,72.347,49.072Zm3.916,4.7a4.734,4.734,0,0,0,.894-.256V56.9h-.894Z" transform="translate(0 0)"/>
      </g>
    </g>
  </g>
</svg>
