<svg xmlns="http://www.w3.org/2000/svg" xmlns:xlink="http://www.w3.org/1999/xlink" width="108" height="108" viewBox="0 0 108 108">
  <defs>
    <filter id="Fondo" x="0" y="0" width="108" height="108" filterUnits="userSpaceOnUse">
      <feOffset dy="3" input="SourceAlpha"/>
      <feGaussianBlur stdDeviation="3" result="blur"/>
      <feFlood flood-opacity="0.161"/>
      <feComposite operator="in" in2="blur"/>
      <feComposite in="SourceGraphic"/>
    </filter>
  </defs>
  <g id="Group_1144519" data-name="Group 1144519" transform="translate(-325.999 -458)">
    <g id="Icono" transform="translate(0.279 -231)">
      <g transform="matrix(1, 0, 0, 1, 325.72, 689)" filter="url(#Fondo)">
        <g id="Fondo-2" data-name="Fondo" transform="translate(9 6)" fill="#f1fef9" stroke="#43896d" stroke-width="3">
          <circle cx="45" cy="45" r="45" stroke="none"/>
          <circle cx="45" cy="45" r="43.5" fill="none"/>
        </g>
      </g>
    </g>
    <g id="Group_1144385" data-name="Group 1144385" transform="translate(334.149 481.677)">
      <g id="Group_1144383" data-name="Group 1144383" transform="translate(21.541 0.8)">
        <path id="Path_980608" data-name="Path 980608" d="M52.548,396.02c-14.441,0-24.308,3-24.308,6.909a10.375,10.375,0,0,0,1.691,4.669h5.277L52.6,405.773,69.89,407.6h5.277a10.375,10.375,0,0,0,1.691-4.669C76.857,399.023,66.99,396.02,52.548,396.02Z" transform="translate(-28.24 -354.554)" fill="#3b68b0"/>
        <path id="Path_980609" data-name="Path 980609" d="M369.629,445.338h2.894a24.34,24.34,0,0,0,.029-5.587l-5.52-1.482Z" transform="translate(-330.873 -392.294)" fill="#d97b7b"/>
        <path id="Path_980610" data-name="Path 980610" d="M335.2,415.96l4.356,9.45h1.639l-1.53-6c1.673.111,3.155.246,4.453.414a17.351,17.351,0,0,0-.4-2.246Z" transform="translate(-302.439 -372.366)" fill="#d16161"/>
        <path id="Path_980611" data-name="Path 980611" d="M108.875,425.41h-2.654a18.084,18.084,0,0,1-.5-6.555l7.505-2.894Z" transform="translate(-97.375 -372.366)" fill="#d97b7b"/>
        <path id="Path_980612" data-name="Path 980612" d="M94.017,425.41H92.139a23.823,23.823,0,0,1,.367-7.833l8.522-1.617-2.854,3.3c-1.064.071-2.7.21-4.087.346A26.008,26.008,0,0,0,94.017,425.41Z" transform="translate(-85.171 -372.366)" fill="#d16161"/>
        <path id="Path_980613" data-name="Path 980613" d="M167.475,449.734l-9.391.76-1.238,5.085h23.391l-1.167-4.778Z" transform="translate(-143.119 -402.535)" fill="#8c818f"/>
        <path id="Path_980614" data-name="Path 980614" d="M137.154,457.163l-1.167,4.778h3.293l1.238-5.085Z" transform="translate(-124.487 -408.897)" fill="#655e67"/>
        <path id="Path_980615" data-name="Path 980615" d="M191.388,437.542,171,436.38l.72,2.493h19.993Z" transform="translate(-155.764 -390.606)" fill="#e7afaf"/>
        <path id="Path_980616" data-name="Path 980616" d="M158.565,420.64c3.234,0,7.373-.027,11.317.133l-.773-3.166H148.022l-1.1,4.5h3.29a1.9,1.9,0,0,1,1.821-1.447C154.378,420.631,156.634,420.64,158.565,420.64Z" transform="translate(-134.257 -373.838)" fill="#d97b7b"/>
        <path id="Path_980617" data-name="Path 980617" d="M93.246,269.016c5.005-.453,12.23-.723,16.675-.723,1.409,0,21.361-.189,23.612,1.67-2.058-5.434-8.43-14.963-15.7-19.559h-12.24c-6.229,6.277-11.635,12.341-13.082,16.6C92.34,267.494,92.729,269.063,93.246,269.016Z" transform="translate(-85.612 -224.479)" fill="#80b6fc"/>
        <g id="Group_1144382" data-name="Group 1144382" transform="translate(0 24.239)">
          <path id="Path_980618" data-name="Path 980618" d="M59.777,267.573a.716.716,0,0,1-.7-.649l-.7-7.444-1.935-.015.756,8.084c-1.661-.007-3.242,0-4.651,0-4.445,0-10.6-.051-15.607.4A.715.715,0,0,1,36.2,267c1.447-4.258,5.785-10.322,12.014-16.6H44.641c-8.871,5.6-16.4,18.545-16.4,22.45,0-3.905,15.509-3.707,24.308-3.707s24.308-.2,24.308,3.707a8.955,8.955,0,0,0-.7-2.891c-2.251-1.859-9.586-2.294-16.383-2.391Z" transform="translate(-28.24 -248.719)" fill="#5a86cc"/>
          <path id="Path_980619" data-name="Path 980619" d="M122.542,288.624a39.737,39.737,0,0,0,4.581,9.155V285.4C125.939,285.426,121.925,286.7,122.542,288.624Z" transform="translate(-112.42 -279.979)" fill="#5a86cc"/>
          <path id="Path_980620" data-name="Path 980620" d="M180,234.609,166.353,238.3A12.42,12.42,0,0,0,166,241.26c0,5.546,3.584,8.975,8,8.975s8-3.429,8-8.975A11.569,11.569,0,0,0,180,234.609Z" transform="translate(-151.297 -234.609)" fill="#5a86cc"/>
        </g>
        <path id="Path_980621" data-name="Path 980621" d="M143.525,227.995c-3-4.137-6.664-6.54-7.953-6.44-1.025.079-1.772.922-1.772,3.674,0,3.794,2.058,7.223,5.038,11.755v-8.989Z" transform="translate(-122.534 -198.706)" fill="#8c818f"/>
        <path id="Path_980622" data-name="Path 980622" d="M131.605,188.916c.876-.067,2.051,1.369,2.89,2.11.374.33,4.563,3.154,4.563,3.154L133.667,183.7c-2.941,1.2-4.867,3.712-4.867,7.717,0,5.238,2.69,10.526,5.571,14.983v-3.227a23.115,23.115,0,0,1-3.97-11.755C130.4,189.543,130.909,188.97,131.605,188.916Z" transform="translate(-118.067 -164.891)" fill="#655e67"/>
        <path id="Path_980623" data-name="Path 980623" d="M195,219.609,181.353,223.3A12.42,12.42,0,0,0,181,226.26c0,5.546,3.584,8.975,8,8.975s8-3.429,8-8.975A11.569,11.569,0,0,0,195,219.609Z" transform="translate(-164.696 -196.971)" fill="#c8c3ca"/>
        <path id="Path_980624" data-name="Path 980624" d="M197.955,191.22a7.41,7.41,0,0,0-6-3.392c-3.6,0-6.646,2.983-7.652,7.086a8.948,8.948,0,0,0,5.432,2.25C192.713,197.164,196.515,194.678,197.955,191.22Z" transform="translate(-167.649 -168.582)" fill="#a29aa5"/>
        <path id="Path_980625" data-name="Path 980625" d="M196.631,168.284l-1.8,7.539c-.185,4.508-2.257,7.161-4.788,7.161-1.76,0-3.3-1.284-4.134-3.582l-3.746-2.143c.667,5.476,3.942,8.927,7.88,8.927,4.421,0,8-4.348,8-11.027A16.621,16.621,0,0,0,196.631,168.284Z" transform="translate(-165.737 -151.124)" fill="#f3f1f4"/>
        <path id="Path_980626" data-name="Path 980626" d="M184.2,131.476c0-4.911,2.15-8.892,4.8-8.892s4.8,3.981,4.8,8.892c0,.226-.006.447-.015.664a8.082,8.082,0,0,0,1.8-4.923V124.6c-1.445-3.153-3.855-5.219-6.586-5.219-4.421,0-8,5.415-8,12.094a17.373,17.373,0,0,0,.124,2.1,10.236,10.236,0,0,0,3.746,2.143A12.461,12.461,0,0,1,184.2,131.476Z" transform="translate(-164.696 -107.441)" fill="#c8c3ca"/>
        <path id="Path_980627" data-name="Path 980627" d="M146.7,127.01c-2.043-.5-3.2.691-3.2,2.62a3.108,3.108,0,0,0,3.207,3.328h17.6a3.108,3.108,0,0,0,3.207-3.328c0-1.929-1.159-3.121-3.2-2.62Z" transform="translate(-131.199 -114.153)" fill="#e3a76f"/>
        <path id="Path_980628" data-name="Path 980628" d="M190.184,46.315V51.95c0,4.863,3.611,8.805,7.024,8.805,3.747,0,8.805-3.942,8.805-8.805v-10.4l-8.807-4.044C197.129,37.562,190.184,41.484,190.184,46.315Z" transform="translate(-172.9 -34.308)" fill="#f4c497"/>
        <path id="Path_980629" data-name="Path 980629" d="M176.348,51.94V43.786c5.957,1.878,14.762,1.016,14.762-2.567L182.3,37.5l-8.8,4.045v10.4c0,4.863,5.059,8.805,8.805,8.805C179.77,60.745,176.348,56.8,176.348,51.94Z" transform="translate(-157.997 -34.298)" fill="#e3a76f"/>
        <path id="Path_980630" data-name="Path 980630" d="M191.251,89.149l1.3-1.33L190.184,86.4Z" transform="translate(-172.9 -77.975)" fill="#8c818f"/>
        <path id="Path_980631" data-name="Path 980631" d="M167.555,72.341c-1.6,2.555,0,7.166,0,7.166l2.848-2.912V74.908c.421.133.856.251,1.3.356l1.8-1.839Z" transform="translate(-152.052 -65.421)" fill="#655e67"/>
        <path id="Path_980632" data-name="Path 980632" d="M305.317,72.341c1.6,2.555,0,7.166,0,7.166l-3.965-4.053Z" transform="translate(-272.203 -65.421)" fill="#8c818f"/>
        <path id="Path_980633" data-name="Path 980633" d="M288.715,72.341l-5.948,1.084,1.984,2.028C287.084,74.921,288.715,73.883,288.715,72.341Z" transform="translate(-255.602 -65.421)" fill="#655e67"/>
        <ellipse id="Ellipse_11607" data-name="Ellipse 11607" cx="11.74" cy="3.202" rx="11.74" ry="3.202" transform="translate(12.568 1.601)" fill="#faf0b0"/>
        <ellipse id="Ellipse_11608" data-name="Ellipse 11608" cx="8.805" cy="2.401" rx="8.805" ry="2.401" transform="translate(14.756 1.281)" fill="#f4c497"/>
        <ellipse id="Ellipse_11609" data-name="Ellipse 11609" cx="8.805" cy="2.401" rx="8.805" ry="2.401" transform="translate(15.503)" fill="#fefae3"/>
      </g>
      <g id="Group_1144384" data-name="Group 1144384" transform="translate(20.741 0)">
        <path id="Path_980634" data-name="Path 980634" d="M23.9,53.4a.8.8,0,0,1-1.33.89,11.081,11.081,0,0,1-1.826-5.115c0-3.426,4.814-12.162,11.065-18.449a18.081,18.081,0,0,1-.332-3.4,8.7,8.7,0,0,1,3.492-7.435,4.105,4.105,0,0,1-1.923-3.609,3.622,3.622,0,0,1,1.093-2.81,2.877,2.877,0,0,1,1.577-.7,9.455,9.455,0,0,1,.224-4.589c-1.607-.635-2.627-1.489-2.627-2.578s1-2.009,2.966-2.706C36.74.62,42.43,0,45.85,0s9.109.62,9.575,2.9c1.969.7,2.966,1.606,2.966,2.706s-1.019,1.943-2.626,2.577a9.152,9.152,0,0,1,.2,4.587,2.891,2.891,0,0,1,1.549.66,3.638,3.638,0,0,1,1.139,2.85,3.908,3.908,0,0,1-3.446,4.1,8.967,8.967,0,0,1-.729,1.911c0,.02.008.041.011.061a19.061,19.061,0,0,1,.162,2.489q0,.755-.057,1.479a35.529,35.529,0,0,1,6.377,5.537A.8.8,0,1,1,59.8,32.94a35.415,35.415,0,0,0-5.278-4.734,13.455,13.455,0,0,1,.132,1.883,10.179,10.179,0,0,1-2.56,7.114,8.343,8.343,0,0,1-1.314,1.142l.315,3.171c3.008.06,6.285.183,9.214.421A38.153,38.153,0,0,1,67,42.917a51.66,51.66,0,0,0-5.259-7.755.8.8,0,0,1,1.238-1.015c4.477,5.465,7.984,12.066,7.984,15.027a11.082,11.082,0,0,1-1.826,5.115A.8.8,0,0,1,67.8,53.4a9.615,9.615,0,0,0,1.555-4.224h0c0-.3-.33-1.34-4.552-2.073q-.46-.08-.965-.152a24.455,24.455,0,0,1,.144,6.994.8.8,0,0,1-1.589-.2,22.356,22.356,0,0,0-.225-7c-1.314-.137-2.81-.243-4.5-.32l1.766,7.229a.789.789,0,1,1-1.538.353l-1.036-4.14H44.006a.8.8,0,1,1,0-1.6H56.472l-.465-1.905q-1.084-.035-2.264-.056a.8.8,0,1,1,.029-1.6,77.816,77.816,0,0,1,11.309.82,16.2,16.2,0,0,1,3.614.981c-.16-.415-.346-.858-.559-1.324l-.012-.024c-.066-.11-.837-1.055-8.042-1.633-2.807-.225-5.934-.344-8.826-.4l.225,2.272a.8.8,0,0,1-.2.618.791.791,0,0,1-.6.262c-1.261-.007-4.437,0-4.83,0s-7.089-.007-10.156.091l-.466,1.906H40.8a.8.8,0,1,1,0,1.6H34.837l-1.018,4.167a.8.8,0,0,1-1.555-.38l1.767-7.231c-1.458.066-4.205.238-4.5.321a22.349,22.349,0,0,0-.225,7,.8.8,0,1,1-1.589.2,24.447,24.447,0,0,1,.144-6.994c-5.081.727-5.516,1.863-5.517,2.225h0A9.624,9.624,0,0,0,23.9,53.4Zm-.313-8.255c-.221.482-.415.939-.579,1.367q.29-.128.617-.245a26.407,26.407,0,0,1,6.031-1.144c4.694-.466,15.8-.455,16.2-.455s3.007,0,3.95,0l-.156-1.575c-1.369-.019-2.656-.026-3.794-.026-3.888,0-9.513.079-14.231.458C24.628,44.085,23.694,44.992,23.585,45.145Zm8.66-12.574A51.557,51.557,0,0,0,24.71,42.916a38.208,38.208,0,0,1,6.68-.979c1.623-.132,3.354-.229,5.086-.3A36.463,36.463,0,0,1,32.245,32.571Zm6.4,3.4v5.59c2.626-.076,5.152-.1,7.2-.1,1.1,0,2.326.006,3.635.024l-.228-2.3a8.729,8.729,0,0,1-3.406.677A8.439,8.439,0,0,1,39.6,37.2,8.809,8.809,0,0,1,38.646,35.974Zm-2.06-15.218c-2.3,1.274-3.511,3.525-3.511,6.566,0,3.584,1.27,7.491,3.97,12.15V30.089a13.39,13.39,0,0,1,.2-2.3.81.81,0,0,1,.023-.095,17.921,17.921,0,0,1-.221-2.855,19.036,19.036,0,0,1,.168-2.529A8.951,8.951,0,0,1,36.585,20.756Zm2.29,11.568a7.063,7.063,0,0,0,13.943.025,9.326,9.326,0,0,1-2.7,2.965A.8.8,0,1,1,49.2,34c2.412-1.67,3.852-5.1,3.852-9.162q0-.227-.006-.454a11.625,11.625,0,0,1-1.63,1.536c-.3,4.525-2.512,7.544-5.569,7.544s-5.272-3.02-5.569-7.545q-.4-.31-.781-.658a11.707,11.707,0,0,1-.849-.865q-.005.221-.006.443c0,5.926,3.03,10.226,7.2,10.226a5.83,5.83,0,0,0,.779-.052.8.8,0,1,1,.215,1.587,7.453,7.453,0,0,1-.994.066,7.831,7.831,0,0,1-6.3-3.327A10.654,10.654,0,0,1,38.876,32.324Zm3.138-5.3c.475,2.946,1.931,4.837,3.836,4.837s3.359-1.889,3.835-4.832a7.707,7.707,0,0,1-7.671,0Zm3.836-.576a8.381,8.381,0,0,0,5.266-2.368,7.76,7.76,0,0,0,2.739-5.637v-3.23l-1.972-1.977a3.189,3.189,0,0,0-3.17,0A.8.8,0,1,1,47.581,12.1a3.734,3.734,0,0,1,2.368-.884L48.3,9.537a43.471,43.471,0,0,1-4.905,0L41.751,11.22a3.735,3.735,0,0,1,2.368.884.8.8,0,1,1-1.132,1.132,3.189,3.189,0,0,0-3.17,0l-1.972,1.977v3.23a7.76,7.76,0,0,0,2.739,5.637A8.381,8.381,0,0,0,45.85,26.447Zm9.606-11.618v3.613q0,.127,0,.254a2.374,2.374,0,0,0,1.605-2.419,2.1,2.1,0,0,0-.574-1.63,1.378,1.378,0,0,0-.877-.3C55.544,14.556,55.491,14.721,55.455,14.829Zm-19.406-.483a1.352,1.352,0,0,0-.851.319,2.124,2.124,0,0,0-.554,1.613,2.374,2.374,0,0,0,1.6,2.419q0-.127,0-.254V15.015C36.2,14.879,36.13,14.649,36.049,14.347ZM37.46,8.675a8.844,8.844,0,0,0-.014,4.656l3.879-3.966a26.567,26.567,0,0,1-3.865-.69Zm12.913.69L54.223,13.3a8.353,8.353,0,0,0,.018-4.626A26.558,26.558,0,0,1,50.374,9.365ZM36.8,4.41C35.245,4.963,34.91,5.484,34.91,5.6c0,.151.483.847,2.849,1.492A32.182,32.182,0,0,0,45.85,8a32.182,32.182,0,0,0,8.091-.91c2.365-.645,2.849-1.341,2.849-1.492,0-.12-.335-.641-1.888-1.193C53.329,5.953,48.765,6.4,45.85,6.4a30.1,30.1,0,0,1-4.278-.293A.8.8,0,1,1,41.8,4.526,28.474,28.474,0,0,0,45.85,4.8a24.89,24.89,0,0,0,5.712-.6,4.413,4.413,0,0,0,2.279-1,4.412,4.412,0,0,0-2.279-1,24.89,24.89,0,0,0-5.712-.6,24.89,24.89,0,0,0-5.712.6,4.434,4.434,0,0,0-2.277,1,2.284,2.284,0,0,0,.988.6.8.8,0,0,1-.6,1.485A4.424,4.424,0,0,1,36.8,4.41ZM45.85,23.88a4.789,4.789,0,0,1-2.517-.769.8.8,0,0,1,.9-1.322,2.9,2.9,0,0,0,3.225,0,.8.8,0,0,1,.906,1.32,4.791,4.791,0,0,1-2.517.769Zm0-4.8a.984.984,0,0,0,.442-.132.8.8,0,1,1,.906,1.32,2.407,2.407,0,0,1-2.7,0,.8.8,0,1,1,.906-1.32.982.982,0,0,0,.442.132Zm3.808-1.161a.8.8,0,0,1-.8-.8v-1.7a.8.8,0,0,1,1.6,0v1.7A.8.8,0,0,1,49.658,17.917Zm-7.471,0a.8.8,0,0,1-.8-.8v-1.7a.8.8,0,1,1,1.6,0v1.7A.8.8,0,0,1,42.187,17.917Z" transform="translate(-20.741 0)"/>
      </g>
    </g>
  </g>
</svg>
