<svg xmlns="http://www.w3.org/2000/svg" xmlns:xlink="http://www.w3.org/1999/xlink" width="108" height="108" viewBox="0 0 108 108">
  <defs>
    <filter id="Fondo" x="0" y="0" width="108" height="108" filterUnits="userSpaceOnUse">
      <feOffset dy="3" input="SourceAlpha"/>
      <feGaussianBlur stdDeviation="3" result="blur"/>
      <feFlood flood-opacity="0.161"/>
      <feComposite operator="in" in2="blur"/>
      <feComposite in="SourceGraphic"/>
    </filter>
  </defs>
  <g id="Group_1144498" data-name="Group 1144498" transform="translate(-746 -3124)">
    <g id="Group_1144256" data-name="Group 1144256">
      <g id="Icono" transform="translate(420.28 2435)">
        <g transform="matrix(1, 0, 0, 1, 325.72, 689)" filter="url(#Fondo)">
          <g id="Fondo-2" data-name="Fondo" transform="translate(9 6)" fill="#f1fef9" stroke="#43896d" stroke-width="3">
            <circle cx="45" cy="45" r="45" stroke="none"/>
            <circle cx="45" cy="45" r="43.5" fill="none"/>
          </g>
        </g>
      </g>
      <g id="Group_1144255" data-name="Group 1144255" transform="translate(771.298 3141.298)">
        <path id="Path_980100" data-name="Path 980100" d="M421.227,404.545v5.045h-3.363L414.5,399.5Z" transform="translate(-368.028 -354.71)" fill="#ffc266"/>
        <path id="Path_980101" data-name="Path 980101" d="M37.5,337.954V343H83.131V324.5Z" transform="translate(-33.296 -288.118)" fill="#ffd966"/>
        <path id="Path_980102" data-name="Path 980102" d="M414.5,202.5h6.727v6.727H414.5Z" transform="translate(-368.028 -179.796)" fill="#ffc266"/>
        <path id="Path_980103" data-name="Path 980103" d="M37.5,202.5H83.131v6.727H37.5Z" transform="translate(-33.296 -179.796)" fill="#ffd966"/>
        <path id="Path_980104" data-name="Path 980104" d="M324.5,262.5l13.454,20.405h3.363V262.5Z" transform="translate(-288.118 -233.07)" fill="#ffab5c"/>
        <path id="Path_980105" data-name="Path 980105" d="M37.5,262.5v20.405H83.131v-3.363l-1.682-1.682v-6.951h1.682V262.5Z" transform="translate(-33.296 -233.07)" fill="#ffc266"/>
        <path id="Path_980106" data-name="Path 980106" d="M67.5,324.182v8.633h3.363v-8.633a1.682,1.682,0,0,0-3.363,0Z" transform="translate(-59.932 -286.343)" fill="#ad6549"/>
        <path id="Path_980107" data-name="Path 980107" d="M417.863,324.182v8.633H414.5v-8.633a1.682,1.682,0,0,1,3.363,0Z" transform="translate(-368.028 -286.343)" fill="#ad6549"/>
        <path id="Path_980108" data-name="Path 980108" d="M157.5,277.5h22.087v23.769H157.5Z" transform="translate(-139.842 -246.388)" fill="#ffd966"/>
        <path id="Path_980109" data-name="Path 980109" d="M312.863,7.5H309.5l1.682,6.727h1.682a1.682,1.682,0,0,1,1.682,1.682V9.182A1.682,1.682,0,0,0,312.863,7.5Z" transform="translate(-274.8 -6.659)" fill="#ff5474"/>
        <path id="Path_980110" data-name="Path 980110" d="M262,7.5h-6v6.727h7.68V9.182A1.682,1.682,0,0,0,262,7.5Z" transform="translate(-227.298 -6.659)" fill="#ff7a94"/>
        <path id="Path_980111" data-name="Path 980111" d="M312.863,67.5h-1.682L309.5,70.863h3.363a1.682,1.682,0,1,0,0-3.363Z" transform="translate(-274.8 -59.932)" fill="#f23a5d"/>
        <path id="Path_980112" data-name="Path 980112" d="M297.863,69.182V67.5H294.5v3.363h1.682A1.682,1.682,0,0,0,297.863,69.182Z" transform="translate(-261.482 -59.932)" fill="#ff5474"/>
        <path id="Path_980113" data-name="Path 980113" d="M237.863,337.5l-3.363,8.409,6.727-3.363V337.5Z" transform="translate(-208.209 -299.661)" fill="#fff5d6"/>
        <path id="Path_980114" data-name="Path 980114" d="M222.769,337.5v8.409l-5.269-3.363V337.5Z" transform="translate(-193.115 -299.661)" fill="#fff"/>
        <path id="Path_980115" data-name="Path 980115" d="M226.133,382.5v12H217.5l5.269-12Z" transform="translate(-193.115 -339.616)" fill="#ad6549"/>
        <path id="Path_980116" data-name="Path 980116" d="M217.5,382.5h5.269v12H217.5Z" transform="translate(-193.115 -339.616)" fill="#c7785a"/>
        <path id="Path_980117" data-name="Path 980117" d="M447.863,187.5H444.5v3.363h3.363a1.682,1.682,0,0,0,0-3.363Z" transform="translate(-394.664 -166.478)" fill="#ffd966"/>
        <path id="Path_980118" data-name="Path 980118" d="M142.5,292.5h5.045v22.087H142.5Z" transform="translate(-126.523 -259.706)" fill="#ffe8a3"/>
        <path id="Path_980119" data-name="Path 980119" d="M127.5,292.5h3.363v22.087H127.5Z" transform="translate(-113.205 -259.706)" fill="#fff5d6"/>
        <path id="Path_980120" data-name="Path 980120" d="M157.5,262.5v5.045h3.363a3.363,3.363,0,0,0,3.363-3.363V262.5Z" transform="translate(-139.842 -233.07)" fill="#fff5d6"/>
        <path id="Path_980121" data-name="Path 980121" d="M107.59,264.182V262.5H97.5v1.682a3.363,3.363,0,0,0,3.363,3.363h3.363A3.363,3.363,0,0,0,107.59,264.182Z" transform="translate(-86.569 -233.07)" fill="#fff"/>
        <path id="Path_980122" data-name="Path 980122" d="M339.5,292.5h5.045v22.087H339.5Z" transform="translate(-301.437 -259.706)" fill="#ffe8a3"/>
        <path id="Path_980123" data-name="Path 980123" d="M324.5,292.5h3.363v22.087H324.5Z" transform="translate(-288.118 -259.706)" fill="#fff5d6"/>
        <path id="Path_980124" data-name="Path 980124" d="M354.5,262.5v5.045h3.363a3.363,3.363,0,0,0,3.363-3.363V262.5Z" transform="translate(-314.755 -233.07)" fill="#fff5d6"/>
        <path id="Path_980125" data-name="Path 980125" d="M304.59,264.182V262.5H294.5v1.682a3.363,3.363,0,0,0,3.363,3.363h3.363A3.363,3.363,0,0,0,304.59,264.182Z" transform="translate(-261.482 -233.07)" fill="#fff"/>
        <path id="Path_980126" data-name="Path 980126" d="M447.863,247.5H444.5v3.363h3.363a1.682,1.682,0,0,0,0-3.363Z" transform="translate(-394.664 -219.751)" fill="#ffd966"/>
        <g id="Group_1144254" data-name="Group 1144254" transform="translate(2.523 21.022)">
          <path id="Path_980127" data-name="Path 980127" d="M71.495,249.182a1.682,1.682,0,0,0-1.682-1.682H24.182a1.682,1.682,0,1,0,0,3.363H69.813A1.682,1.682,0,0,0,71.495,249.182Z" transform="translate(-22.5 -240.773)" fill="#ffe8a3"/>
          <path id="Path_980128" data-name="Path 980128" d="M69.813,187.5H24.182a1.682,1.682,0,0,0,0,3.363H69.813a1.682,1.682,0,0,0,0-3.363Z" transform="translate(-22.5 -187.5)" fill="#ffe8a3"/>
          <path id="Path_980129" data-name="Path 980129" d="M447.863,474.5H444.5l3.363,3.364h3.363A3.363,3.363,0,0,0,447.863,474.5Z" transform="translate(-397.187 -442.323)" fill="#ffe8a3"/>
        </g>
        <path id="Path_980130" data-name="Path 980130" d="M56.495,474.5H10.863A3.363,3.363,0,0,0,7.5,477.864H59.858A3.363,3.363,0,0,0,56.495,474.5Z" transform="translate(-6.659 -421.301)" fill="#fff5d6"/>
        <path id="Path_980131" data-name="Path 980131" d="M133.041,120.909l-17.77,5.045L97.5,120.909l17.77-8.409Z" transform="translate(-86.569 -99.887)" fill="#ffe8a3"/>
        <path id="Path_980132" data-name="Path 980132" d="M97.5,187.5h35.541v6.727H97.5Z" transform="translate(-86.569 -166.478)" fill="#fff5d6"/>
        <path id="Path_980133" data-name="Path 980133" d="M54.04,52.443V31.808a2.522,2.522,0,0,0,0-4.756V25.081a2.522,2.522,0,0,0-.841-4.9H46.661l-17.118-8.1V8.409h2.635v2.523a.841.841,0,0,0,.841.841h5.045A2.525,2.525,0,0,0,40.586,9.25V2.523A2.525,2.525,0,0,0,38.063,0H28.7a.841.841,0,0,0-.841.841v11.24l-17.118,8.1H4.2a2.522,2.522,0,0,0-.841,4.9v1.971a2.522,2.522,0,0,0,0,4.756V41.2a.841.841,0,0,0,1.682,0v-9.25h5.13a4.217,4.217,0,0,0,3.279,3.279V48.995H5.045V44.566a.841.841,0,1,0-1.682,0v7.877A4.211,4.211,0,0,0,0,56.563a.841.841,0,0,0,.841.841H56.563a.841.841,0,0,0,.841-.841A4.211,4.211,0,0,0,54.04,52.443ZM36.382,43.725a.841.841,0,0,0-.841.841v7.792H33.859V37.839A.841.841,0,0,0,33.018,37H24.385a.841.841,0,0,0-.841.841V52.358H21.863V35.232a4.217,4.217,0,0,0,3.279-3.279h7.12a4.217,4.217,0,0,0,3.279,3.279V41.2a.841.841,0,1,0,1.682,0V35.317h5.045V52.358H37.222V44.566A.841.841,0,0,0,36.382,43.725Zm-4.2-1.682H25.226V38.68h6.951Zm-6.951,1.682h6.951v8.633H25.226Zm-5.045-8.409V52.358H15.136V35.317ZM52.358,48.995H43.949V35.232a4.217,4.217,0,0,0,3.279-3.279h5.13Zm-9.25-15.36H36.382A2.527,2.527,0,0,1,34,31.953H45.487a2.527,2.527,0,0,1-2.378,1.682Zm.841,17.042h8.409v1.682H43.949ZM10.09,25.226v1.682H5.045V25.226Zm1.682-3.363H45.631v5.045H11.772Zm35.541,3.363h5.045v1.682H47.313ZM54.04,22.7a.842.842,0,0,1-.841.841H47.313V21.863H53.2A.842.842,0,0,1,54.04,22.7ZM38.063,10.09h-4.2V8.409h4.2a.841.841,0,1,1,0,1.682Zm0-8.409a.842.842,0,0,1,.841.841V6.872a2.509,2.509,0,0,0-.841-.145H29.543V1.682ZM28.7,13.543l14.027,6.638H14.674ZM4.2,21.863H10.09v1.682H4.2a.841.841,0,0,1,0-1.682Zm0,6.727H53.2a.841.841,0,1,1,0,1.682H4.2a.841.841,0,1,1,0-1.682Zm7.712,3.363H23.4a2.527,2.527,0,0,1-2.378,1.682H14.295A2.527,2.527,0,0,1,11.917,31.953Zm1.537,18.723v1.682H5.045V50.676ZM1.826,55.722A2.527,2.527,0,0,1,4.2,54.04H53.2a2.527,2.527,0,0,1,2.379,1.682Z"/>
        <path id="Path_980134" data-name="Path 980134" d="M64.2,327a.841.841,0,0,0,.841-.841v-8.633a2.523,2.523,0,0,0-5.045,0v8.633a.841.841,0,0,0,.841.841Zm-2.523-9.474a.841.841,0,1,1,1.682,0v7.792H61.682Z" transform="translate(-53.273 -279.683)"/>
        <path id="Path_980135" data-name="Path 980135" d="M407,317.523v8.633a.841.841,0,0,0,.841.841H411.2a.841.841,0,0,0,.841-.841v-8.633a2.523,2.523,0,0,0-5.045,0Zm3.363,0v7.792h-1.682v-7.792a.841.841,0,0,1,1.682,0Z" transform="translate(-361.369 -279.683)"/>
      </g>
    </g>
  </g>
</svg>
