<svg xmlns="http://www.w3.org/2000/svg" xmlns:xlink="http://www.w3.org/1999/xlink" width="108" height="108" viewBox="0 0 108 108">
  <defs>
    <filter id="Path_904820" x="0" y="0" width="108" height="108" filterUnits="userSpaceOnUse">
      <feOffset dy="3" input="SourceAlpha"/>
      <feGaussianBlur stdDeviation="3" result="blur"/>
      <feFlood flood-opacity="0.161"/>
      <feComposite operator="in" in2="blur"/>
      <feComposite in="SourceGraphic"/>
    </filter>
  </defs>
  <g id="Group_1144515" data-name="Group 1144515" transform="translate(-201 -9974)">
    <g id="Group_1144317" data-name="Group 1144317">
      <g transform="matrix(1, 0, 0, 1, 201, 9974)" filter="url(#Path_904820)">
        <g id="Path_904820-2" data-name="Path 904820" transform="translate(9 6)" fill="#ecf4fa">
          <path d="M 45 88.5 C 39.12687683105469 88.5 33.43022537231445 87.35007476806641 28.06830024719238 85.08217620849609 C 22.88852500915527 82.89131164550781 18.23629951477051 79.75458526611328 14.2408504486084 75.75914764404297 C 10.24541282653809 71.76370239257812 7.108687400817871 67.11147308349609 4.917825222015381 61.93170166015625 C 2.649924993515015 56.56977462768555 1.5 50.87312316894531 1.5 45 C 1.5 39.12687683105469 2.649924993515015 33.43022537231445 4.917825222015381 28.06830024719238 C 7.108687400817871 22.88852500915527 10.24541282653809 18.23629951477051 14.2408504486084 14.2408504486084 C 18.23629951477051 10.24541282653809 22.88852500915527 7.108687400817871 28.06830024719238 4.917825222015381 C 33.43022537231445 2.649924993515015 39.12687683105469 1.5 45 1.5 C 50.87312316894531 1.5 56.56977462768555 2.649924993515015 61.93170166015625 4.917825222015381 C 67.11147308349609 7.108687400817871 71.76370239257812 10.24541282653809 75.75914764404297 14.2408504486084 C 79.75458526611328 18.23629951477051 82.89131164550781 22.88852500915527 85.08217620849609 28.06830024719238 C 87.35007476806641 33.43022537231445 88.5 39.12687683105469 88.5 45 C 88.5 50.87312316894531 87.35007476806641 56.56977462768555 85.08217620849609 61.93170166015625 C 82.89131164550781 67.11147308349609 79.75458526611328 71.76370239257812 75.75914764404297 75.75914764404297 C 71.76370239257812 79.75458526611328 67.11147308349609 82.89131164550781 61.93170166015625 85.08217620849609 C 56.56977462768555 87.35007476806641 50.87312316894531 88.5 45 88.5 Z" stroke="none"/>
          <path d="M 45 3 C 39.32871246337891 3 33.82865524291992 4.110054016113281 28.65262985229492 6.299339294433594 C 23.65165710449219 8.414573669433594 19.15968322753906 11.44334411621094 15.301513671875 15.301513671875 C 11.44334411621094 19.15968322753906 8.414573669433594 23.65165710449219 6.299339294433594 28.65262985229492 C 4.110054016113281 33.82865524291992 3 39.32871246337891 3 45 C 3 50.67128753662109 4.110054016113281 56.17134475708008 6.299339294433594 61.34737396240234 C 8.414573669433594 66.34834289550781 11.44334411621094 70.84031677246094 15.301513671875 74.698486328125 C 19.15968322753906 78.55665588378906 23.65165710449219 81.58542633056641 28.65262985229492 83.70066070556641 C 33.82865524291992 85.88994598388672 39.32871246337891 87 45 87 C 50.67128753662109 87 56.17134475708008 85.88994598388672 61.34737396240234 83.70066070556641 C 66.34834289550781 81.58542633056641 70.84031677246094 78.55665588378906 74.698486328125 74.698486328125 C 78.55665588378906 70.84031677246094 81.58542633056641 66.34834289550781 83.70066070556641 61.34737396240234 C 85.88994598388672 56.17134475708008 87 50.67128753662109 87 45 C 87 39.32871246337891 85.88994598388672 33.82865524291992 83.70066070556641 28.65262985229492 C 81.58542633056641 23.65165710449219 78.55665588378906 19.15968322753906 74.698486328125 15.301513671875 C 70.84031677246094 11.44334411621094 66.34834289550781 8.414573669433594 61.34737396240234 6.299339294433594 C 56.17134475708008 4.110054016113281 50.67128753662109 3 45 3 M 45 0 C 69.85281372070312 0 90 20.14718627929688 90 45 C 90 69.85281372070312 69.85281372070312 90 45 90 C 20.14718627929688 90 0 69.85281372070312 0 45 C 0 20.14718627929688 20.14718627929688 0 45 0 Z" stroke="none" fill="#2a5673"/>
        </g>
      </g>
      <g id="Group_1144316" data-name="Group 1144316" transform="translate(224.358 9975.738)">
        <path id="Path_980394" data-name="Path 980394" d="M28.715,106.6a1.063,1.063,0,0,0-1.333.045l-7.415,6.1a3.313,3.313,0,0,1-4.2,0l-7.427-6.1a1.063,1.063,0,0,0-1.333-.045,1.025,1.025,0,0,0-.157,1.456l6.53,7.919a1.7,1.7,0,0,1,.381,1.075l-.022,5.5-2.229,14.237a1.366,1.366,0,0,0,2.621.728l3.73-10.305,3.719,10.249a1.364,1.364,0,0,0,2.644-.627l-2.24-14.282-.022-5.5a1.7,1.7,0,0,1,.381-1.075l6.53-7.919A1.034,1.034,0,0,0,28.715,106.6Z" transform="translate(-5.15 -75.381)" fill="#f9cfcf"/>
        <path id="Path_980395" data-name="Path 980395" d="M85.04,92.292a3.17,3.17,0,0,1-6.34,0A3.17,3.17,0,0,1,85.04,92.292Z" transform="translate(-69.16 -60.072)" fill="#f9a8a7"/>
        <path id="Path_980396" data-name="Path 980396" d="M42.759,395.839H24.613a.213.213,0,0,1-.213-.213v-3.013a.213.213,0,0,1,.213-.213H42.759a.213.213,0,0,1,.213.213v3.013A.213.213,0,0,1,42.759,395.839Z" transform="translate(-20.942 -329.354)" fill="#ffb53e"/>
        <path id="Path_980397" data-name="Path 980397" d="M42.759,426.639H24.613a.213.213,0,0,1-.213-.213v-3.013a.213.213,0,0,1,.213-.213H42.759a.213.213,0,0,1,.213.213v3.013A.206.206,0,0,1,42.759,426.639Z" transform="translate(-20.942 -356.704)" fill="#ffc878"/>
        <path id="Path_980398" data-name="Path 980398" d="M42.759,457.539H24.613a.213.213,0,0,1-.213-.213v-3.013a.213.213,0,0,1,.213-.213H42.759a.213.213,0,0,1,.213.213v3.013A.213.213,0,0,1,42.759,457.539Z" transform="translate(-20.942 -384.143)" fill="#ffb53e"/>
        <path id="Path_980399" data-name="Path 980399" d="M340.459,334.239H322.313a.213.213,0,0,1-.213-.213v-3.013a.213.213,0,0,1,.213-.213h18.146a.213.213,0,0,1,.213.213v3.013A.206.206,0,0,1,340.459,334.239Z" transform="translate(-285.296 -274.654)" fill="#ffb53e"/>
        <path id="Path_980400" data-name="Path 980400" d="M340.459,365.039H322.313a.213.213,0,0,1-.213-.213v-3.013a.213.213,0,0,1,.213-.213h18.146a.213.213,0,0,1,.213.213v3.013A.206.206,0,0,1,340.459,365.039Z" transform="translate(-285.296 -302.004)" fill="#ffc878"/>
        <path id="Path_980401" data-name="Path 980401" d="M340.459,395.839H322.313a.213.213,0,0,1-.213-.213v-3.013a.213.213,0,0,1,.213-.213h18.146a.213.213,0,0,1,.213.213v3.013A.206.206,0,0,1,340.459,395.839Z" transform="translate(-285.296 -329.354)" fill="#ffb53e"/>
        <path id="Path_980402" data-name="Path 980402" d="M340.459,426.639H322.313a.213.213,0,0,1-.213-.213v-3.013a.213.213,0,0,1,.213-.213h18.146a.213.213,0,0,1,.213.213v3.013A.2.2,0,0,1,340.459,426.639Z" transform="translate(-285.296 -356.704)" fill="#ffc878"/>
        <path id="Path_980403" data-name="Path 980403" d="M340.459,457.539H322.313a.213.213,0,0,1-.213-.213v-3.013a.213.213,0,0,1,.213-.213h18.146a.213.213,0,0,1,.213.213v3.013A.206.206,0,0,1,340.459,457.539Z" transform="translate(-285.296 -384.143)" fill="#ffb53e"/>
        <path id="Path_980404" data-name="Path 980404" d="M326.8,44.9a1.063,1.063,0,0,0-1.333.045l-7.415,6.1a3.313,3.313,0,0,1-4.2,0l-7.415-6.1a1.063,1.063,0,0,0-1.333-.045,1.025,1.025,0,0,0-.157,1.456l6.53,7.919a1.7,1.7,0,0,1,.381,1.075l-.022,5.5-2.229,14.237a1.366,1.366,0,0,0,2.621.728l3.73-10.305,3.719,10.249a1.364,1.364,0,0,0,2.643-.627l-2.24-14.282-.022-5.5a1.7,1.7,0,0,1,.381-1.075l6.53-7.919A1.037,1.037,0,0,0,326.8,44.9Z" transform="translate(-269.859 -20.592)" fill="#f9cfcf"/>
        <path id="Path_980405" data-name="Path 980405" d="M383.04,30.592a3.17,3.17,0,0,1-6.34,0A3.17,3.17,0,0,1,383.04,30.592Z" transform="translate(-333.78 -5.284)" fill="#f9a8a7"/>
        <path id="Path_980406" data-name="Path 980406" d="M198.69,229.542a7.207,7.207,0,1,1-14.338-1.042,7.216,7.216,0,0,0,14.271,0A10.386,10.386,0,0,1,198.69,229.542Z" transform="translate(-162.906 -183.813)" fill="#ffb53e"/>
        <path id="Path_980407" data-name="Path 980407" d="M199.171,179.572a7.21,7.21,0,0,1-14.271,0,7.21,7.21,0,0,1,14.271,0Z" transform="translate(-163.464 -134.885)" fill="#ffc878"/>
        <path id="Path_980408" data-name="Path 980408" d="M228.016,198.666v-2.151h1.423a.638.638,0,0,0,.638-.638.645.645,0,0,0-.638-.638h-1.411a.661.661,0,1,0-1.277.034,2.332,2.332,0,0,0,0,4.626v2.151h-1.411a.638.638,0,1,0,0,1.277h1.411a.661.661,0,1,0,1.277-.034,2.332,2.332,0,0,0-.011-4.626Zm-2.05-1.087a1.058,1.058,0,0,1,.773-1.019V198.6A1.069,1.069,0,0,1,225.966,197.579Zm2.05,4.413v-2.039A1.062,1.062,0,0,1,228.016,201.993Z" transform="translate(-198.806 -153.553)" fill="#f8fafb"/>
        <g id="Group_1144315" data-name="Group 1144315" transform="translate(0.816 21.5)">
          <path id="Path_980409" data-name="Path 980409" d="M7.737,111.261a1.038,1.038,0,0,1,.235.661l-.022,5.455L5.72,131.558a2.088,2.088,0,0,0,.123,1.087H4.7a1.886,1.886,0,0,0-1.882,1.882c-.011.706-.078,1.68.482,2.207-.56.526-.493,1.5-.482,2.207a1.866,1.866,0,0,0,.482,1.243c-.56.526-.493,1.5-.482,2.207A1.886,1.886,0,0,0,4.7,144.271H20.786a1.886,1.886,0,0,0,1.882-1.882c0-.706.078-1.68-.482-2.207.56-.526.493-1.5.482-2.207a1.866,1.866,0,0,0-.482-1.243c.56-.526.493-1.5.482-2.207a1.886,1.886,0,0,0-1.882-1.882h-1.21a2.022,2.022,0,0,0,.123-1.031l-2.229-14.237-.034-5.455a1.016,1.016,0,0,1,.235-.661l6.53-7.919a1.689,1.689,0,0,0-.246-2.375,1.719,1.719,0,0,0-2.139.056l-7.415,6.1a2.682,2.682,0,0,1-3.383,0l-7.415-6.1a1.675,1.675,0,0,0-2.4,2.319l6.53,7.919ZM21.391,142.39a.6.6,0,0,1-.6.6H4.7a.6.6,0,0,1-.6-.6c.045-.538-.224-1.535.6-1.568H20.786a.6.6,0,0,1,.6.6Zm0-3.45a.6.6,0,0,1-.6.6H4.7a.6.6,0,0,1-.6-.6c.045-.538-.224-1.535.6-1.568H20.786a.6.6,0,0,1,.6.6Zm-.6-5.018a.6.6,0,0,1,.6.6v.963a.6.6,0,0,1-.6.6H4.7a.6.6,0,0,1-.6-.6v-.963a.6.6,0,0,1,.6-.6ZM9.562,132.644c.022-.022,3.136-8.647,3.148-8.681.09.235,3.036,8.435,3.148,8.681Zm-7.3-30.681a.426.426,0,0,1,.526.045l7.415,6.1a3.98,3.98,0,0,0,5.018,0l7.415-6.1a.394.394,0,0,1,.594.515l-6.53,7.919a2.3,2.3,0,0,0-.526,1.479l.034,5.5c-.011.09,2.24,14.282,2.24,14.383a.725.725,0,0,1-1.411.314l-3.719-10.249a.643.643,0,0,0-1.21,0l-3.73,10.305a.726.726,0,0,1-1.389-.4l2.229-14.237c0-.034.011-.067.011-.1l.022-5.5a2.3,2.3,0,0,0-.526-1.479l-6.53-7.919a.409.409,0,0,1,.067-.571Z" transform="translate(-0.816 -91.748)" fill="#231f20"/>
          <path id="Path_980410" data-name="Path 980410" d="M77.1,90.817a3.809,3.809,0,0,0,0-7.617A3.809,3.809,0,0,0,77.1,90.817Zm0-6.34a2.526,2.526,0,0,1,0,5.052A2.526,2.526,0,0,1,77.1,84.477Z" transform="translate(-65.203 -76.289)" fill="#231f20"/>
          <path id="Path_980411" data-name="Path 980411" d="M305.833,49.571a1.038,1.038,0,0,1,.235.661l-.034,5.455-2.218,14.181a2.088,2.088,0,0,0,.123,1.087h-1.176a1.886,1.886,0,0,0-1.882,1.882c-.011.706-.078,1.68.482,2.207-.56.526-.493,1.5-.482,2.207a1.866,1.866,0,0,0,.482,1.243c-.56.526-.493,1.5-.482,2.207a1.866,1.866,0,0,0,.482,1.243c-.56.526-.493,1.5-.482,2.207a1.866,1.866,0,0,0,.482,1.243c-.56.526-.493,1.5-.482,2.207a1.886,1.886,0,0,0,1.882,1.882h16.085a1.886,1.886,0,0,0,1.882-1.882c0-.706.078-1.68-.482-2.207.56-.526.493-1.5.482-2.207a1.866,1.866,0,0,0-.482-1.243c.56-.526.493-1.5.482-2.207a1.866,1.866,0,0,0-.482-1.243c.56-.526.493-1.5.482-2.207a1.866,1.866,0,0,0-.482-1.243c.56-.526.493-1.5.482-2.207a1.886,1.886,0,0,0-1.882-1.882h-1.176a2.022,2.022,0,0,0,.123-1.031l-2.229-14.237-.022-5.455a1.038,1.038,0,0,1,.235-.661l6.53-7.919a1.675,1.675,0,0,0-2.4-2.319l-7.415,6.1a2.667,2.667,0,0,1-3.383,0l-7.415-6.1a1.669,1.669,0,0,0-2.4,2.307Zm13.632,38.04a.6.6,0,0,1-.6.6h-16.1a.6.6,0,0,1-.6-.6c.045-.538-.224-1.535.6-1.568h16.085a.6.6,0,0,1,.6.6v.963Zm0-3.45a.6.6,0,0,1-.6.6h-16.1a.6.6,0,0,1-.6-.6c.045-.538-.224-1.535.6-1.568h16.085a.6.6,0,0,1,.6.6v.963Zm0-3.45a.6.6,0,0,1-.6.6h-16.1a.6.6,0,0,1-.6-.6c.045-.538-.224-1.535.6-1.568h16.085a.6.6,0,0,1,.6.6v.963Zm0-3.45a.6.6,0,0,1-.6.6h-16.1a.6.6,0,0,1-.6-.6c.045-.538-.224-1.535.6-1.568h16.085a.6.6,0,0,1,.6.6v.963Zm-.616-5.029a.6.6,0,0,1,.6.6V73.8a.6.6,0,0,1-.6.6H302.764a.6.6,0,0,1-.6-.6v-.963a.6.6,0,0,1,.6-.6Zm-11.19-1.277c.022-.022,3.136-8.647,3.148-8.681.1.235,3.036,8.423,3.159,8.681Zm-7.3-30.669a.427.427,0,0,1,.526.045l7.415,6.1a3.98,3.98,0,0,0,5.018,0l7.415-6.1a.394.394,0,0,1,.594.515l-6.53,7.919a2.3,2.3,0,0,0-.526,1.479l.022,5.5c-.011.09,2.24,14.282,2.24,14.383a.725.725,0,0,1-1.411.314L311.4,60.19a.643.643,0,0,0-1.21,0L306.46,70.5a.726.726,0,0,1-1.389-.4L307.3,55.855c0-.034.011-.067.011-.1l.034-5.5a2.361,2.361,0,0,0-.526-1.479L300.3,40.834a.381.381,0,0,1,.056-.549Z" transform="translate(-265.532 -36.97)" fill="#231f20"/>
          <path id="Path_980412" data-name="Path 980412" d="M375.1,29.117a3.809,3.809,0,0,0,0-7.617A3.809,3.809,0,0,0,375.1,29.117Zm0-6.34a2.526,2.526,0,0,1,0,5.052A2.526,2.526,0,0,1,375.1,22.777Z" transform="translate(-329.823 -21.5)" fill="#231f20"/>
          <path id="Path_980413" data-name="Path 980413" d="M178.5,175.552a7.862,7.862,0,0,0,7.852,7.852c10.417-.426,10.417-15.279,0-15.7A7.862,7.862,0,0,0,178.5,175.552Zm7.852-6.575a6.57,6.57,0,1,1-6.564,6.575A6.585,6.585,0,0,1,186.352,168.977Z" transform="translate(-158.597 -151.324)" fill="#231f20"/>
          <path id="Path_980414" data-name="Path 980414" d="M225.205,201.949a.639.639,0,0,0,0,1.277h1.411a.661.661,0,1,0,1.277-.034,2.332,2.332,0,0,0,0-4.626v-2.151h1.434a.638.638,0,0,0,.638-.638.646.646,0,0,0-.638-.638h-1.411a.661.661,0,1,0-1.277.034,2.332,2.332,0,0,0,0,4.626v2.151Zm2.7-2.072a1.062,1.062,0,0,1,0,2.039Zm-2.05-2.386a1.058,1.058,0,0,1,.773-1.019v2.039A1.069,1.069,0,0,1,225.855,197.491Z" transform="translate(-199.511 -174.965)" fill="#231f20"/>
        </g>
      </g>
    </g>
  </g>
</svg>
