<svg xmlns="http://www.w3.org/2000/svg" xmlns:xlink="http://www.w3.org/1999/xlink" width="108" height="108" viewBox="0 0 108 108">
  <defs>
    <filter id="Fondo" x="0" y="0" width="108" height="108" filterUnits="userSpaceOnUse">
      <feOffset dy="3" input="SourceAlpha"/>
      <feGaussianBlur stdDeviation="3" result="blur"/>
      <feFlood flood-opacity="0.161"/>
      <feComposite operator="in" in2="blur"/>
      <feComposite in="SourceGraphic"/>
    </filter>
  </defs>
  <g id="Group_1144501" data-name="Group 1144501" transform="translate(-326 -4449)">
    <g id="Group_1144270" data-name="Group 1144270">
      <g id="Icono" transform="translate(0.28 3760)">
        <g transform="matrix(1, 0, 0, 1, 325.72, 689)" filter="url(#Fondo)">
          <g id="Fondo-2" data-name="Fondo" transform="translate(9 6)" fill="#f1fef9" stroke="#43896d" stroke-width="3">
            <circle cx="45" cy="45" r="45" stroke="none"/>
            <circle cx="45" cy="45" r="43.5" fill="none"/>
          </g>
        </g>
      </g>
      <g id="Group_1144269" data-name="Group 1144269" transform="translate(353.403 4460.426)">
        <g id="Group_1144268" data-name="Group 1144268" transform="translate(0.779 13.029)">
          <path id="Path_980188" data-name="Path 980188" d="M19.7,431a4.835,4.835,0,0,0-2.627.786c-1.141.739-2.39,1.3-5.554,1.3a2.155,2.155,0,0,0-1.1.3,5.141,5.141,0,0,0-.744.933,1.816,1.816,0,0,0-.077.884,1.786,1.786,0,0,0,1.988,1.857h9.378l.84-2.6L20.9,431Z" transform="translate(-9.365 -388.274)" fill="#c6805d"/>
          <path id="Path_980189" data-name="Path 980189" d="M142.3,354.867a3.978,3.978,0,0,1-3.846-3.572l-.345-3.044h13.853l.529.781,1.3.276,10.666,6.15Z" transform="translate(-124.537 -314.121)" fill="#61aab8"/>
          <path id="Path_980190" data-name="Path 980190" d="M387.17,159.653h-.019a6.337,6.337,0,0,1-6.308-6.486l-.013-1.008a.515.515,0,0,1,.515-.515l1.4-.111h10.394a.515.515,0,0,1,.515.515v1.121a6.479,6.479,0,0,1-.289,1.92,5.056,5.056,0,0,0-.737.859A5.951,5.951,0,0,1,387.17,159.653Z" transform="translate(-342.043 -137.842)" fill="#ffe077"/>
          <path id="Path_980191" data-name="Path 980191" d="M386.287,159.628c.077-.006,0,0,.254-.026a6.489,6.489,0,0,0,5.417-4.517h-9.851a.625.625,0,0,1-.609-.488,6.475,6.475,0,0,1-.16-1.432V151.53h-1.564a.515.515,0,0,0-.514.515v1.12a6.482,6.482,0,0,0,.289,1.92h0A6.52,6.52,0,0,0,386.287,159.628Z" transform="translate(-340.636 -137.839)" fill="#ffd05b"/>
          <path id="Path_980192" data-name="Path 980192" d="M383.351,203.75h8.623a3.635,3.635,0,0,1-3.635,3.635h-4.988l-3.032-2.052Z" transform="translate(-341.585 -184.633)" fill="#c6805d"/>
          <path id="Path_980193" data-name="Path 980193" d="M151.962,348.25H138.11v3.179a3.315,3.315,0,0,0,.129.917h0a3.348,3.348,0,0,0,3.246,2.419l2.063.028,0-.039a3.323,3.323,0,0,1-3.074-1.966.208.208,0,0,1,.1-.274c.773-.356,3.229-2.04,3.582-2.234a.519.519,0,0,1,.337-.079l6.487.71a2.383,2.383,0,0,0,2.007-.745l.8-.86Z" transform="translate(-124.54 -314.121)" fill="#589ca5"/>
          <path id="Path_980194" data-name="Path 980194" d="M143.839,111.2,142.8,112.32a.52.52,0,0,1-.436.162l-7.143-.783a.519.519,0,0,0-.337.079l-3.7,2.372a.519.519,0,0,1-.421.063l-.647-.182-1.628-.648a.312.312,0,0,1-.227-.3l.458-18.078c0-4.975,2.785-9.208,7.411-10.347.47-.116,1.408-.338,1.408-.338q.526-.054,1.066-.056l1.943-.014,2.024,3.718a15.161,15.161,0,0,1,1.16,11.755l-.818,2.627a9.771,9.771,0,0,0,.394,6.859l.632,1.428A.52.52,0,0,1,143.839,111.2Z" transform="translate(-115.71 -77.55)" fill="#e8e8e8"/>
          <path id="Path_980195" data-name="Path 980195" d="M135.613,84.917a11.077,11.077,0,0,0-7.425,10.617v19.094l-1.851-.522a.313.313,0,0,1-.226-.3V95.458A10.6,10.6,0,0,1,135.613,84.917Z" transform="translate(-113.787 -78.147)" fill="#dcdbdd"/>
          <path id="Path_980196" data-name="Path 980196" d="M197.878,146.087h-4.152a.312.312,0,0,1-.227-.1l-1.439-1.523a.312.312,0,0,0-.453,0l-1.439,1.523a.312.312,0,0,1-.227.1h-4.393a5.187,5.187,0,0,1-3.882-1.746l-6.247-6.769a3.471,3.471,0,1,1,5.129-4.677l5.587,6.191a.416.416,0,0,0,.309.137h12.471v5.83A1.035,1.035,0,0,1,197.878,146.087Z" transform="translate(-157.149 -120.113)" fill="#dcdbdd"/>
          <g id="Group_1144267" data-name="Group 1144267" transform="translate(24.155 0)">
            <path id="Path_980197" data-name="Path 980197" d="M256.655,26.3a6.547,6.547,0,0,0-9.665-5.755,18.682,18.682,0,0,0-2.037,2.171,6.08,6.08,0,0,0-.975,3.637c0,3.615,2.517,5.9,6.132,5.9,2.481,0,5.749-2.822,5.749-2.822A6.515,6.515,0,0,0,256.655,26.3Z" transform="translate(-243.565 -19.75)" fill="#c6805d"/>
            <path id="Path_980198" data-name="Path 980198" d="M252.3,36.24a6.546,6.546,0,1,1-8.869-8.886A6.543,6.543,0,0,0,252.3,36.24Z" transform="translate(-240.001 -26.564)" fill="#ba7052"/>
          </g>
          <path id="Path_980199" data-name="Path 980199" d="M246.68,435.356h-7.127l3.563-4.952Z" transform="translate(-215.444 -387.739)" fill="#c6805d"/>
          <path id="Path_980200" data-name="Path 980200" d="M246.677,473.289H239.55l.688-1.039h5.752Z" transform="translate(-215.441 -425.238)" fill="#ba7052"/>
          <path id="Path_980201" data-name="Path 980201" d="M118.93,418.93l12.061-.071a.416.416,0,0,0,.353-.2l1.374-1.433,1.663-2.688a.312.312,0,0,1,.53,0l1.658,2.687,1.393,1.548a.416.416,0,0,0,.354.2l6.081-.026a4.009,4.009,0,0,0,4-2.361c.09-.235.314-.73.314-.73a4.232,4.232,0,0,0-4.16-5.007H119.541a1.039,1.039,0,0,0-1.039,1.039v5.34Z" transform="translate(-106.97 -370.218)" fill="#6fbbc6"/>
          <path id="Path_980202" data-name="Path 980202" d="M304.545,459.042a4.232,4.232,0,0,1-4.16,3.45h-6.471a.417.417,0,0,1-.354-.2l-1.16-1.88h9.024A4.222,4.222,0,0,0,304.545,459.042Z" transform="translate(-262.801 -413.402)" fill="#61aab8"/>
          <path id="Path_980203" data-name="Path 980203" d="M19.032,455.835l1.577.9-1.577,1.173H9.654a2.153,2.153,0,0,1-1.523-.628,2.136,2.136,0,0,1,.422-3.353,2.129,2.129,0,0,0,.617,1.276,2.153,2.153,0,0,0,1.523.628Z" transform="translate(-7.5 -408.823)" fill="#ba7052"/>
          <path id="Path_980204" data-name="Path 980204" d="M132.716,472.25l-1.164,1.88a.416.416,0,0,1-.353.2H118.5V472.25Z" transform="translate(-106.968 -425.238)" fill="#61aab8"/>
        </g>
        <path id="Path_980205" data-name="Path 980205" d="M53.194,27.235A1.3,1.3,0,0,0,51.9,25.941H39.942a1.3,1.3,0,0,0-1.294,1.294v1.121a7.226,7.226,0,0,0,.649,3.008H36.752a.779.779,0,0,0,0,1.558l5.014,0v5.046a.256.256,0,0,1-.257.255h-3.95l-1.527-1.617a.779.779,0,0,0-1.133,0l-1.528,1.617H29.179a4.41,4.41,0,0,1-3.3-1.483l-6.258-6.78A2.691,2.691,0,1,1,23.6,26.333l5.711,6.328a.779.779,0,0,0,.578.257l3.227,0h0a.779.779,0,0,0,0-1.558l-2.872,0a15.836,15.836,0,0,0-.5-4.67A7.32,7.32,0,0,0,37.6,23.606a.779.779,0,0,0-1.3-.859,5.767,5.767,0,1,1,.948-3.017.779.779,0,0,0,1.558.038,7.324,7.324,0,0,0-14.619-.807,11.44,11.44,0,0,0-11.861,11.38v3.909a.779.779,0,0,0,1.558,0V30.341a9.89,9.89,0,0,1,10.338-9.822,7.337,7.337,0,0,0,3.678,5.44,14.292,14.292,0,0,1,.764,3.656l-3.9-4.326a4.25,4.25,0,1,0-6.28,5.728l6.242,6.763a5.956,5.956,0,0,0,2.136,1.529,10.5,10.5,0,0,0,.8,5.7l.563,1.271-.837.9L20.371,46.4a1.3,1.3,0,0,0-.842.2l-3.6,2.309-2.045-.576V37.886a.779.779,0,0,0-1.558,0V48.925a.779.779,0,0,0,.568.75l.679.191v.472a4.058,4.058,0,0,0,.888,2.545H13.35A1.82,1.82,0,0,0,11.532,54.7v.275h-.418a5.6,5.6,0,0,0-3.051.911c-.989.64-2.057,1.171-5.13,1.171a2.92,2.92,0,1,0,0,5.84H25.242a.779.779,0,0,0,.663-.369l.414-.67h4.267l.413.669a.779.779,0,0,0,.663.37h6.7a5.006,5.006,0,0,0,2.34-9.434L29.6,47.064a1.3,1.3,0,0,0,.118-1.262l-.632-1.428a8.945,8.945,0,0,1-.713-4.649,5.953,5.953,0,0,0,.808.057h4.527a.779.779,0,0,0,.566-.244l1.192-1.261,1.192,1.261a.779.779,0,0,0,.566.244h4.286a1.816,1.816,0,0,0,1.815-1.813V36.561h4.209a4.42,4.42,0,0,0,4.4-4.121,7.215,7.215,0,0,0,1.258-4.084ZM1.558,59.978a1.37,1.37,0,0,1,1.375-1.362c3.165,0,4.588-.521,5.977-1.421a4.05,4.05,0,0,1,2.2-.661h.418V61.34h-8.6a1.37,1.37,0,0,1-1.375-1.362Zm25.725.323,1.172-1.894L29.624,60.3ZM38.364,61.34H32.1l-2.977-4.825a.779.779,0,0,0-.663-.37h0a.779.779,0,0,0-.663.369L24.808,61.34H13.091V54.7a.26.26,0,0,1,.26-.26h7.725a.779.779,0,0,0,0-1.558H17.836a2.734,2.734,0,0,1-1.952-.739,2.674,2.674,0,0,1-.756-1.839l.488.137a1.3,1.3,0,0,0,1.053-.157l3.624-2.323,7.052.773a1.449,1.449,0,0,0,1.175-.495l8.055,4.642H24.711a.779.779,0,1,0,0,1.558H38.364a3.5,3.5,0,0,1,3.453,3.449,3.455,3.455,0,0,1-3.453,3.449Zm2.7-29.976a5.664,5.664,0,0,1-.858-3.008V27.5H51.635v.856a5.663,5.663,0,0,1-.858,3.009C49.765,31.365,41.79,31.366,41.065,31.364ZM47.533,35H43.324V32.923h6.957A2.862,2.862,0,0,1,47.533,35Z" transform="translate(0 0)"/>
      </g>
    </g>
  </g>
</svg>
