<svg xmlns="http://www.w3.org/2000/svg" xmlns:xlink="http://www.w3.org/1999/xlink" width="108" height="108" viewBox="0 0 108 108">
  <defs>
    <filter id="Fondo" x="0" y="0" width="108" height="108" filterUnits="userSpaceOnUse">
      <feOffset dy="3" input="SourceAlpha"/>
      <feGaussianBlur stdDeviation="3" result="blur"/>
      <feFlood flood-opacity="0.161"/>
      <feComposite operator="in" in2="blur"/>
      <feComposite in="SourceGraphic"/>
    </filter>
  </defs>
  <g id="Group_1144530" data-name="Group 1144530" transform="translate(-745.999 -4935)">
    <g id="Group_1144460" data-name="Group 1144460">
      <g id="Icono" transform="translate(420.28 4246)">
        <g transform="matrix(1, 0, 0, 1, 325.72, 689)" filter="url(#Fondo)">
          <g id="Fondo-2" data-name="Fondo" transform="translate(9 6)" fill="#f1fef9" stroke="#43896d" stroke-width="3">
            <circle cx="45" cy="45" r="45" stroke="none"/>
            <circle cx="45" cy="45" r="43.5" fill="none"/>
          </g>
        </g>
      </g>
      <g id="Group_1144459" data-name="Group 1144459" transform="translate(766.938 4952.938)">
        <g id="Group_1144458" data-name="Group 1144458" transform="translate(7.841 7.86)">
          <g id="Group_1144456" data-name="Group 1144456" transform="translate(0 0)">
            <path id="Path_980812" data-name="Path 980812" d="M400.333,165.439a.526.526,0,0,1,.525-.525h5.631a.526.526,0,0,1,.525.525v31.812a.526.526,0,0,1-.525.525h-5.631a.526.526,0,0,1-.525-.525Z" transform="translate(-359.84 -149.179)" fill="#8ac9fe" fill-rule="evenodd"/>
            <path id="Path_980813" data-name="Path 980813" d="M448.92,164.914h1.051a.526.526,0,0,1,.525.525v31.812a.526.526,0,0,1-.525.525H448.92a.526.526,0,0,0,.525-.525V165.439a.526.526,0,0,0-.525-.525Z" transform="translate(-403.321 -149.179)" fill="#60b7ff" fill-rule="evenodd"/>
            <path id="Path_980814" data-name="Path 980814" d="M288.925,225.487a.525.525,0,0,0-.525-.525h-5.634a.525.525,0,0,0-.525.525v25.5a.525.525,0,0,0,.525.525H288.4a.525.525,0,0,0,.525-.525Z" transform="translate(-254.157 -202.917)" fill="#6cf5c2" fill-rule="evenodd"/>
            <path id="Path_980815" data-name="Path 980815" d="M330.854,251.514a.525.525,0,0,0,.525-.525v-25.5a.525.525,0,0,0-.525-.525H331.9a.525.525,0,0,1,.525.525v25.5a.525.525,0,0,1-.525.525Z" transform="translate(-297.662 -202.917)" fill="#00e499" fill-rule="evenodd"/>
            <path id="Path_980816" data-name="Path 980816" d="M170.856,292.229a.525.525,0,0,0-.525-.525H164.7a.525.525,0,0,0-.525.525v18.488a.525.525,0,0,0,.525.525h5.631a.525.525,0,0,0,.525-.525Z" transform="translate(-148.498 -262.646)" fill="#ffe177" fill-rule="evenodd"/>
            <path id="Path_980817" data-name="Path 980817" d="M212.76,311.243a.525.525,0,0,0,.525-.525V292.229a.525.525,0,0,0-.525-.525h1.051a.525.525,0,0,1,.525.525v18.488a.525.525,0,0,1-.525.525Z" transform="translate(-191.978 -262.646)" fill="#ffd064" fill-rule="evenodd"/>
            <path id="Path_980818" data-name="Path 980818" d="M46.08,356.172a.525.525,0,0,1,.525-.525h5.631a.525.525,0,0,1,.525.525v11.768a.526.526,0,0,1-.525.525H46.605a.526.526,0,0,1-.525-.525Z" transform="translate(-42.814 -319.869)" fill="#fe646f" fill-rule="evenodd"/>
            <path id="Path_980819" data-name="Path 980819" d="M94.667,355.647h1.051a.525.525,0,0,1,.525.525v11.768a.526.526,0,0,1-.525.525H94.667a.526.526,0,0,0,.525-.525V356.172a.525.525,0,0,0-.525-.525Z" transform="translate(-86.295 -319.869)" fill="#fd4755" fill-rule="evenodd"/>
            <path id="Path_980820" data-name="Path 980820" d="M15,473.181a.314.314,0,0,0,.314.314H65.127a.314.314,0,0,0,.314-.314v-1.9a.314.314,0,0,0-.314-.314H15.314a.314.314,0,0,0-.314.314Z" transform="translate(-15 -423.073)" fill="#a79ba7" fill-rule="evenodd"/>
            <path id="Path_980821" data-name="Path 980821" d="M353.263,27.933s-3.1-11.749,14.331-12.75a.2.2,0,0,1,.189.3,49.639,49.639,0,0,0-3.594,7.591C361.806,31.305,353.4,27.933,353.263,27.933Z" transform="translate(-317.525 -15.183)" fill="#6cf5c2" fill-rule="evenodd"/>
          </g>
          <g id="Group_1144457" data-name="Group 1144457" transform="translate(3.279 3.072)">
            <path id="Path_980822" data-name="Path 980822" d="M54.444,44.413A8.244,8.244,0,1,1,46.2,52.657,8.244,8.244,0,0,1,54.444,44.413Z" transform="translate(-46.2 -44.413)" fill="#ffc338" fill-rule="evenodd"/>
            <path id="Path_980823" data-name="Path 980823" d="M118.638,44.413a8.244,8.244,0,1,1,0,16.488c-.238,0-.473-.011-.706-.03a8.244,8.244,0,0,0,0-16.427C118.165,44.424,118.4,44.413,118.638,44.413Z" transform="translate(-110.394 -44.413)" fill="#f5b829" fill-rule="evenodd"/>
          </g>
        </g>
        <path id="Path_980824" data-name="Path 980824" d="M43.746,21.544A83.3,83.3,0,0,1,11.2,40.222a.841.841,0,1,1-.508-1.6A81.662,81.662,0,0,0,42.655,20.262a10.364,10.364,0,0,1,2.088-8.089c2.063-2.53,6.005-4.814,13.5-5.172a.841.841,0,0,1,.77,1.258,52.085,52.085,0,0,0-3.7,7.73A8.367,8.367,0,0,1,52,20.877C48.962,22.9,45.055,21.943,43.746,21.544Zm1.357-1.37a7.7,7.7,0,0,0,5.97-.7A6.766,6.766,0,0,0,53.7,15.52a43.738,43.738,0,0,1,3.1-6.736c-5.816.524-9.029,2.338-10.753,4.451A8.394,8.394,0,0,0,44.2,18.7a41.975,41.975,0,0,1,5.713-4.828.841.841,0,0,1,.939,1.395A40.945,40.945,0,0,0,45.1,20.173ZM55.856,54.916h2.425a.841.841,0,0,1,.841.841v2.525a.841.841,0,0,1-.841.841H7.841A.841.841,0,0,1,7,58.282V55.756a.841.841,0,0,1,.841-.841h2.425V43.638a.841.841,0,0,1,.841-.841h6.682a.841.841,0,0,1,.841.841V54.916h4.047v-18a.841.841,0,0,1,.841-.841H30.2a.841.841,0,0,1,.841.841v18h4.044V29.9a.841.841,0,0,1,.841-.841h6.685a.841.841,0,0,1,.841.841V54.916h4.044V23.594a.841.841,0,0,1,.841-.841h6.682a.841.841,0,0,1,.841.841Zm-43.909,0h5V44.478h-5Zm12.41,0h5V37.759h-5Zm12.407,0h5V30.745h-5Zm12.41,0h5V24.435h-5ZM8.681,57.441h48.76V56.6H8.681ZM30.115,25.188a.841.841,0,0,1,.324,1.644l-2.178.618a.841.841,0,0,1-1.069-.762l-.125-2.261a.841.841,0,0,1,1.665-.207,10.3,10.3,0,0,0,1.315-5.045A10.594,10.594,0,0,0,19.363,8.681a10.915,10.915,0,0,0-1.932.171.841.841,0,0,1-.3-1.655,12.6,12.6,0,0,1,2.23-.2A12.276,12.276,0,0,1,31.727,19.175a11.97,11.97,0,0,1-1.612,6.012ZM8.634,13.125a.841.841,0,0,1-.342-1.644l2.187-.584a.841.841,0,0,1,1.057.779l.09,2.262a.841.841,0,0,1-1.656.238,10.294,10.294,0,0,0-1.29,5A10.594,10.594,0,0,0,19.363,29.67,10.917,10.917,0,0,0,21.3,29.5a.841.841,0,0,1,.3,1.655,12.606,12.606,0,0,1-2.229.2A12.276,12.276,0,0,1,7,19.175a11.971,11.971,0,0,1,1.634-6.05ZM19.363,28.26a9.085,9.085,0,1,1,9.085-9.085A9.1,9.1,0,0,1,19.363,28.26Zm0-1.681a7.4,7.4,0,1,0-7.4-7.4A7.418,7.418,0,0,0,19.363,26.579Zm-.841-12.194V13.96a.841.841,0,1,1,1.681,0v.415a3.282,3.282,0,0,1,2.363,1.972.841.841,0,0,1-1.55.651,1.808,1.808,0,0,0-2.373-.894,1.128,1.128,0,0,0-.808,1.092v0a.946.946,0,0,0,.619.814,3.832,3.832,0,0,0,1.053.3h0c1.484.244,3.107.925,3.319,2.689.208,1.718-1.169,2.716-2.623,2.987v.4a.841.841,0,1,1-1.681,0V23.98A3.265,3.265,0,0,1,15.9,21.6a.841.841,0,0,1,1.632-.406,1.784,1.784,0,0,0,1.914,1.194h0a2.5,2.5,0,0,0,1.326-.377.813.813,0,0,0,.38-.8h0a1.151,1.151,0,0,0-.767-.914,4.653,4.653,0,0,0-1.155-.317c-1.454-.237-3-.974-3.081-2.7a2.756,2.756,0,0,1,1.872-2.738,3.586,3.586,0,0,1,.495-.154Z" transform="translate(0 0)" fill-rule="evenodd"/>
      </g>
    </g>
  </g>
</svg>
