<svg xmlns="http://www.w3.org/2000/svg" xmlns:xlink="http://www.w3.org/1999/xlink" width="108" height="108" viewBox="0 0 108 108">
  <defs>
    <filter id="Fondo" x="0" y="0" width="108" height="108" filterUnits="userSpaceOnUse">
      <feOffset dy="3" input="SourceAlpha"/>
      <feGaussianBlur stdDeviation="3" result="blur"/>
      <feFlood flood-opacity="0.161"/>
      <feComposite operator="in" in2="blur"/>
      <feComposite in="SourceGraphic"/>
    </filter>
  </defs>
  <g id="Group_1144497" data-name="Group 1144497" transform="translate(-326 -3124)">
    <g id="Group_1144253" data-name="Group 1144253">
      <g id="Icono" transform="translate(0.28 2435)">
        <g transform="matrix(1, 0, 0, 1, 325.72, 689)" filter="url(#Fondo)">
          <g id="Fondo-2" data-name="Fondo" transform="translate(9 6)" fill="#f1fef9" stroke="#43896d" stroke-width="3">
            <circle cx="45" cy="45" r="45" stroke="none"/>
            <circle cx="45" cy="45" r="43.5" fill="none"/>
          </g>
        </g>
      </g>
      <g id="Group_1144252" data-name="Group 1144252" transform="translate(324.787 3138.122)">
        <g id="Group_1144248" data-name="Group 1144248" transform="translate(29.669 9.002)">
          <path id="Path_980090" data-name="Path 980090" d="M58.681,16A22.01,22.01,0,0,1,80.691,38.2a1.5,1.5,0,0,0,.214.809l5.055,8.814a1.6,1.6,0,0,1-1.385,2.4H80.727c-.88,0-1.8.742-1.6,1.6l1.129,4.767c.6,2.537.026,5.24-2.419,5.57-.886.122-3.3.019-4.908.054a1.613,1.613,0,0,0-1.6,1.6v4.767a1.605,1.605,0,0,1-1.6,1.6H49.8a1.6,1.6,0,0,1-1.6-1.6V61.824a1.563,1.563,0,0,0-.781-1.376C40.983,56.609,36.67,46.055,36.67,38.016A22.012,22.012,0,0,1,58.681,16Z" transform="translate(-35.88 -15.215)" fill="#ffddcf" fill-rule="evenodd"/>
          <path id="Path_980091" data-name="Path 980091" d="M63.517,64.755H43.589a2.393,2.393,0,0,1-2.39-2.39V55.612a.774.774,0,0,0-.4-.7c-3.137-1.871-6.015-5.42-8.1-9.992A32.913,32.913,0,0,1,29.669,31.8a22.8,22.8,0,1,1,45.6.189.717.717,0,0,0,.106.4l5.059,8.821a2.387,2.387,0,0,1-2.071,3.58H74.516a1.006,1.006,0,0,0-.743.349.312.312,0,0,0-.087.283l1.129,4.765a6.379,6.379,0,0,1-.581,5.025,3.516,3.516,0,0,1-2.5,1.51,26.8,26.8,0,0,1-2.954.061c-.708-.007-1.441-.013-2.042,0a.822.822,0,0,0-.827.81v4.767a2.394,2.394,0,0,1-2.393,2.39ZM52.47,10.583A21.245,21.245,0,0,0,31.249,31.8a31.283,31.283,0,0,0,2.889,12.464c1.956,4.283,4.61,7.582,7.474,9.291a2.341,2.341,0,0,1,1.166,2.054v6.754a.81.81,0,0,0,.809.809H63.517a.812.812,0,0,0,.813-.809V57.6a2.392,2.392,0,0,1,2.373-2.39c.625-.014,1.37-.007,2.091,0,1.1.01,2.236.02,2.727-.047a1.926,1.926,0,0,0,1.411-.839,4.917,4.917,0,0,0,.346-3.766L72.147,45.79a1.887,1.887,0,0,1,.387-1.628,2.579,2.579,0,0,1,1.982-.948h3.849a.806.806,0,0,0,.7-1.213l-5.055-8.814a2.284,2.284,0,0,1-.319-1.211A21.22,21.22,0,0,0,52.47,10.583Z" transform="translate(-29.669 -9.002)"/>
        </g>
        <g id="Group_1144249" data-name="Group 1144249" transform="translate(33.566 12.201)">
          <path id="Path_980092" data-name="Path 980092" d="M71.2,58.025a5.263,5.263,0,0,1,5.263-5.263A5.266,5.266,0,0,1,81.725,47.5a5.209,5.209,0,0,1,2.294.528,5.264,5.264,0,0,1,10.042.022,5.262,5.262,0,0,1,7.6,4.716,5.263,5.263,0,0,1-.051,10.525H76.459A5.265,5.265,0,0,1,71.2,58.024Z" transform="translate(-70.406 -43.561)" fill="#ffabab" fill-rule="evenodd"/>
          <path id="Path_980093" data-name="Path 980093" d="M95.4,57.865H70.248A6.053,6.053,0,0,1,69.5,45.8a6.065,6.065,0,0,1,6.011-5.312,5.991,5.991,0,0,1,1.852.289,6.057,6.057,0,0,1,10.927.015,6,6,0,0,1,1.9-.3A6.063,6.063,0,0,1,96.2,45.811a6.053,6.053,0,0,1-.8,12.053ZM75.514,42.073a4.481,4.481,0,0,0-4.476,4.476.79.79,0,0,1-.79.79,4.472,4.472,0,0,0,0,8.945H95.4a4.473,4.473,0,0,0,.043-8.945.79.79,0,0,1-.782-.79,4.479,4.479,0,0,0-4.472-4.476,4.428,4.428,0,0,0-1.99.467.79.79,0,0,1-1.107-.473,4.474,4.474,0,0,0-8.534-.018.79.79,0,0,1-1.1.471,4.4,4.4,0,0,0-1.947-.448Z" transform="translate(-64.195 -37.348)"/>
        </g>
        <path id="Path_980094" data-name="Path 980094" d="M112.349,74.706a.79.79,0,0,1-.685-.4,6.054,6.054,0,0,1,10.486-6.053.79.79,0,0,1-1.368.791,4.474,4.474,0,0,0-7.749,4.472.79.79,0,0,1-.684,1.185Z" transform="translate(-72.023 -49.884)"/>
        <path id="Path_980095" data-name="Path 980095" d="M257.05,74.676a.79.79,0,0,1-.684-1.185,4.474,4.474,0,1,0-7.749-4.473.79.79,0,0,1-1.369-.79,6.054,6.054,0,0,1,10.487,6.053.79.79,0,0,1-.685.4Z" transform="translate(-192.929 -49.853)"/>
        <g id="Group_1144250" data-name="Group 1144250" transform="translate(41.938 21.671)">
          <path id="Path_980096" data-name="Path 980096" d="M156.778,144.726a7.19,7.19,0,0,0,1.657-.688l1.478.931a.84.84,0,0,0,1.078,0l1.1-1.1a.839.839,0,0,0,0-1.075l-.931-1.481a7.269,7.269,0,0,0,.688-1.657l1.7-.387c.409-.093.761-.342.761-.761v-1.561c0-.419-.352-.669-.761-.761l-1.705-.387a7.119,7.119,0,0,0-.685-1.657l.931-1.478a.844.844,0,0,0,0-1.078l-1.1-1.1a.84.84,0,0,0-1.078,0l-1.478.931a7.188,7.188,0,0,0-1.657-.688l-.387-1.7c-.093-.409-.342-.761-.761-.761h-1.561c-.419,0-.669.352-.761.761l-.39,1.7a7.315,7.315,0,0,0-1.654.688l-1.481-.931a.835.835,0,0,0-1.075,0l-1.107,1.1a.848.848,0,0,0,0,1.078l.931,1.478a7.261,7.261,0,0,0-.685,1.657l-1.705.387c-.406.093-.761.342-.761.761V138.5c0,.419.355.669.761.761l1.705.387a7.133,7.133,0,0,0,.688,1.657l-.934,1.481a.843.843,0,0,0,0,1.075l1.107,1.1a.835.835,0,0,0,1.075,0l1.481-.931a7.164,7.164,0,0,0,1.654.688l.39,1.705c.093.406.342.761.761.761h1.561c.419,0,.669-.355.761-.761l.387-1.705Z" transform="translate(-144.589 -127.466)" fill="#7b839a" fill-rule="evenodd"/>
          <path id="Path_980097" data-name="Path 980097" d="M149.419,141.774h-1.561a1.611,1.611,0,0,1-1.532-1.376l-.288-1.26a7.937,7.937,0,0,1-.952-.4l-1.094.688a1.6,1.6,0,0,1-2.057-.113l-1.1-1.1a1.611,1.611,0,0,1-.111-2.054l.691-1.1a7.914,7.914,0,0,1-.4-.954l-1.259-.286a1.612,1.612,0,0,1-1.377-1.532v-1.561a1.612,1.612,0,0,1,1.376-1.532l1.26-.286a8.057,8.057,0,0,1,.394-.952l-.688-1.092a1.6,1.6,0,0,1,.107-2.055l1.111-1.108a1.6,1.6,0,0,1,2.054-.109l1.093.687a8.08,8.08,0,0,1,.952-.395l.289-1.259a1.609,1.609,0,0,1,1.532-1.375h1.561a1.61,1.61,0,0,1,1.532,1.377l.286,1.256a8.006,8.006,0,0,1,.954.4l1.091-.687a1.61,1.61,0,0,1,2.058.11l1.1,1.1a1.616,1.616,0,0,1,.11,2.058l-.687,1.091a7.935,7.935,0,0,1,.394.954l1.259.286a1.61,1.61,0,0,1,1.377,1.532v1.561a1.61,1.61,0,0,1-1.377,1.532l-1.257.286a8.1,8.1,0,0,1-.4.954l.688,1.095a1.6,1.6,0,0,1-.11,2.054l-1.1,1.1a1.611,1.611,0,0,1-2.058.11l-1.091-.687a8.017,8.017,0,0,1-.953.4l-.286,1.259a1.612,1.612,0,0,1-1.532,1.377Zm-1.5-1.581h1.438a.572.572,0,0,0,.053-.147l.387-1.7a.79.79,0,0,1,.562-.587,6.419,6.419,0,0,0,1.475-.613.789.789,0,0,1,.811.019l1.478.931a.587.587,0,0,0,.141.067l1.018-1.018a.541.541,0,0,0-.064-.135l-.933-1.485a.79.79,0,0,1-.017-.812,6.49,6.49,0,0,0,.613-1.477.79.79,0,0,1,.586-.558l1.7-.387a.581.581,0,0,0,.146-.052v-1.439a.578.578,0,0,0-.146-.052l-1.705-.387a.79.79,0,0,1-.587-.562,6.342,6.342,0,0,0-.608-1.474.79.79,0,0,1,.018-.813l.931-1.478a.563.563,0,0,0,.067-.141l-1.018-1.018a.585.585,0,0,0-.141.067l-1.478.931a.79.79,0,0,1-.811.019,6.419,6.419,0,0,0-1.475-.613.79.79,0,0,1-.562-.587l-.387-1.7a.582.582,0,0,0-.052-.146h-1.439a.58.58,0,0,0-.052.146l-.391,1.7a.79.79,0,0,1-.557.584,6.512,6.512,0,0,0-1.475.613.79.79,0,0,1-.813-.017l-1.481-.931a.6.6,0,0,0-.139-.067l-1.019,1.016a.583.583,0,0,0,.068.146l.929,1.474a.79.79,0,0,1,.019.81,6.473,6.473,0,0,0-.61,1.477.79.79,0,0,1-.587.562l-1.705.387a.57.57,0,0,0-.146.052v1.438a.574.574,0,0,0,.147.053l1.7.387a.79.79,0,0,1,.587.562,6.345,6.345,0,0,0,.612,1.473.79.79,0,0,1-.018.814L142.058,137a.556.556,0,0,0-.065.139l1.019,1.016a.588.588,0,0,0,.138-.066l1.482-.932a.79.79,0,0,1,.813-.017,6.353,6.353,0,0,0,1.471.612.79.79,0,0,1,.561.586l.39,1.705a.58.58,0,0,0,.053.148Zm-4.866-1.993h0Zm0-13.376h0Z" transform="translate(-138.379 -121.257)"/>
        </g>
        <g id="Group_1144251" data-name="Group 1144251" transform="translate(48.493 28.223)">
          <path id="Path_980098" data-name="Path 980098" d="M206.375,186.31a2.915,2.915,0,1,0,2.911,2.915A2.919,2.919,0,0,0,206.375,186.31Z" transform="translate(-202.671 -185.52)" fill="#fff" fill-rule="evenodd"/>
          <path id="Path_980099" data-name="Path 980099" d="M200.164,186.717a3.7,3.7,0,1,1,3.7-3.7A3.709,3.709,0,0,1,200.164,186.717Zm0-5.829a2.124,2.124,0,1,0,2.121,2.124A2.127,2.127,0,0,0,200.164,180.889Z" transform="translate(-196.459 -179.308)"/>
        </g>
      </g>
    </g>
  </g>
</svg>
