<svg xmlns="http://www.w3.org/2000/svg" xmlns:xlink="http://www.w3.org/1999/xlink" width="108" height="108" viewBox="0 0 108 108">
  <defs>
    <filter id="Fondo" x="0" y="0" width="108" height="108" filterUnits="userSpaceOnUse">
      <feOffset dy="3" input="SourceAlpha"/>
      <feGaussianBlur stdDeviation="3" result="blur"/>
      <feFlood flood-opacity="0.161"/>
      <feComposite operator="in" in2="blur"/>
      <feComposite in="SourceGraphic"/>
    </filter>
  </defs>
  <g id="Group_1144526" data-name="Group 1144526" transform="translate(-325.999 -4270)">
    <g id="Group_1144444" data-name="Group 1144444">
      <g id="Icono" transform="translate(0.279 3581)">
        <g transform="matrix(1, 0, 0, 1, 325.72, 689)" filter="url(#Fondo)">
          <g id="Fondo-2" data-name="Fondo" transform="translate(9 6)" fill="#f1fef9" stroke="#43896d" stroke-width="3">
            <circle cx="45" cy="45" r="45" stroke="none"/>
            <circle cx="45" cy="45" r="43.5" fill="none"/>
          </g>
        </g>
      </g>
      <g id="Group_1144443" data-name="Group 1144443" transform="translate(351.046 4294.046)">
        <path id="Path_980760" data-name="Path 980760" d="M387.659,414.5H384.5v6.317l6.317-3.159A3.159,3.159,0,0,0,387.659,414.5Z" transform="translate(-344.016 -370.858)" fill="#894d40"/>
        <path id="Path_980761" data-name="Path 980761" d="M141.2,414.5H115.724a3.159,3.159,0,0,0-3.159,3.159v1.579h31.79v-1.579A3.159,3.159,0,0,0,141.2,414.5Z" transform="translate(-100.713 -370.858)" fill="#995e49"/>
        <path id="Path_980762" data-name="Path 980762" d="M234.5,157.5h9.476v8.107H234.5Z" transform="translate(-209.81 -140.917)" fill="#995e49"/>
        <path id="Path_980763" data-name="Path 980763" d="M194.238,142.5a1.579,1.579,0,0,0-1.579,1.579l-3.159,4.054,3.159,4.054a1.579,1.579,0,1,0,3.159,0v-8.107A1.579,1.579,0,0,0,194.238,142.5Z" transform="translate(-169.548 -127.496)" fill="#b88567"/>
        <path id="Path_980764" data-name="Path 980764" d="M165.817,154.918l-3.159-.3-3.159,4.357,3.159,4.357,3.159-.3Z" transform="translate(-142.706 -138.335)" fill="#aa6f51"/>
        <path id="Path_980765" data-name="Path 980765" d="M13.673,142.526c-.178-.016-.358-.026-.54-.026a5.633,5.633,0,0,0,0,11.266c.182,0,.362-.009.54-.026l12.99-1.249v-8.715Z" transform="translate(-6.71 -127.496)" fill="#b88567"/>
        <path id="Path_980766" data-name="Path 980766" d="M414.5,112.5h6.317v17.583H414.5Z" transform="translate(-370.858 -100.655)" fill="#ffbb6e"/>
        <path id="Path_980767" data-name="Path 980767" d="M279.5,112.5h17.373v17.583H279.5Z" transform="translate(-250.072 -100.655)" fill="#ffd478"/>
        <path id="Path_980768" data-name="Path 980768" d="M414.5,279.5h6.317v6.317H414.5Z" transform="translate(-370.858 -250.072)" fill="#894d40"/>
        <path id="Path_980769" data-name="Path 980769" d="M279.5,279.5h17.373v6.317H279.5Z" transform="translate(-250.072 -250.072)" fill="#995e49"/>
        <path id="Path_980770" data-name="Path 980770" d="M414.5,52.5h6.317v6.317H414.5Z" transform="translate(-370.858 -46.972)" fill="#894d40"/>
        <path id="Path_980771" data-name="Path 980771" d="M279.5,52.5h17.373v6.317H279.5Z" transform="translate(-250.072 -46.972)" fill="#995e49"/>
        <path id="Path_980772" data-name="Path 980772" d="M447.659,97.5H444.5v3.159h3.159a1.579,1.579,0,1,0,0-3.159Z" transform="translate(-397.699 -87.234)" fill="#995e49"/>
        <path id="Path_980773" data-name="Path 980773" d="M285.031,99.079a1.579,1.579,0,0,0-1.579-1.579H266.079a1.579,1.579,0,1,0,0,3.159h17.373A1.579,1.579,0,0,0,285.031,99.079Z" transform="translate(-236.651 -87.234)" fill="#aa6f51"/>
        <path id="Path_980774" data-name="Path 980774" d="M447.659,264.5H444.5v3.159h3.159a1.579,1.579,0,0,0,0-3.159Z" transform="translate(-397.699 -236.651)" fill="#995e49"/>
        <path id="Path_980775" data-name="Path 980775" d="M285.031,266.079a1.579,1.579,0,0,0-1.579-1.579H266.079a1.579,1.579,0,0,0,0,3.159h17.373A1.579,1.579,0,0,0,285.031,266.079Z" transform="translate(-236.651 -236.651)" fill="#aa6f51"/>
        <path id="Path_980776" data-name="Path 980776" d="M417.659,444.5H414.5l6.317,6.317h3.159A6.317,6.317,0,0,0,417.659,444.5Z" transform="translate(-370.858 -397.699)" fill="#995e49"/>
        <path id="Path_980777" data-name="Path 980777" d="M90.673,444.5H58.882a6.317,6.317,0,0,0-6.317,6.317H96.99A6.317,6.317,0,0,0,90.673,444.5Z" transform="translate(-47.03 -397.699)" fill="#aa6f51"/>
        <path id="Path_980778" data-name="Path 980778" d="M447.659,324.5H444.5v6.317h3.159a3.159,3.159,0,1,0,0-6.317Z" transform="translate(-397.699 -290.334)" fill="#aa6f51"/>
        <path id="Path_980779" data-name="Path 980779" d="M273.19,327.659a3.159,3.159,0,0,0-3.159-3.159H252.659a3.159,3.159,0,0,0,0,6.317h17.373A3.159,3.159,0,0,0,273.19,327.659Z" transform="translate(-223.23 -290.334)" fill="#b88567"/>
        <path id="Path_980780" data-name="Path 980780" d="M447.659,7.5H444.5v6.317h3.159a3.159,3.159,0,1,0,0-6.317Z" transform="translate(-397.699 -6.71)" fill="#aa6f51"/>
        <path id="Path_980781" data-name="Path 980781" d="M273.19,10.659A3.159,3.159,0,0,0,270.031,7.5H252.659a3.159,3.159,0,0,0,0,6.317h17.373A3.159,3.159,0,0,0,273.19,10.659Z" transform="translate(-223.23 -6.71)" fill="#b88567"/>
        <path id="Path_980782" data-name="Path 980782" d="M87.837,410.195A3.954,3.954,0,0,0,83.962,407H55.33a3.954,3.954,0,0,0-3.875,3.195,7.117,7.117,0,0,0-6.39,7.071.79.79,0,0,0,.79.79H93.438a.79.79,0,0,0,.79-.79A7.117,7.117,0,0,0,87.837,410.195ZM55.33,408.579H83.962a2.373,2.373,0,0,1,2.233,1.579H53.1A2.373,2.373,0,0,1,55.33,408.579Zm-8.63,7.9a5.536,5.536,0,0,1,5.471-4.738H87.12a5.536,5.536,0,0,1,5.471,4.738Z" transform="translate(-40.319 -364.147)"/>
        <path id="Path_980783" data-name="Path 980783" d="M50.749,33.456V31.661a2.369,2.369,0,0,0,0-4.466V14.078a2.369,2.369,0,0,0,0-4.466V7.817A3.948,3.948,0,0,0,49.96,0H29.428a3.948,3.948,0,0,0-.79,7.817V9.612a2.369,2.369,0,0,0,0,4.466v1.715H26.923a2.368,2.368,0,0,0-4.442-.064L7.035,14.243c-.209-.019-.415-.029-.613-.029a6.423,6.423,0,1,0,0,12.845c.2,0,.406-.01.614-.03l15.444-1.485a2.368,2.368,0,0,0,4.442-.064h1.715V27.2a2.369,2.369,0,0,0,0,4.467v1.794a3.948,3.948,0,0,0,.79,7.817H49.96a3.948,3.948,0,0,0,.79-7.817ZM22.321,23.973,6.89,25.457c-.162.015-.318.023-.468.023a4.843,4.843,0,1,1,0-9.687c.149,0,.306.008.464.022L22.321,17.3Zm3.159.717a.79.79,0,0,1-1.579,0V16.583a.79.79,0,0,1,1.579,0ZM27.059,3.948a2.372,2.372,0,0,1,2.369-2.369H49.96a2.369,2.369,0,0,1,0,4.738H29.428A2.372,2.372,0,0,1,27.059,3.948ZM49.17,7.9V9.476H30.218V7.9ZM29.428,11.055H49.96a.79.79,0,0,1,0,1.579H29.428a.79.79,0,0,1,0-1.579ZM49.17,14.214V27.059H30.218V14.214ZM27.059,23.9V17.373h1.579V23.9Zm2.369,4.738H49.96a.79.79,0,0,1,0,1.579H32.587a.79.79,0,0,0,0,1.579H49.17v1.579H30.218V31.008a.79.79,0,0,0-.79-.79.79.79,0,0,1,0-1.579ZM49.96,39.694H29.428a2.369,2.369,0,1,1,0-4.738H49.96a2.369,2.369,0,0,1,0,4.738Z"/>
      </g>
    </g>
  </g>
</svg>
