<svg xmlns="http://www.w3.org/2000/svg" xmlns:xlink="http://www.w3.org/1999/xlink" width="108" height="108" viewBox="0 0 108 108">
  <defs>
    <filter id="Fondo" x="0" y="0" width="108" height="108" filterUnits="userSpaceOnUse">
      <feOffset dy="3" input="SourceAlpha"/>
      <feGaussianBlur stdDeviation="3" result="blur"/>
      <feFlood flood-opacity="0.161"/>
      <feComposite operator="in" in2="blur"/>
      <feComposite in="SourceGraphic"/>
    </filter>
  </defs>
  <g id="Group_1144494" data-name="Group 1144494" transform="translate(-746 -2196)">
    <g id="Group_1144245" data-name="Group 1144245">
      <g id="Icono" transform="translate(420.28 1507)">
        <g transform="matrix(1, 0, 0, 1, 325.72, 689)" filter="url(#Fondo)">
          <g id="Fondo-2" data-name="Fondo" transform="translate(9 6)" fill="#f1fef9" stroke="#43896d" stroke-width="3">
            <circle cx="45" cy="45" r="45" stroke="none"/>
            <circle cx="45" cy="45" r="43.5" fill="none"/>
          </g>
        </g>
      </g>
      <g id="Layer_29" data-name="Layer 29" transform="translate(768.5 2212.997)">
        <path id="Path_980065" data-name="Path 980065" d="M45,13V43H3V13L24,3Z" fill="#57a4ff"/>
        <path id="Path_980066" data-name="Path 980066" d="M9,23H39V43H9Z" fill="#ffcd00"/>
        <path id="Path_980067" data-name="Path 980067" d="M36,33H60V49H36Z" fill="#ff9811"/>
        <path id="Path_980068" data-name="Path 980068" d="M22,53H60v2a2,2,0,0,1-2,2H24a2,2,0,0,1-2-2Z" fill="#ffcd00"/>
        <path id="Path_980069" data-name="Path 980069" d="M24,3,3,13v2L24,5,45,15V13Z" fill="#2488ff"/>
        <path id="Path_980070" data-name="Path 980070" d="M41,23V19H7v4H41Z" fill="#808285"/>
        <circle id="Ellipse_11582" data-name="Ellipse 11582" cx="3" cy="3" r="3" transform="translate(21 8)" fill="#ffcd00"/>
        <circle id="Ellipse_11583" data-name="Ellipse 11583" cx="4" cy="4" r="4" transform="translate(46 53)" fill="#58595b"/>
        <circle id="Ellipse_11584" data-name="Ellipse 11584" cx="4" cy="4" r="4" transform="translate(26 53)" fill="#58595b"/>
        <path id="Path_980071" data-name="Path 980071" d="M42,49H36v4H60V49H42Z" fill="#d80027"/>
        <path id="Path_980072" data-name="Path 980072" d="M36,53V39H32v8H22v6H36Z" fill="#ed1c24"/>
        <path id="Path_980073" data-name="Path 980073" d="M32,39H26l-4,8H32Z" fill="#a7a9ac"/>
        <path id="Path_980074" data-name="Path 980074" d="M42,39H54V49H42Z" fill="#a97c50"/>
        <path id="Path_980075" data-name="Path 980075" d="M44,49H54V39A10,10,0,0,1,44,49Z" fill="#8b5e3c"/>
        <path id="Path_980076" data-name="Path 980076" d="M50,39v4l-2-1-2,1V39Z" fill="#ff6243"/>
        <g id="Group_1144244" data-name="Group 1144244">
          <path id="Path_980077" data-name="Path 980077" d="M60,32H46V13a.982.982,0,0,0-.57-.9l-21-10a1,1,0,0,0-.86,0l-21,10A.982.982,0,0,0,2,13V43a1,1,0,0,0,1,1H22.38l-1.27,2.55a.037.037,0,0,0-.01.03A1,1,0,0,0,21,47v8a3.009,3.009,0,0,0,3,3h1.1a5,5,0,0,0,9.8,0H45.1a5,5,0,0,0,9.8,0H58a3.009,3.009,0,0,0,3-3V33a1,1,0,0,0-1-1ZM8,42H4V13.63L24,4.11l20,9.52V32H40V24h1a1,1,0,0,0,1-1V19a1,1,0,0,0-1-1H7a1,1,0,0,0-1,1v4a1,1,0,0,0,1,1H8ZM8,20H40v2H8Zm2,22V24H38v8H36a1,1,0,0,0-1,1v5H26a.988.988,0,0,0-.89.55L23.38,42Zm21-2v6H23.62l3-6ZM25.1,56H24a1,1,0,0,1-1-1V54h3.03a4.84,4.84,0,0,0-.93,2ZM30,60a3,3,0,1,1,3-3,3,3,0,0,1-3,3Zm-7-8V48h9a1,1,0,0,0,1-1V40h2V52Zm22.1,4H34.9a4.84,4.84,0,0,0-.93-2H46.03A4.84,4.84,0,0,0,45.1,56ZM50,60a3,3,0,1,1,3-3,3,3,0,0,1-3,3Zm9-5a1,1,0,0,1-1,1H54.9a4.84,4.84,0,0,0-.93-2H59Zm0-3H37V50H59ZM45.47,43.85a1.007,1.007,0,0,0,.98.04L48,43.12l1.55.77A1.03,1.03,0,0,0,50,44a1.014,1.014,0,0,0,.53-.15A1,1,0,0,0,51,43V40h2v8H43V40h2v3A1,1,0,0,0,45.47,43.85ZM47,41.38V40h2v1.38l-.55-.27a.975.975,0,0,0-.9,0ZM59,48H55V39a1,1,0,0,0-1-1H42a1,1,0,0,0-1,1v9H37V34H59Z" fill="#231f20"/>
          <path id="Path_980078" data-name="Path 980078" d="M24,15a4,4,0,1,0-4-4A4,4,0,0,0,24,15Zm0-6a2,2,0,1,1-2,2A2,2,0,0,1,24,9Z" fill="#231f20"/>
        </g>
      </g>
    </g>
  </g>
</svg>
