<svg xmlns="http://www.w3.org/2000/svg" xmlns:xlink="http://www.w3.org/1999/xlink" width="108" height="108" viewBox="0 0 108 108">
  <defs>
    <filter id="Fondo" x="0" y="0" width="108" height="108" filterUnits="userSpaceOnUse">
      <feOffset dy="3" input="SourceAlpha"/>
      <feGaussianBlur stdDeviation="3" result="blur"/>
      <feFlood flood-opacity="0.161"/>
      <feComposite operator="in" in2="blur"/>
      <feComposite in="SourceGraphic"/>
    </filter>
  </defs>
  <g id="Group_1144495" data-name="Group 1144495" transform="translate(-1166 -2196)">
    <g id="Group_1144247" data-name="Group 1144247">
      <g id="Icono" transform="translate(840.28 1507)">
        <g transform="matrix(1, 0, 0, 1, 325.72, 689)" filter="url(#Fondo)">
          <g id="Fondo-2" data-name="Fondo" transform="translate(9 6)" fill="#f1fef9" stroke="#43896d" stroke-width="3">
            <circle cx="45" cy="45" r="45" stroke="none"/>
            <circle cx="45" cy="45" r="43.5" fill="none"/>
          </g>
        </g>
      </g>
    </g>
    <g id="Group_1144246" data-name="Group 1144246" transform="translate(1188 2212.975)">
      <circle id="Ellipse_11585" data-name="Ellipse 11585" cx="9" cy="9" r="9" transform="translate(23 19)" fill="#ffda73"/>
      <rect id="Rectangle_405319" data-name="Rectangle 405319" width="6" height="19" rx="1" transform="translate(54 43)" fill="#7a9acc"/>
      <path id="Path_980079" data-name="Path 980079" d="M6.58,44.66a2.864,2.864,0,0,0-.42.03,2.537,2.537,0,0,0-1.92,1.47,2.58,2.58,0,0,0,1.62,3.57l21.72,7.7a16.893,16.893,0,0,0,7.14.43l7.85-1.24L54,59V46l-5.53-2.62c-.58-.27-1.18-.53-1.78-.75a25.157,25.157,0,0,0-6.28-1.23,27.525,27.525,0,0,0-4.79.36l-6.98.97a3.579,3.579,0,0,0-2.25,1.45,2.934,2.934,0,0,0-.48,1.17Z" fill="#ffc9b9"/>
      <path id="Path_980080" data-name="Path 980080" d="M54,55.6V59L42.57,56.62l-7.85,1.24a16.893,16.893,0,0,1-7.14-.43L5.86,49.73A2.582,2.582,0,0,1,4.27,46.1c.72-1.46,23.2,8.22,23.2,8.22a18.1,18.1,0,0,0,7.71.47l7.04-1.11a7.967,7.967,0,0,1,2.88.07l8.91,1.85Z" fill="#ffbaa6"/>
      <path id="Path_980081" data-name="Path 980081" d="M60,44V61a1,1,0,0,1-1,1H55a1,1,0,0,1-1-1V60h3a1,1,0,0,0,1-1V43h1A1,1,0,0,1,60,44Z" fill="#7290bf"/>
      <path id="Path_980082" data-name="Path 980082" d="M59,63a2.006,2.006,0,0,0,2-2V44a2.006,2.006,0,0,0-2-2H55a2.006,2.006,0,0,0-2,2v.42l-4.11-1.95q-.96-.45-1.86-.78a25.906,25.906,0,0,0-6.59-1.29,26.316,26.316,0,0,0-4.49.31l-7.51,1.04a4.532,4.532,0,0,0-2.88,1.86,4.428,4.428,0,0,0-.39.71l-18.6-.66A3.478,3.478,0,0,0,6,43.7a3.531,3.531,0,0,0-2.67,2.04,3.6,3.6,0,0,0,0,3.01,3.507,3.507,0,0,0,2.2,1.92l21.79,7.72a17.747,17.747,0,0,0,7.56.45l7.67-1.21L53,59.81V61a2.006,2.006,0,0,0,2,2ZM55,44h4V61H55ZM42.77,55.64a.873.873,0,0,0-.36,0l-7.85,1.24a15.85,15.85,0,0,1-6.65-.38L6.13,48.78a1.554,1.554,0,0,1-.99-.85,1.67,1.67,0,0,1,0-1.35,1.519,1.519,0,0,1,1.16-.89c.08-.01.18-.02.23-.02l18.32.65a3.306,3.306,0,0,0,.06.54.12.12,0,0,0,.02.08,4.475,4.475,0,0,0,4.44,3.4l9.02.06v-2l-9.01-.06a2.543,2.543,0,0,1-2.49-1.8.17.17,0,0,0-.01-.07,2.123,2.123,0,0,1,.33-1.71,2.476,2.476,0,0,1,1.56-1.02l6.97-.97.47-.06a24.093,24.093,0,0,1,4.17-.29,23.912,23.912,0,0,1,5.97,1.17c.54.2,1.11.44,1.69.71L53,46.65V57.79L42.77,55.66Z"/>
      <path id="Path_980083" data-name="Path 980083" d="M30,30.25H28a3.239,3.239,0,0,0,3,3.22V34.5h2V33.47a3.228,3.228,0,0,0,0-6.44V24.56a1.231,1.231,0,0,1,1,1.2h2a3.239,3.239,0,0,0-3-3.22V21.51H31v1.03a3.228,3.228,0,0,0,0,6.44v2.47a1.231,1.231,0,0,1-1-1.2Zm4,0a1.231,1.231,0,0,1-1,1.2v-2.4a1.231,1.231,0,0,1,1,1.2Zm-4-4.5a1.231,1.231,0,0,1,1-1.2v2.4a1.231,1.231,0,0,1-1-1.2Z"/>
      <path id="Path_980084" data-name="Path 980084" d="M33,15V5l1.2,1.6,1.6-1.2-3-4a1.041,1.041,0,0,0-1.6,0l-3,4,1.6,1.2L31,5V15Z"/>
      <path id="Path_980085" data-name="Path 980085" d="M46,29h9l-1.6,1.2,1.2,1.6,4-3a1,1,0,0,0,0-1.6l-4-3-1.2,1.6L55,27H46Z"/>
      <path id="Path_980086" data-name="Path 980086" d="M6.4,27.2a1,1,0,0,0,0,1.6l4,3,1.2-1.6L10,29h9V27H10l1.6-1.2-1.2-1.6Z"/>
      <path id="Path_980087" data-name="Path 980087" d="M16.9,9.72l-4.95-.71a1.022,1.022,0,0,0-.85.28.991.991,0,0,0-.28.85l.71,4.95,1.98-.28-.28-1.98L20.3,19.9l1.41-1.41-7.07-7.07,1.98.28Z"/>
      <path id="Path_980088" data-name="Path 980088" d="M52.05,9.01l-4.95.71.28,1.98,1.98-.28-7.07,7.07L43.7,19.9l7.07-7.07-.28,1.98,1.98.28.71-4.95a1.022,1.022,0,0,0-.28-.85.982.982,0,0,0-.85-.28Z"/>
      <path id="Path_980089" data-name="Path 980089" d="M32,38A10,10,0,1,0,22,28,10.016,10.016,0,0,0,32,38Zm0-18a8,8,0,1,1-8,8A8.011,8.011,0,0,1,32,20Z"/>
    </g>
  </g>
</svg>
