<svg xmlns="http://www.w3.org/2000/svg" xmlns:xlink="http://www.w3.org/1999/xlink" width="108" height="108" viewBox="0 0 108 108">
  <defs>
    <filter id="Path_904820" x="0" y="0" width="108" height="108" filterUnits="userSpaceOnUse">
      <feOffset dy="3" input="SourceAlpha"/>
      <feGaussianBlur stdDeviation="3" result="blur"/>
      <feFlood flood-opacity="0.161"/>
      <feComposite operator="in" in2="blur"/>
      <feComposite in="SourceGraphic"/>
    </filter>
  </defs>
  <g id="Group_1144489" data-name="Group 1144489" transform="translate(-201 -1152)">
    <g id="Group_1144312" data-name="Group 1144312">
      <g id="Group_1144134" data-name="Group 1144134" transform="translate(0 54)">
        <g transform="matrix(1, 0, 0, 1, 201, 1098)" filter="url(#Path_904820)">
          <g id="Path_904820-2" data-name="Path 904820" transform="translate(9 6)" fill="#ecf4fa">
            <path d="M 45 88.5 C 39.12687683105469 88.5 33.43022537231445 87.35007476806641 28.06830024719238 85.08217620849609 C 22.88852500915527 82.89131164550781 18.23629951477051 79.75458526611328 14.2408504486084 75.75914764404297 C 10.24541282653809 71.76370239257812 7.108687400817871 67.11147308349609 4.917825222015381 61.93170166015625 C 2.649924993515015 56.56977462768555 1.5 50.87312316894531 1.5 45 C 1.5 39.12687683105469 2.649924993515015 33.43022537231445 4.917825222015381 28.06830024719238 C 7.108687400817871 22.88852500915527 10.24541282653809 18.23629951477051 14.2408504486084 14.2408504486084 C 18.23629951477051 10.24541282653809 22.88852500915527 7.108687400817871 28.06830024719238 4.917825222015381 C 33.43022537231445 2.649924993515015 39.12687683105469 1.5 45 1.5 C 50.87312316894531 1.5 56.56977462768555 2.649924993515015 61.93170166015625 4.917825222015381 C 67.11147308349609 7.108687400817871 71.76370239257812 10.24541282653809 75.75914764404297 14.2408504486084 C 79.75458526611328 18.23629951477051 82.89131164550781 22.88852500915527 85.08217620849609 28.06830024719238 C 87.35007476806641 33.43022537231445 88.5 39.12687683105469 88.5 45 C 88.5 50.87312316894531 87.35007476806641 56.56977462768555 85.08217620849609 61.93170166015625 C 82.89131164550781 67.11147308349609 79.75458526611328 71.76370239257812 75.75914764404297 75.75914764404297 C 71.76370239257812 79.75458526611328 67.11147308349609 82.89131164550781 61.93170166015625 85.08217620849609 C 56.56977462768555 87.35007476806641 50.87312316894531 88.5 45 88.5 Z" stroke="none"/>
            <path d="M 45 3 C 39.32871246337891 3 33.82865524291992 4.110054016113281 28.65262985229492 6.299339294433594 C 23.65165710449219 8.414573669433594 19.15968322753906 11.44334411621094 15.301513671875 15.301513671875 C 11.44334411621094 19.15968322753906 8.414573669433594 23.65165710449219 6.299339294433594 28.65262985229492 C 4.110054016113281 33.82865524291992 3 39.32871246337891 3 45 C 3 50.67128753662109 4.110054016113281 56.17134475708008 6.299339294433594 61.34737396240234 C 8.414573669433594 66.34834289550781 11.44334411621094 70.84031677246094 15.301513671875 74.698486328125 C 19.15968322753906 78.55665588378906 23.65165710449219 81.58542633056641 28.65262985229492 83.70066070556641 C 33.82865524291992 85.88994598388672 39.32871246337891 87 45 87 C 50.67128753662109 87 56.17134475708008 85.88994598388672 61.34737396240234 83.70066070556641 C 66.34834289550781 81.58542633056641 70.84031677246094 78.55665588378906 74.698486328125 74.698486328125 C 78.55665588378906 70.84031677246094 81.58542633056641 66.34834289550781 83.70066070556641 61.34737396240234 C 85.88994598388672 56.17134475708008 87 50.67128753662109 87 45 C 87 39.32871246337891 85.88994598388672 33.82865524291992 83.70066070556641 28.65262985229492 C 81.58542633056641 23.65165710449219 78.55665588378906 19.15968322753906 74.698486328125 15.301513671875 C 70.84031677246094 11.44334411621094 66.34834289550781 8.414573669433594 61.34737396240234 6.299339294433594 C 56.17134475708008 4.110054016113281 50.67128753662109 3 45 3 M 45 0 C 69.85281372070312 0 90 20.14718627929688 90 45 C 90 69.85281372070312 69.85281372070312 90 45 90 C 20.14718627929688 90 0 69.85281372070312 0 45 C 0 20.14718627929688 20.14718627929688 0 45 0 Z" stroke="none" fill="#2a5673"/>
          </g>
        </g>
      </g>
      <g id="Group_1144311" data-name="Group 1144311" transform="translate(226.271 1175.77)">
        <g id="Group_1144309" data-name="Group 1144309" transform="translate(3.144 0.812)">
          <g id="Group_1144301" data-name="Group 1144301" transform="translate(1.839)">
            <g id="Group_1144300" data-name="Group 1144300">
              <g id="Group_1144287" data-name="Group 1144287" transform="translate(3.25)">
                <g id="Group_1144281" data-name="Group 1144281">
                  <path id="Path_980350" data-name="Path 980350" d="M82.5,45.751l1.083,20.41H76V45.751a3.25,3.25,0,1,1,6.5,0Z" transform="translate(-76 -38.709)" fill="#997ab8"/>
                  <ellipse id="Ellipse_11594" data-name="Ellipse 11594" cx="1.896" cy="1.896" rx="1.896" ry="1.896" transform="translate(1.354)" fill="#ffc796"/>
                </g>
                <g id="Group_1144282" data-name="Group 1144282" transform="translate(6.499)">
                  <path id="Path_980351" data-name="Path 980351" d="M142.5,45.751v20.41H136V45.751a3.25,3.25,0,1,1,6.5,0Z" transform="translate(-136 -38.709)" fill="#b77e5a"/>
                  <ellipse id="Ellipse_11595" data-name="Ellipse 11595" cx="1.896" cy="1.896" rx="1.896" ry="1.896" transform="translate(1.354)" fill="#ffc796"/>
                </g>
                <g id="Group_1144283" data-name="Group 1144283" transform="translate(11.915)">
                  <path id="Path_980352" data-name="Path 980352" d="M193.582,45.751l1.083,20.41H186l1.083-20.41a3.25,3.25,0,1,1,6.5,0Z" transform="translate(-186 -38.709)" fill="#f7775b"/>
                  <ellipse id="Ellipse_11596" data-name="Ellipse 11596" cx="1.896" cy="1.896" rx="1.896" ry="1.896" transform="translate(2.437)" fill="#df9f7a"/>
                </g>
                <g id="Group_1144284" data-name="Group 1144284" transform="translate(19.498)">
                  <path id="Path_980353" data-name="Path 980353" d="M262.5,45.751v20.41H256V45.751a3.25,3.25,0,1,1,6.5,0Z" transform="translate(-256 -38.709)" fill="#ffc54b"/>
                  <ellipse id="Ellipse_11597" data-name="Ellipse 11597" cx="1.896" cy="1.896" rx="1.896" ry="1.896" transform="translate(1.354)" fill="#ffc796"/>
                </g>
                <g id="Group_1144285" data-name="Group 1144285" transform="translate(24.914)">
                  <path id="Path_980354" data-name="Path 980354" d="M313.582,45.751l1.083,20.41H306l1.083-20.41a3.25,3.25,0,1,1,6.5,0Z" transform="translate(-306 -38.709)" fill="#ffe26f"/>
                  <ellipse id="Ellipse_11598" data-name="Ellipse 11598" cx="1.896" cy="1.896" rx="1.896" ry="1.896" transform="translate(2.437)" fill="#ffc796"/>
                </g>
                <g id="Group_1144286" data-name="Group 1144286" transform="translate(32.496)">
                  <path id="Path_980355" data-name="Path 980355" d="M382.5,45.751v20.41H376V45.751a3.249,3.249,0,0,1,2.551-3.174,3.168,3.168,0,0,1,.7-.077A3.25,3.25,0,0,1,382.5,45.751Z" transform="translate(-376 -38.709)" fill="#d1e16f"/>
                  <ellipse id="Ellipse_11599" data-name="Ellipse 11599" cx="1.896" cy="1.896" rx="1.896" ry="1.896" transform="translate(1.354)" fill="#df9f7a"/>
                </g>
              </g>
              <g id="Group_1144288" data-name="Group 1144288" transform="translate(3.25 8.557)">
                <path id="Path_980356" data-name="Path 980356" d="M76,86.5h6.5v18.894H76Z" transform="translate(-76 -86.5)" fill="#6957a1"/>
                <path id="Path_980357" data-name="Path 980357" d="M196,86.5h6.5v18.894H196Z" transform="translate(-183.001 -86.5)" fill="#f25853"/>
                <path id="Path_980358" data-name="Path 980358" d="M316,86.5h6.5v18.894H316Z" transform="translate(-290.003 -86.5)" fill="#ffc54b"/>
              </g>
              <g id="Group_1144289" data-name="Group 1144289" transform="translate(9.749 3.791)">
                <path id="Path_980359" data-name="Path 980359" d="M136,86.5h6.5v18.894H136Z" transform="translate(-136 -81.734)" fill="#98654c"/>
                <path id="Path_980360" data-name="Path 980360" d="M256,86.5h6.5v18.894H256Z" transform="translate(-243.001 -81.734)" fill="#feac38"/>
                <path id="Path_980361" data-name="Path 980361" d="M379.25,42.5a3.168,3.168,0,0,0-.7.077,2.383,2.383,0,0,1-.6,4.689H376V66.161h6.5V45.751A3.25,3.25,0,0,0,379.25,42.5Z" transform="translate(-350.003 -42.5)" fill="#9ccc4b"/>
              </g>
              <g id="Group_1144297" data-name="Group 1144297" transform="translate(0 11.672)">
                <g id="Group_1144290" data-name="Group 1144290" transform="translate(37.912)">
                  <path id="Path_980362" data-name="Path 980362" d="M403.582,153.51v9.847H396l1.083-9.847a3.25,3.25,0,1,1,6.5,0Z" transform="translate(-396 -146.468)" fill="#997ab8"/>
                  <ellipse id="Ellipse_11600" data-name="Ellipse 11600" cx="1.896" cy="1.896" rx="1.896" ry="1.896" transform="translate(2.437)" fill="#df9f7a"/>
                </g>
                <g id="Group_1144291" data-name="Group 1144291" transform="translate(11.915)">
                  <path id="Path_980363" data-name="Path 980363" d="M163.582,153.51l1.083,9.847H156l1.083-9.847a3.25,3.25,0,1,1,6.5,0Z" transform="translate(-156 -146.468)" fill="#e6f8fc"/>
                  <ellipse id="Ellipse_11601" data-name="Ellipse 11601" cx="1.896" cy="1.896" rx="1.896" ry="1.896" transform="translate(2.437)" fill="#ffc796"/>
                </g>
                <g id="Group_1144292" data-name="Group 1144292">
                  <path id="Path_980364" data-name="Path 980364" d="M52.5,153.51l1.083,9.847H46V153.51a3.25,3.25,0,1,1,6.5,0Z" transform="translate(-46 -146.468)" fill="#ffe26f"/>
                  <ellipse id="Ellipse_11602" data-name="Ellipse 11602" cx="1.896" cy="1.896" rx="1.896" ry="1.896" transform="translate(1.354)" fill="#ffc796"/>
                </g>
                <g id="Group_1144293" data-name="Group 1144293" transform="translate(24.914)">
                  <path id="Path_980365" data-name="Path 980365" d="M283.582,153.51l1.083,9.847H276l1.083-9.847a3.25,3.25,0,1,1,6.5,0Z" transform="translate(-276 -146.468)" fill="#3a4b56"/>
                  <ellipse id="Ellipse_11603" data-name="Ellipse 11603" cx="1.896" cy="1.896" rx="1.896" ry="1.896" transform="translate(2.437)" fill="#df9f7a"/>
                </g>
                <g id="Group_1144294" data-name="Group 1144294" transform="translate(6.499)">
                  <path id="Path_980366" data-name="Path 980366" d="M112.5,153.51v9.847H106V153.51a3.25,3.25,0,1,1,6.5,0Z" transform="translate(-106 -146.468)" fill="#d1e16f"/>
                  <ellipse id="Ellipse_11604" data-name="Ellipse 11604" cx="1.896" cy="1.896" rx="1.896" ry="1.896" transform="translate(1.354)" fill="#df9f7a"/>
                </g>
                <g id="Group_1144295" data-name="Group 1144295" transform="translate(19.498)">
                  <path id="Path_980367" data-name="Path 980367" d="M232.5,153.51v9.847H226V153.51a3.25,3.25,0,1,1,6.5,0Z" transform="translate(-226 -146.468)" fill="#b77e5a"/>
                  <ellipse id="Ellipse_11605" data-name="Ellipse 11605" cx="1.896" cy="1.896" rx="1.896" ry="1.896" transform="translate(1.354)" fill="#ffc796"/>
                </g>
                <g id="Group_1144296" data-name="Group 1144296" transform="translate(32.496)">
                  <path id="Path_980368" data-name="Path 980368" d="M352.5,153.51v9.847H346V153.51a3.25,3.25,0,1,1,6.5,0Z" transform="translate(-346 -146.468)" fill="#f7775b"/>
                  <ellipse id="Ellipse_11606" data-name="Ellipse 11606" cx="1.896" cy="1.896" rx="1.896" ry="1.896" transform="translate(1.354)" fill="#ffc796"/>
                </g>
              </g>
              <g id="Group_1144298" data-name="Group 1144298" transform="translate(6.499 25.116)">
                <path id="Path_980369" data-name="Path 980369" d="M106,239.37h6.5v3.445H106Z" transform="translate(-106 -239.37)" fill="#9ccc4b"/>
                <path id="Path_980370" data-name="Path 980370" d="M226,239.37h6.5v3.445H226Z" transform="translate(-213.001 -239.37)" fill="#98654c"/>
                <path id="Path_980371" data-name="Path 980371" d="M346,239.37h6.5v3.445H346Z" transform="translate(-320.003 -239.37)" fill="#f25853"/>
              </g>
              <g id="Group_1144299" data-name="Group 1144299" transform="translate(0 15.464)">
                <path id="Path_980372" data-name="Path 980372" d="M46,239.37h6.5v3.445H46Z" transform="translate(-46 -229.717)" fill="#ffc54b"/>
                <path id="Path_980373" data-name="Path 980373" d="M166,239.37h6.5v3.445H166Z" transform="translate(-153.001 -229.717)" fill="#d0edf5"/>
                <path id="Path_980374" data-name="Path 980374" d="M286,239.37h6.5v3.445H286Z" transform="translate(-260.003 -229.717)" fill="#26363f"/>
                <path id="Path_980375" data-name="Path 980375" d="M412.5,153.51v9.847H406v-3.445h1.315a2.179,2.179,0,0,0,2.179-2.179v-4.117a3.354,3.354,0,0,0-1.787-2.967,3.25,3.25,0,0,1,4.792,2.861Z" transform="translate(-367.004 -150.26)" fill="#6957a1"/>
              </g>
            </g>
          </g>
          <g id="Group_1144308" data-name="Group 1144308" transform="translate(0 27.449)">
            <g id="Group_1144307" data-name="Group 1144307">
              <g id="Group_1144306" data-name="Group 1144306">
                <g id="Group_1144305" data-name="Group 1144305">
                  <g id="Group_1144304" data-name="Group 1144304">
                    <g id="Group_1144302" data-name="Group 1144302" transform="translate(0 0)">
                      <path id="Path_980376" data-name="Path 980376" d="M81.537,260.909a24.513,24.513,0,0,1-9.929,19.722l-8.636,3-1.684-.706-26.254-11a24.352,24.352,0,0,1-2.19-6.5l1.663-4.51Z" transform="translate(-32.429 -260.909)" fill="#7ac2ed"/>
                      <path id="Path_980377" data-name="Path 980377" d="M315.683,260.909a24.513,24.513,0,0,1-9.929,19.722l-8.636,3-1.684-.706a23.045,23.045,0,0,0,16.241-22.014Z" transform="translate(-266.575 -260.909)" fill="#68a6dc"/>
                      <path id="Path_980378" data-name="Path 980378" d="M35.179,260.909a7.279,7.279,0,0,1-5.742,4.51,24.66,24.66,0,0,1-.414-4.51Z" transform="translate(-29.023 -260.909)" fill="#d1e16f"/>
                      <path id="Path_980379" data-name="Path 980379" d="M89.639,317.762a24.568,24.568,0,0,1-36.574-8.708c9.674,0,3.694-6.5,8.18-6.5,5.993,0,5.22,9.729,8.494,11.419,3.234,1.67,5.65-1.829,10.248-1.829,3.493,0,3.531,3.044,5.913,4.653A6.436,6.436,0,0,0,89.639,317.762Z" transform="translate(-50.461 -298.04)" fill="#d1e16f"/>
                      <path id="Path_980380" data-name="Path 980380" d="M137.262,434.036A6.436,6.436,0,0,0,141,435a24.56,24.56,0,0,1-30.334-.855,23.049,23.049,0,0,0,26.6-.114Z" transform="translate(-101.822 -415.283)" fill="#9ccc4b"/>
                    </g>
                    <g id="Group_1144303" data-name="Group 1144303" transform="translate(36.37 5.407)">
                      <path id="Path_980381" data-name="Path 980381" d="M379.932,317.033A1.973,1.973,0,0,1,377.96,319H367.477a2.689,2.689,0,1,1,1.643-4.817,4.092,4.092,0,0,1,8.12.726c0,.1,0,.192-.009.286a1.974,1.974,0,0,1,2.7,1.833Z" transform="translate(-364.788 -310.822)" fill="#e6f8fc"/>
                      <path id="Path_980382" data-name="Path 980382" d="M379.932,323.7a1.973,1.973,0,0,1-1.973,1.972H367.477a2.689,2.689,0,0,1-2.689-2.689,1.7,1.7,0,0,0,1.65,1.4h5.833a3.972,3.972,0,0,0,3.322-6.087,4.087,4.087,0,0,1,1.647,3.282c0,.1,0,.192-.009.286a1.974,1.974,0,0,1,2.7,1.833Z" transform="translate(-364.788 -317.486)" fill="#d0edf5"/>
                    </g>
                    <path id="Path_980383" data-name="Path 980383" d="M219.362,260.907c2.238,1.823,4.217,4.659,3.564,6.153-.774,1.772-6.362,1.367-7.728,0-.982-.983-1.475-4.166-1.011-6.153Z" transform="translate(-193.973 -260.907)" fill="#d1e16f"/>
                  </g>
                </g>
              </g>
            </g>
          </g>
        </g>
        <g id="Group_1144310" data-name="Group 1144310" transform="translate(0 0)">
          <path id="Path_980384" data-name="Path 980384" d="M4.372,497H.812a.812.812,0,1,0,0,1.625h3.56a.812.812,0,1,0,0-1.625Z" transform="translate(0 -443.164)"/>
          <path id="Path_980385" data-name="Path 980385" d="M46.082,271.709A.812.812,0,0,0,44.9,270.59a23.923,23.923,0,0,1-2.846,2.554c-2.9-.075-3.828-1.4-4.809-2.8-.927-1.323-1.977-2.823-4.584-2.823a13.128,13.128,0,0,0-5.434,1.385c-1.736.747-2.99,1.287-4.442.537-1.023-.529-1.639-2.37-2.291-4.32-1.072-3.207-2.407-7.2-6.577-7.2-2.558,0-2.73,1.851-2.845,3.076-.159,1.705-.31,3.319-4.841,3.427A23.483,23.483,0,0,1,4.5,259.345a7.93,7.93,0,0,0,5.318-4.31h3.032a.812.812,0,1,0,0-1.625H.812a.812.812,0,1,0,0,1.625H2.334a25.362,25.362,0,0,0,43.748,16.674ZM3.96,255.035h4a6.32,6.32,0,0,1-3.753,2.7,24.037,24.037,0,0,1-.243-2.7Zm23.733,22.945A23.586,23.586,0,0,1,10.9,271.021a23.882,23.882,0,0,1-3.836-5.009,6.689,6.689,0,0,0,4.42-1.583,4.953,4.953,0,0,0,1.209-3.278c.126-1.348.183-1.6,1.227-1.6,2.791,0,3.806,2.411,5.036,6.088.76,2.272,1.478,4.418,3.087,5.249,2.135,1.1,3.93.33,5.83-.488a11.633,11.633,0,0,1,4.792-1.252c1.761,0,2.387.893,3.253,2.13a6.864,6.864,0,0,0,4.136,3.237,23.674,23.674,0,0,1-12.362,3.466Z" transform="translate(0 -225.96)"/>
          <path id="Path_980386" data-name="Path 980386" d="M371.226,307.508a4.906,4.906,0,0,0-9.381-1.242,3.5,3.5,0,1,0-1.149,6.813h4.112a.812.812,0,1,0,0-1.625H360.7a1.878,1.878,0,0,1,0-3.755,1.858,1.858,0,0,1,1.146.391.812.812,0,0,0,1.3-.5,3.28,3.28,0,0,1,6.508.583c0,.076,0,.154-.008.23a.813.813,0,0,0,1.111.811,1.161,1.161,0,1,1,.429,2.24h-2.625a.812.812,0,0,0,0,1.625h2.625a2.786,2.786,0,0,0,.048-5.571Z" transform="translate(-318.502 -270.417)"/>
          <path id="Path_980387" data-name="Path 980387" d="M76.191,496.931H68.838a.812.812,0,0,0,0,1.625h7.353a.812.812,0,0,0,0-1.625Z" transform="translate(-60.657 -443.103)"/>
          <path id="Path_980388" data-name="Path 980388" d="M27.631,466.53a.812.812,0,0,0,0-1.625H20.82a.812.812,0,0,0,0,1.625Z" transform="translate(-17.841 -414.546)"/>
          <path id="Path_980389" data-name="Path 980389" d="M352.28,496.931h-6.811a.812.812,0,0,0,0,1.625h6.811a.812.812,0,0,0,0-1.625Z" transform="translate(-307.323 -443.103)"/>
          <path id="Path_980390" data-name="Path 980390" d="M414.988,464.9H404.926a.812.812,0,0,0,0,1.625h10.061a.812.812,0,0,0,0-1.625Z" transform="translate(-360.34 -414.546)"/>
          <path id="Path_980391" data-name="Path 980391" d="M145.9,254.221a.812.812,0,0,0,.812.812H152.5c-.186,2.078.293,4.824,1.382,5.914.93.93,3.067,1.419,4.972,1.419a9.062,9.062,0,0,0,1.657-.141,2.962,2.962,0,0,0,2.418-1.527c.721-1.651-.662-3.933-2.265-5.665h20.859c-.026.783-.091,1.564-.192,2.333a.812.812,0,0,0,.7.912.822.822,0,0,0,.107.007.813.813,0,0,0,.8-.706c.111-.839.18-1.693.207-2.546h1.6a.812.812,0,0,0,0-1.625H146.714A.812.812,0,0,0,145.9,254.221Zm8.228.812h4.2a12.5,12.5,0,0,1,2.468,2.813c.693,1.124.788,1.874.645,2.2-.076.175-.445.432-1.231.58-1.884.356-4.515-.166-5.178-.83C154.41,259.178,153.921,256.843,154.13,255.034Z" transform="translate(-130.098 -225.959)"/>
          <path id="Path_980392" data-name="Path 980392" d="M39.312,121.913a.812.812,0,0,0,.812-.812v-5.494a2.437,2.437,0,1,1,4.874,0V121.1a.812.812,0,0,0,1.625,0v-5.494a2.437,2.437,0,1,1,4.874,0V121.1a.812.812,0,0,0,1.625,0v-5.494a2.437,2.437,0,1,1,4.874,0V121.1a.812.812,0,0,0,1.625,0v-5.494a2.437,2.437,0,1,1,4.874,0V121.1a.812.812,0,0,0,1.625,0v-5.494a2.437,2.437,0,1,1,4.874,0V121.1a.812.812,0,0,0,1.625,0v-5.494a2.437,2.437,0,1,1,4.874,0V121.1a.812.812,0,0,0,1.625,0v-5.494a2.437,2.437,0,1,1,4.874,0V121.1a.812.812,0,0,0,1.625,0v-5.494a4.064,4.064,0,0,0-1.941-3.464,2.708,2.708,0,1,0-4.241,0,4.1,4.1,0,0,0-1.129,1.029,4.1,4.1,0,0,0-1.129-1.029,2.708,2.708,0,1,0-4.241,0,4.1,4.1,0,0,0-1.129,1.029,4.1,4.1,0,0,0-1.129-1.029,2.708,2.708,0,1,0-4.241,0,4.1,4.1,0,0,0-1.129,1.029,4.1,4.1,0,0,0-1.129-1.029,2.708,2.708,0,1,0-4.241,0,4.1,4.1,0,0,0-1.129,1.029,4.1,4.1,0,0,0-1.129-1.029,2.708,2.708,0,1,0-4.241,0,4.1,4.1,0,0,0-1.129,1.029,4.1,4.1,0,0,0-1.129-1.029,2.708,2.708,0,1,0-4.241,0,4.1,4.1,0,0,0-1.129,1.029,4.1,4.1,0,0,0-1.129-1.029,2.708,2.708,0,1,0-4.241,0,4.064,4.064,0,0,0-1.941,3.464V121.1A.812.812,0,0,0,39.312,121.913Zm42.245-12.536a1.083,1.083,0,1,1-1.083,1.083A1.085,1.085,0,0,1,81.558,109.377Zm-6.5,0a1.083,1.083,0,1,1-1.083,1.083A1.085,1.085,0,0,1,75.058,109.377Zm-6.5,0a1.083,1.083,0,1,1-1.083,1.083A1.085,1.085,0,0,1,68.559,109.377Zm-6.5,0a1.083,1.083,0,1,1-1.083,1.083A1.085,1.085,0,0,1,62.06,109.377Zm-6.5,0a1.083,1.083,0,1,1-1.083,1.083A1.085,1.085,0,0,1,55.561,109.377Zm-6.5,0a1.083,1.083,0,1,1-1.083,1.083A1.085,1.085,0,0,1,49.061,109.377Zm-6.5,0a1.083,1.083,0,1,1-1.083,1.083A1.085,1.085,0,0,1,42.562,109.377Z" transform="translate(-34.33 -96.08)"/>
          <path id="Path_980393" data-name="Path 980393" d="M69.312,10.044a.812.812,0,0,0,.812-.812V7.854a2.437,2.437,0,1,1,4.874,0V9.232a.812.812,0,0,0,1.625,0V7.854a2.437,2.437,0,1,1,4.874,0V9.232a.812.812,0,0,0,1.625,0V7.854a2.437,2.437,0,1,1,4.874,0V9.232a.812.812,0,0,0,1.625,0V7.854a2.437,2.437,0,1,1,4.874,0V9.232a.812.812,0,0,0,1.625,0V7.854a2.437,2.437,0,1,1,4.874,0V9.232a.812.812,0,1,0,1.625,0V7.854a2.437,2.437,0,1,1,4.874,0V9.232a.812.812,0,0,0,1.625,0V7.854a4.064,4.064,0,0,0-1.941-3.464,2.708,2.708,0,1,0-4.241,0,4.1,4.1,0,0,0-1.129,1.029,4.1,4.1,0,0,0-1.129-1.029,2.708,2.708,0,1,0-4.241,0A4.1,4.1,0,0,0,95.31,5.419a4.1,4.1,0,0,0-1.129-1.029,2.708,2.708,0,1,0-4.241,0A4.1,4.1,0,0,0,88.81,5.419a4.1,4.1,0,0,0-1.129-1.029,2.708,2.708,0,1,0-4.241,0,4.1,4.1,0,0,0-1.129,1.029,4.1,4.1,0,0,0-1.129-1.029,2.708,2.708,0,1,0-4.241,0,4.1,4.1,0,0,0-1.129,1.029,4.1,4.1,0,0,0-1.129-1.029,2.708,2.708,0,1,0-4.241,0A4.064,4.064,0,0,0,68.5,7.854V9.232A.812.812,0,0,0,69.312,10.044Zm35.746-8.419a1.083,1.083,0,1,1-1.083,1.083,1.085,1.085,0,0,1,1.083-1.083Zm-6.5,0a1.083,1.083,0,1,1-1.083,1.083,1.085,1.085,0,0,1,1.083-1.083Zm-6.5,0a1.083,1.083,0,1,1-1.083,1.083A1.085,1.085,0,0,1,92.06,1.625Zm-6.5,0a1.083,1.083,0,1,1-1.083,1.083,1.085,1.085,0,0,1,1.083-1.083Zm-6.5,0a1.083,1.083,0,1,1-1.083,1.083,1.085,1.085,0,0,1,1.083-1.083Zm-6.5,0a1.083,1.083,0,1,1-1.083,1.083,1.085,1.085,0,0,1,1.083-1.083Z" transform="translate(-61.08 0)"/>
        </g>
      </g>
    </g>
  </g>
</svg>
