<svg xmlns="http://www.w3.org/2000/svg" xmlns:xlink="http://www.w3.org/1999/xlink" width="108" height="108" viewBox="0 0 108 108">
  <defs>
    <filter id="Fondo" x="0" y="0" width="108" height="108" filterUnits="userSpaceOnUse">
      <feOffset dy="3" input="SourceAlpha"/>
      <feGaussianBlur stdDeviation="3" result="blur"/>
      <feFlood flood-opacity="0.161"/>
      <feComposite operator="in" in2="blur"/>
      <feComposite in="SourceGraphic"/>
    </filter>
  </defs>
  <g id="Group_1144525" data-name="Group 1144525" transform="translate(-1165.999 -2393)">
    <g transform="matrix(1, 0, 0, 1, 1166, 2393)" filter="url(#Fondo)">
      <g id="Fondo-2" data-name="Fondo" transform="translate(9 6)" fill="#f1fef9" stroke="#43896d" stroke-width="3">
        <circle cx="45" cy="45" r="45" stroke="none"/>
        <circle cx="45" cy="45" r="43.5" fill="none"/>
      </g>
    </g>
    <g id="Group_1144400" data-name="Group 1144400" transform="translate(1150.58 2413.883)">
      <g id="Group_1144398" data-name="Group 1144398" transform="translate(45.424 0.882)">
        <path id="Path_980664" data-name="Path 980664" d="M139.182,400.079a18.012,18.012,0,0,0-6.358-13.923H109.6a18.012,18.012,0,0,0-6.358,13.923h5.544l.882-.432.882.432h21.325l.882-.432.882.432h5.544Z" transform="translate(-97.216 -341.609)" fill="#c7856a"/>
        <g id="Group_1144392" data-name="Group 1144392" transform="translate(12.381 42.833)">
          <path id="Path_980665" data-name="Path 980665" d="M178.119,371.583a14.607,14.607,0,0,1,2.389,1.714,15.293,15.293,0,0,1-1.929,4.069,11.668,11.668,0,0,1-19.369,0,15.286,15.286,0,0,1-1.929-4.069,14.6,14.6,0,0,1,2.389-1.714Z" transform="translate(-157.28 -371.583)" fill="#71daf9"/>
        </g>
        <path id="Path_980666" data-name="Path 980666" d="M159.669,371.582a14.605,14.605,0,0,0-2.389,1.715,15.379,15.379,0,0,0,.874,2.23,21.742,21.742,0,0,0,21.48,0,15.388,15.388,0,0,0,.874-2.23,14.6,14.6,0,0,0-2.389-1.715H159.669Z" transform="translate(-144.899 -328.75)" fill="#30c3ef"/>
        <path id="Path_980667" data-name="Path 980667" d="M205.163,371.583a11.031,11.031,0,0,1-1.541,3.481,7.558,7.558,0,0,1-12.491.1,11.123,11.123,0,0,1-1.61-3.582Z" transform="translate(-173.347 -328.75)" fill="#af7059"/>
        <path id="Path_980668" data-name="Path 980668" d="M233.712,426.393h-1.722a2.225,2.225,0,0,0-2.225,2.225v1.722a2.225,2.225,0,0,0,2.225,2.225h1.722a2.225,2.225,0,0,0,2.225-2.225v-1.722A2.225,2.225,0,0,0,233.712,426.393Z" transform="translate(-208.856 -377.112)" fill="#f0d289"/>
        <path id="Path_980669" data-name="Path 980669" d="M208.821,7.5c-3.474,0-6.29,1.534-6.29,5.008a6.29,6.29,0,0,0,12.581,0C215.112,9.034,212.3,7.5,208.821,7.5Z" transform="translate(-184.827 -7.5)" fill="#303646"/>
        <circle id="Ellipse_11611" data-name="Ellipse 11611" cx="5.508" cy="5.508" r="5.508" transform="translate(36.974 22.091)" fill="#c7856a"/>
        <circle id="Ellipse_11612" data-name="Ellipse 11612" cx="18.252" cy="18.252" r="18.252" transform="translate(5.742 9.581)" fill="#da9d82"/>
        <path id="Path_980670" data-name="Path 980670" d="M64.669,108.288A21.851,21.851,0,0,1,76.346,88.945c-.1,0-.206,0-.309,0a18.259,18.259,0,0,0-17.367,12.624,5.508,5.508,0,1,0-.139,10.812,18.279,18.279,0,0,0,14.048,12.74A21.809,21.809,0,0,1,64.669,108.288Z" transform="translate(-52.043 -79.36)" fill="#c7856a"/>
        <path id="Path_980671" data-name="Path 980671" d="M80.469,271.4H78.553a1.821,1.821,0,0,0-1.821,1.821v1.916a1.821,1.821,0,0,0,1.821,1.821h1.916a1.821,1.821,0,0,0,1.821-1.821v-1.916A1.821,1.821,0,0,0,80.469,271.4Z" transform="translate(-73.827 -240.351)" fill="#71daf9"/>
        <path id="Path_980672" data-name="Path 980672" d="M389.842,271.4h1.916a1.821,1.821,0,0,1,1.821,1.821v1.916a1.821,1.821,0,0,1-1.821,1.821h-1.916a1.821,1.821,0,0,1-1.821-1.821v-1.916A1.821,1.821,0,0,1,389.842,271.4Z" transform="translate(-348.495 -240.351)" fill="#71daf9"/>
        <path id="Path_980673" data-name="Path 980673" d="M178.916,72.817a11.347,11.347,0,0,0-19.37,8.024,3.151,3.151,0,0,0,.925,2.235l.017.017a2.189,2.189,0,0,0,3.147-.113l.509-.56a2.224,2.224,0,0,1,3.292,0l.775.852a2.224,2.224,0,0,0,1.646.728h2.071a2.225,2.225,0,0,0,1.646-.728l.775-.852a2.224,2.224,0,0,1,3.292,0l.491.54a2.218,2.218,0,0,0,3.256.039,3.148,3.148,0,0,0,.852-2.158A11.314,11.314,0,0,0,178.916,72.817Z" transform="translate(-146.899 -62.201)" fill="#475066"/>
        <g id="Group_1144396" data-name="Group 1144396" transform="translate(10.378 27.938)">
          <g id="Group_1144395" data-name="Group 1144395">
            <g id="Group_1144393" data-name="Group 1144393">
              <ellipse id="Ellipse_11613" data-name="Ellipse 11613" cx="3.67" cy="2.923" rx="3.67" ry="2.923" fill="#e2e1f3"/>
            </g>
            <g id="Group_1144394" data-name="Group 1144394" transform="translate(19.893)">
              <ellipse id="Ellipse_11614" data-name="Ellipse 11614" cx="3.67" cy="2.923" rx="3.67" ry="2.923" fill="#e2e1f3"/>
            </g>
          </g>
        </g>
        <path id="Path_980674" data-name="Path 980674" d="M235.61,431.116a3.582,3.582,0,0,1-3.4-4.723h-.224a2.225,2.225,0,0,0-2.225,2.225v1.722a2.225,2.225,0,0,0,2.225,2.225h1.722a2.224,2.224,0,0,0,2.085-1.455Q235.7,431.116,235.61,431.116Z" transform="translate(-208.856 -377.112)" fill="#f3c172"/>
        <path id="Path_980675" data-name="Path 980675" d="M165.224,78.772a10.746,10.746,0,0,1,4.428-8.7,11.35,11.35,0,0,0-10.1,11.279,3.15,3.15,0,0,0,.925,2.235l.017.017a2.189,2.189,0,0,0,3.147-.113l.509-.56a2.215,2.215,0,0,1,1.637-.728A10.748,10.748,0,0,1,165.224,78.772Z" transform="translate(-146.9 -62.711)" fill="#303646"/>
        <path id="Path_980676" data-name="Path 980676" d="M215.777,68.473l-1.733-.213-2.221,1.4,2.336-.486Z" transform="translate(-193.025 -61.112)" fill="#303646"/>
        <g id="Group_1144397" data-name="Group 1144397" transform="translate(2.904 31.046)">
          <path id="Path_980677" data-name="Path 980677" d="M81.768,275.9a3.39,3.39,0,0,1-3.2-4.5h-.012a1.821,1.821,0,0,0-1.821,1.821v1.916a1.821,1.821,0,0,0,1.821,1.821h1.916a1.821,1.821,0,0,0,1.662-1.079A3.381,3.381,0,0,1,81.768,275.9Z" transform="translate(-76.731 -271.397)" fill="#30c3ef"/>
          <path id="Path_980678" data-name="Path 980678" d="M393.057,275.9a3.39,3.39,0,0,1-3.2-4.5h-.012a1.821,1.821,0,0,0-1.821,1.821v1.916a1.821,1.821,0,0,0,1.821,1.821h1.916a1.821,1.821,0,0,0,1.662-1.079A3.382,3.382,0,0,1,393.057,275.9Z" transform="translate(-351.398 -271.397)" fill="#30c3ef"/>
        </g>
      </g>
      <g id="Group_1144399" data-name="Group 1144399" transform="translate(44.542 0)">
        <path id="Path_980679" data-name="Path 980679" d="M183.015,225.653a.882.882,0,0,0-.882.882v1.5a.882.882,0,1,0,1.765,0v-1.5A.882.882,0,0,0,183.015,225.653Z" transform="translate(-165.946 -199.106)"/>
        <path id="Path_980680" data-name="Path 980680" d="M315.748,225.653a.882.882,0,0,0-.882.882v1.5a.882.882,0,1,0,1.765,0v-1.5A.882.882,0,0,0,315.748,225.653Z" transform="translate(-283.064 -199.106)"/>
        <path id="Path_980681" data-name="Path 980681" d="M236.58,238.243a.882.882,0,0,0-1.245.086,1.846,1.846,0,0,1-2.787,0,.882.882,0,1,0-1.33,1.159,3.611,3.611,0,0,0,5.447,0A.882.882,0,0,0,236.58,238.243Z" transform="translate(-209.065 -210.024)"/>
        <path id="Path_980682" data-name="Path 980682" d="M59.531,12.335A19.251,19.251,0,0,0,52.875,19.1a18.98,18.98,0,0,0-1.417,3.018,6.388,6.388,0,0,0-4.012,11.721v1.831a2.707,2.707,0,0,0,2.7,2.7h1.916a2.7,2.7,0,0,0,.767-.111,19.143,19.143,0,0,0,5.2,5.847,19.556,19.556,0,0,0-5.478,6.613.882.882,0,0,0,1.577.792,17.565,17.565,0,0,1,3.285-4.519,13.08,13.08,0,0,0,8.157,7.992,3.115,3.115,0,0,0,2.982,2.235H70.28a3.115,3.115,0,0,0,2.982-2.236A11.818,11.818,0,0,0,77.984,52.2a.882.882,0,0,0-1.221-1.274,10.022,10.022,0,0,1-3.375,2.148v-.684a3.089,3.089,0,0,0-.483-1.661A8.3,8.3,0,0,0,76.43,47.69a11.508,11.508,0,0,0,.864-1.527,19.007,19.007,0,0,0,1.949-1.017c.225.16.484.353.765.579a14.593,14.593,0,0,1-1.269,2.7.882.882,0,1,0,1.51.912,16.453,16.453,0,0,0,1.17-2.354A16.875,16.875,0,0,1,86.488,58.47H81.846V54.832a.882.882,0,1,0-1.765,0V58.47H58.756V54.832a.882.882,0,0,0-1.765,0V58.47H52.35a17.821,17.821,0,0,1,.592-3.841.882.882,0,1,0-1.7-.462,19.825,19.825,0,0,0-.674,5.184.882.882,0,0,0,.882.882H87.391a.882.882,0,0,0,.882-.882,19,19,0,0,0-6.664-14.591h0c-.284-.245-.555-.463-.805-.655A19.143,19.143,0,0,0,86,38.258a2.694,2.694,0,0,0,.767.111h1.916a2.707,2.707,0,0,0,2.7-2.7V33.835a6.389,6.389,0,0,0-3.485-11.744c-.176,0-.352.009-.527.024A18.97,18.97,0,0,0,85.963,19.1a19.251,19.251,0,0,0-6.641-6.753A12.377,12.377,0,0,0,75.831,9.1a7.137,7.137,0,0,0,.761-3.214c0-3.633-2.749-5.89-7.173-5.89s-7.173,2.257-7.173,5.89a7.137,7.137,0,0,0,.764,3.221,12.329,12.329,0,0,0-3.479,3.223ZM46.307,28.481a4.63,4.63,0,0,1,4.6-4.625,19.224,19.224,0,0,0-.624,4.86,19.893,19.893,0,0,0,.141,2.331,2.81,2.81,0,0,0-2.4,1.033A4.613,4.613,0,0,1,46.307,28.481ZM50.15,36.6a.94.94,0,0,1-.939-.939V33.75a.943.943,0,0,1,.936-.939h1.919A.941.941,0,0,1,53,33.75v1.916s0,.007,0,.01a.941.941,0,0,1-.938.929Zm11.4,9.559a8.947,8.947,0,0,0,4.387,4.564,3.088,3.088,0,0,0-.483,1.661v.684a11.749,11.749,0,0,1-6.621-7.347c.281-.226.54-.419.765-.579A19.049,19.049,0,0,0,61.546,46.163Zm7.012,9.29a1.347,1.347,0,0,1-1.337-1.239c-.012-.161,0,.084-.006-1.826a1.346,1.346,0,0,1,1.343-1.343h1.724a1.347,1.347,0,0,1,1.342,1.343c0,1.854.006,1.669-.006,1.826a1.347,1.347,0,0,1-1.337,1.239H68.558Zm2.7-6.015a3.14,3.14,0,0,0-.977-.158H68.558a3.108,3.108,0,0,0-.977.158,6.249,6.249,0,0,1-3.4-2.315,19.3,19.3,0,0,0,10.487,0,6.25,6.25,0,0,1-3.405,2.314Zm18.37-13.773a.94.94,0,0,1-.939.939H86.772a.942.942,0,0,1-.939-.939h0V33.75a.94.94,0,0,1,.939-.939H88.69a.943.943,0,0,1,.937.939v1.916Zm-1.7-11.81a4.625,4.625,0,0,1,2.882,8.224,2.879,2.879,0,0,0-2.4-1.033,19.93,19.93,0,0,0,.141-2.331A19.255,19.255,0,0,0,87.929,23.856Zm-3.491-3.871a17.4,17.4,0,0,1,2.351,8.731,17.724,17.724,0,0,1-.156,2.334,2.708,2.708,0,0,0-2.565,2.7v1.916a2.73,2.73,0,0,0,.5,1.561,17.375,17.375,0,0,1-30.29,0,2.737,2.737,0,0,0,.5-1.556s0,0,0,0V33.747a2.709,2.709,0,0,0-2.564-2.7,17.879,17.879,0,0,1-.156-2.334,17.33,17.33,0,0,1,5.7-12.863,12.4,12.4,0,0,0-.552,3.907,4.012,4.012,0,0,0,1.176,2.623l0,0h0a3.071,3.071,0,0,0,3.776.416A6.228,6.228,0,0,0,63.323,21.7a1.342,1.342,0,0,1,1.986,0l.775.853a3.113,3.113,0,0,0,2.3,1.017h2.071a3.112,3.112,0,0,0,1.735-.532A8.189,8.189,0,0,0,73.528,21.7a1.341,1.341,0,0,1,1.986,0,3.335,3.335,0,0,0,6.134-2.173,12.3,12.3,0,0,0-.558-3.669A17.462,17.462,0,0,1,84.438,19.985ZM64.573,8.292a5.382,5.382,0,0,1-.562-2.4c0-3.724,3.782-4.126,5.408-4.126s5.408.4,5.408,4.126a5.381,5.381,0,0,1-.56,2.4,12.282,12.282,0,0,0-9.694,0Zm4.838.766h.008A10.466,10.466,0,0,1,79.884,19.523c0,.94-.612,1.97-1.577,1.968h0c-.835-.006-1.135-.673-1.482-.983a3.108,3.108,0,0,0-4.242-.333,11.853,11.853,0,0,0-1.13,1.186,1.345,1.345,0,0,1-.993.439H68.383a1.344,1.344,0,0,1-.993-.439l-.775-.853a3.107,3.107,0,0,0-4.6,0l-.509.56a1.308,1.308,0,0,1-1.875.078l0,0-.008-.008a2.263,2.263,0,0,1-.667-1.611A10.477,10.477,0,0,1,69.411,9.058Z" transform="translate(-44.542 0)"/>
      </g>
    </g>
  </g>
</svg>
